Nunito-LightItalic.ufo
<glyph name="exclam" format="2">
  <advance width="219.46987951807228"/>
  <unicode hex="0021"/>
  <outline>
    <contour>
      <point x="100.95180722891567" y="169.44578313253012" type="curve" smooth="yes"/>
      <point x="112.61445783132531" y="169.44578313253012"/>
      <point x="120.44578313253011" y="178.8192771084337"/>
      <point x="122.59036144578313" y="189.71084337349396" type="curve" smooth="yes"/>
      <point x="214.13253012048193" y="668.9518072289158" type="line" smooth="yes"/>
      <point x="219.42168674698794" y="695.9638554216867"/>
      <point x="206.5301204819277" y="711.4578313253012"/>
      <point x="182.2048192771084" y="711.4578313253012" type="curve" smooth="yes"/>
      <point x="159.10843373493978" y="711.4578313253012"/>
      <point x="145.21686746987953" y="699.0240963855422"/>
      <point x="142.75903614457832" y="675.4698795180724" type="curve" smooth="yes"/>
      <point x="82.45783132530121" y="192.85542168674698" type="line" smooth="yes"/>
      <point x="81.0" y="177.59036144578312"/>
      <point x="88.28915662650601" y="169.44578313253012"/>
    </contour>
    <contour>
      <point x="79.49397590361446" y="-3.4578313253012047" type="curve" smooth="yes"/>
      <point x="106.9879518072289" y="-3.4578313253012047"/>
      <point x="124.96385542168674" y="15.975903614457831"/>
      <point x="124.96385542168674" y="43.01204819277108" type="curve" smooth="yes"/>
      <point x="124.96385542168674" y="69.81927710843374"/>
      <point x="106.9879518072289" y="89.02409638554217"/>
      <point x="79.49397590361446" y="89.02409638554217" type="curve" smooth="yes"/>
      <point x="52.00000000000001" y="89.02409638554217"/>
      <point x="33.02409638554217" y="69.81927710843374"/>
      <point x="33.02409638554217" y="43.01204819277108" type="curve" smooth="yes"/>
      <point x="33.02409638554217" y="15.975903614457831"/>
      <point x="52.00000000000001" y="-3.4578313253012047"/>
    </contour>
  </outline>
</glyph>
<glyph name="numbersign" format="2">
  <advance width="600.0"/>
  <unicode hex="0023"/>
  <outline>
    <contour>
      <point x="78.20481927710843" y="-6.457831325301205" type="curve" smooth="yes"/>
      <point x="94.49397590361446" y="-6.457831325301205"/>
      <point x="105.55421686746986" y="1.9156626506024095"/>
      <point x="111.69879518072288" y="18.349397590361445" type="curve" smooth="yes"/>
      <point x="171.49397590361446" y="186.65060240963857" type="line"/>
      <point x="344.53012048192767" y="186.65060240963857" type="line"/>
      <point x="288.4216867469879" y="29.40963855421687" type="line" smooth="yes"/>
      <point x="280.8192771084337" y="7.289156626506024"/>
      <point x="286.96385542168673" y="-6.457831325301205"/>
      <point x="304.08433734939763" y="-6.457831325301205" type="curve" smooth="yes"/>
      <point x="320.3734939759036" y="-6.457831325301205"/>
      <point x="331.433734939759" y="1.9156626506024095"/>
      <point x="337.5783132530121" y="18.349397590361445" type="curve" smooth="yes"/>
      <point x="402.3734939759036" y="197.65060240963854" type="line"/>
      <point x="379.93975903614455" y="186.65060240963857" type="line"/>
      <point x="514.7590361445783" y="186.65060240963857" type="line" smooth="yes"/>
      <point x="534.4216867469879" y="186.65060240963857"/>
      <point x="546.0240963855422" y="196.93975903614458"/>
      <point x="546.0240963855422" y="214.45783132530119" type="curve" smooth="yes"/>
      <point x="546.0240963855422" y="230.40963855421688"/>
      <point x="531.7590361445783" y="235.80722891566265"/>
      <point x="517.2168674698795" y="235.80722891566265" type="curve" smooth="yes"/>
      <point x="396.37349397590367" y="235.80722891566265" type="line"/>
      <point x="412.5783132530121" y="229.12048192771084" type="line"/>
      <point x="504.3734939759036" y="489.1927710843374" type="line"/>
      <point x="481.93975903614455" y="477.1927710843373" type="line"/>
      <point x="580.2168674698795" y="477.1927710843373" type="line" smooth="yes"/>
      <point x="599.8795180722891" y="477.1927710843373"/>
      <point x="611.4819277108434" y="487.48192771084337"/>
      <point x="611.4819277108434" y="505.2289156626506" type="curve" smooth="yes"/>
      <point x="611.4819277108434" y="521.1807228915662"/>
      <point x="597.2168674698795" y="526.5783132530121"/>
      <point x="582.6746987951807" y="526.5783132530121" type="curve" smooth="yes"/>
      <point x="498.22891566265065" y="526.5783132530121" type="line"/>
      <point x="513.8072289156627" y="514.578313253012" type="line"/>
      <point x="570.1445783132531" y="675.8192771084337" type="line" smooth="yes"/>
      <point x="577.7469879518072" y="697.9397590361446"/>
      <point x="571.6024096385543" y="711.4578313253012"/>
      <point x="554.4819277108434" y="711.4578313253012" type="curve" smooth="yes"/>
      <point x="537.9638554216867" y="711.4578313253012"/>
      <point x="526.132530120482" y="703.0843373493976"/>
      <point x="520.7590361445783" y="686.6506024096386" type="curve" smooth="yes"/>
      <point x="464.73493975903614" y="526.5783132530121" type="line"/>
      <point x="290.6987951807229" y="526.5783132530121" type="line"/>
      <point x="343.03614457831327" y="675.8192771084337" type="line" smooth="yes"/>
      <point x="350.6385542168675" y="697.9397590361446"/>
      <point x="344.49397590361446" y="711.4578313253012"/>
      <point x="328.144578313253" y="711.4578313253012" type="curve" smooth="yes"/>
      <point x="311.855421686747" y="711.4578313253012"/>
      <point x="300.7951807228916" y="703.0843373493976"/>
      <point x="294.65060240963857" y="686.6506024096386" type="curve" smooth="yes"/>
      <point x="233.85542168674698" y="514.578313253012" type="line"/>
      <point x="256.28915662650604" y="526.5783132530121" type="line"/>
      <point x="121.46987951807229" y="526.5783132530121" type="line" smooth="yes"/>
      <point x="101.57831325301204" y="526.5783132530121"/>
      <point x="90.20481927710844" y="516.289156626506"/>
      <point x="90.20481927710844" y="498.7710843373494" type="curve" smooth="yes"/>
      <point x="90.20481927710844" y="482.5903614457831"/>
      <point x="104.46987951807229" y="477.1927710843373"/>
      <point x="118.78313253012048" y="477.1927710843373" type="curve" smooth="yes"/>
      <point x="239.85542168674698" y="477.1927710843373" type="line"/>
      <point x="225.42168674698794" y="489.1927710843374" type="line"/>
      <point x="133.6265060240964" y="229.12048192771084" type="line"/>
      <point x="154.289156626506" y="235.80722891566265" type="line"/>
      <point x="55.78313253012048" y="235.80722891566265" type="line" smooth="yes"/>
      <point x="36.12048192771085" y="235.80722891566265"/>
      <point x="24.518072289156624" y="225.74698795180723"/>
      <point x="24.518072289156624" y="208.0" type="curve" smooth="yes"/>
      <point x="24.518072289156624" y="192.04819277108433"/>
      <point x="38.78313253012048" y="186.65060240963857"/>
      <point x="53.325301204819276" y="186.65060240963857" type="curve" smooth="yes"/>
      <point x="138.77108433734938" y="186.65060240963857" type="line"/>
      <point x="123.19277108433734" y="197.65060240963854" type="line"/>
      <point x="62.31325301204819" y="29.40963855421687" type="line" smooth="yes"/>
      <point x="54.71084337349398" y="7.289156626506024"/>
      <point x="60.855421686746986" y="-6.457831325301205"/>
    </contour>
    <contour>
      <point x="187.9277108433735" y="235.80722891566265" type="line"/>
      <point x="273.4939759036144" y="477.1927710843373" type="line"/>
      <point x="447.5301204819277" y="477.1927710843373" type="line"/>
      <point x="361.96385542168673" y="235.80722891566265" type="line"/>
    </contour>
  </outline>
</glyph>
<glyph name="dollar" format="2">
  <advance width="600.0"/>
  <unicode hex="0024"/>
  <outline>
    <contour>
      <point x="254.6867469879518" y="-121.4578313253012" type="curve" smooth="yes"/>
      <point x="269.34939759036143" y="-121.4578313253012"/>
      <point x="280.09638554216866" y="-112.62650602409639"/>
      <point x="282.5542168674699" y="-97.42168674698794" type="curve" smooth="yes"/>
      <point x="299.86746987951807" y="11.144578313253012" type="line"/>
      <point x="283.72289156626505" y="-4.228915662650603" type="line"/>
      <point x="418.6385542168675" y="-4.168674698795181"/>
      <point x="534.3253012048192" y="65.51807228915663"/>
      <point x="534.3253012048192" y="189.72289156626505" type="curve" smooth="yes"/>
      <point x="534.3253012048192" y="279.18072289156623"/>
      <point x="480.18072289156623" y="332.6987951807229"/>
      <point x="350.07228915662654" y="368.09638554216866" type="curve" smooth="yes"/>
      <point x="265.1807228915663" y="390.7831325301205" type="line" smooth="yes"/>
      <point x="194.0722891566265" y="409.6385542168675"/>
      <point x="158.27710843373495" y="439.26506024096386"/>
      <point x="158.27710843373495" y="514.710843373494" type="curve" smooth="yes"/>
      <point x="158.27710843373495" y="604.0120481927711"/>
      <point x="233.78313253012047" y="653.1204819277109"/>
      <point x="351.0" y="653.1204819277109" type="curve" smooth="yes"/>
      <point x="424.1927710843373" y="653.1204819277109"/>
      <point x="483.3614457831325" y="631.4096385542168"/>
      <point x="533.6746987951807" y="586.2168674698795" type="curve" smooth="yes"/>
      <point x="570.4337349397591" y="556.8674698795181"/>
      <point x="594.1807228915662" y="604.289156626506"/>
      <point x="573.0843373493975" y="623.9518072289156" type="curve" smooth="yes"/>
      <point x="529.6265060240964" y="668.289156626506"/>
      <point x="468.144578313253" y="696.7710843373494"/>
      <point x="402.7228915662651" y="705.7710843373494" type="curve"/>
      <point x="408.6385542168675" y="697.5421686746988" type="line"/>
      <point x="422.95180722891564" y="789.1927710843374" type="line" smooth="yes"/>
      <point x="426.6385542168675" y="812.0843373493976"/>
      <point x="414.43373493975906" y="821.144578313253"/>
      <point x="399.5421686746988" y="821.144578313253" type="curve" smooth="yes"/>
      <point x="384.421686746988" y="821.144578313253"/>
      <point x="372.90361445783134" y="812.0843373493976"/>
      <point x="370.4457831325301" y="797.1084337349398" type="curve" smooth="yes"/>
      <point x="354.90361445783134" y="699.3132530120482" type="line"/>
      <point x="363.73493975903614" y="709.4578313253012" type="line"/>
      <point x="214.96385542168676" y="713.6265060240963"/>
      <point x="95.27710843373494" y="642.7951807228916"/>
      <point x="95.27710843373494" y="511.9638554216868" type="curve" smooth="yes"/>
      <point x="95.27710843373494" y="408.3373493975904"/>
      <point x="154.50602409638554" y="360.3614457831325"/>
      <point x="245.87951807228916" y="336.13253012048193" type="curve" smooth="yes"/>
      <point x="330.77108433734935" y="313.4457831325301" type="line" smooth="yes"/>
      <point x="438.1566265060241" y="284.4216867469879"/>
      <point x="471.3253012048193" y="249.93975903614458"/>
      <point x="471.3253012048193" y="183.66265060240966" type="curve" smooth="yes"/>
      <point x="471.3253012048193" y="97.44578313253012"/>
      <point x="389.1927710843374" y="51.87951807228916"/>
      <point x="288.4578313253012" y="51.87951807228916" type="curve" smooth="yes"/>
      <point x="194.63855421686745" y="51.87951807228916"/>
      <point x="132.49397590361446" y="72.73493975903614"/>
      <point x="78.95180722891567" y="114.30120481927712" type="curve" smooth="yes"/>
      <point x="41.10843373493976" y="142.19277108433735"/>
      <point x="14.072289156626505" y="91.855421686747"/>
      <point x="44.68674698795181" y="67.96385542168674" type="curve" smooth="yes"/>
      <point x="95.6867469879518" y="24.855421686746986"/>
      <point x="170.5421686746988" y="-0.2289156626506024"/>
      <point x="257.27710843373495" y="-4.228915662650603" type="curve"/>
      <point x="246.13253012048193" y="9.602409638554217" type="line"/>
      <point x="230.81927710843374" y="-87.81927710843374" type="line" smooth="yes"/>
      <point x="227.13253012048193" y="-110.16867469879519"/>
      <point x="237.42168674698794" y="-121.4578313253012"/>
    </contour>
  </outline>
</glyph>
<glyph name="percent" format="2">
  <advance width="922.6385542168674"/>
  <unicode hex="0025"/>
  <outline>
    <contour>
      <point x="249.81927710843374" y="-4.16867469879518" type="curve" smooth="yes"/>
      <point x="748.6626506024096" y="676.7590361445783" type="line" smooth="yes"/>
      <point x="774.012048192771" y="711.1686746987951"/>
      <point x="730.710843373494" y="738.8915662650602"/>
      <point x="705.8192771084338" y="705.1686746987953" type="curve" smooth="yes"/>
      <point x="207.97590361445782" y="26.012048192771086" type="line" smooth="yes"/>
      <point x="182.6265060240964" y="-8.397590361445783"/>
      <point x="224.69879518072287" y="-38.12048192771085"/>
    </contour>
    <contour>
      <point x="239.22891566265062" y="281.7710843373494" type="curve" smooth="yes"/>
      <point x="371.5421686746988" y="281.7710843373494"/>
      <point x="442.0" y="403.71084337349396"/>
      <point x="442.0" y="552.1686746987953" type="curve" smooth="yes"/>
      <point x="442.0" y="652.3975903614457"/>
      <point x="387.855421686747" y="712.7710843373494"/>
      <point x="299.73493975903614" y="712.7710843373494" type="curve" smooth="yes"/>
      <point x="167.42168674698797" y="712.7710843373494"/>
      <point x="96.96385542168674" y="590.1445783132531"/>
      <point x="96.96385542168674" y="442.144578313253" type="curve" smooth="yes"/>
      <point x="96.96385542168674" y="341.91566265060237"/>
      <point x="151.10843373493975" y="281.7710843373494"/>
    </contour>
    <contour>
      <point x="239.22891566265062" y="328.6144578313253" type="curve" smooth="yes"/>
      <point x="186.80722891566265" y="328.6144578313253"/>
      <point x="149.6987951807229" y="364.1807228915663"/>
      <point x="152.4698795180723" y="447.0" type="curve" smooth="yes"/>
      <point x="156.0120481927711" y="568.2168674698795"/>
      <point x="202.89156626506025" y="665.6987951807229"/>
      <point x="299.73493975903614" y="665.6987951807229" type="curve" smooth="yes"/>
      <point x="352.15662650602405" y="665.6987951807229"/>
      <point x="389.26506024096386" y="630.1325301204819"/>
      <point x="386.49397590361446" y="547.3132530120482" type="curve" smooth="yes"/>
      <point x="382.95180722891564" y="426.32530120481925"/>
      <point x="336.0722891566265" y="328.6144578313253"/>
    </contour>
    <contour>
      <point x="657.6746987951807" y="-8.457831325301205" type="curve" smooth="yes"/>
      <point x="789.9879518072289" y="-8.457831325301205"/>
      <point x="860.2168674698795" y="113.48192771084337"/>
      <point x="860.2168674698795" y="261.9397590361446" type="curve" smooth="yes"/>
      <point x="860.2168674698795" y="362.1686746987952"/>
      <point x="806.0722891566265" y="422.5421686746988"/>
      <point x="717.9518072289156" y="422.5421686746988" type="curve" smooth="yes"/>
      <point x="585.867469879518" y="422.5421686746988"/>
      <point x="515.4096385542169" y="299.9156626506024"/>
      <point x="515.4096385542169" y="151.9156626506024" type="curve" smooth="yes"/>
      <point x="515.4096385542169" y="51.91566265060241"/>
      <point x="569.3253012048193" y="-8.457831325301205"/>
    </contour>
    <contour>
      <point x="657.4457831325301" y="38.6144578313253" type="curve" smooth="yes"/>
      <point x="605.0240963855422" y="38.6144578313253"/>
      <point x="568.1445783132531" y="74.18072289156626"/>
      <point x="570.6867469879518" y="157.0" type="curve" smooth="yes"/>
      <point x="574.2289156626506" y="277.9879518072289"/>
      <point x="621.1084337349397" y="375.6987951807229"/>
      <point x="718.1807228915662" y="375.6987951807229" type="curve" smooth="yes"/>
      <point x="770.6024096385543" y="375.6987951807229"/>
      <point x="807.4819277108434" y="340.13253012048193"/>
      <point x="804.9397590361446" y="257.3132530120482" type="curve" smooth="yes"/>
      <point x="801.3975903614457" y="136.09638554216866"/>
      <point x="754.5180722891566" y="38.6144578313253"/>
    </contour>
  </outline>
</glyph>
<glyph name="ampersand" format="2">
  <advance width="678.1927710843373"/>
  <unicode hex="0026"/>
  <outline>
    <contour>
      <point x="247.26506024096383" y="-8.457831325301205" type="curve" smooth="yes"/>
      <point x="349.7469879518072" y="-8.457831325301205"/>
      <point x="431.9759036144578" y="33.168674698795186"/>
      <point x="492.3493975903615" y="105.42168674698794" type="curve"/>
      <point x="473.51807228915663" y="105.65060240963855" type="line"/>
      <point x="545.0" y="5.602409638554217" type="line" smooth="yes"/>
      <point x="551.8313253012049" y="-3.6867469879518073"/>
      <point x="561.2650602409639" y="-6.686746987951808"/>
      <point x="571.3253012048192" y="-6.686746987951808" type="curve" smooth="yes"/>
      <point x="596.1084337349397" y="-6.686746987951808"/>
      <point x="609.5421686746988" y="14.180722891566266"/>
      <point x="594.0481927710844" y="34.13253012048193" type="curve" smooth="yes"/>
      <point x="509.65060240963857" y="149.95180722891567" type="line"/>
      <point x="512.5060240963855" y="128.97590361445782" type="line"/>
      <point x="563.566265060241" y="196.80722891566265"/>
      <point x="598.9638554216867" y="280.10843373493975"/>
      <point x="622.0240963855422" y="383.71084337349396" type="curve" smooth="yes"/>
      <point x="626.6265060240963" y="403.51807228915663"/>
      <point x="616.6506024096385" y="414.8072289156627"/>
      <point x="598.3855421686748" y="414.8072289156627" type="curve" smooth="yes"/>
      <point x="581.2650602409639" y="414.8072289156627"/>
      <point x="571.2048192771084" y="405.9759036144578"/>
      <point x="566.8313253012049" y="389.08433734939763" type="curve" smooth="yes"/>
      <point x="548.2289156626506" y="301.9156626506024"/>
      <point x="518.3493975903615" y="225.36144578313252"/>
      <point x="479.34939759036143" y="172.67469879518072" type="curve"/>
      <point x="491.0120481927711" y="172.67469879518072" type="line"/>
      <point x="331.2771084337349" y="395.31325301204816" type="line"/>
      <point x="329.2771084337349" y="376.87951807228916" type="line"/>
      <point x="436.6144578313253" y="440.2168674698795"/>
      <point x="514.3614457831326" y="492.6506024096385"/>
      <point x="514.3614457831326" y="589.1084337349397" type="curve" smooth="yes"/>
      <point x="514.3614457831326" y="662.6265060240963"/>
      <point x="461.6987951807229" y="713.4578313253012"/>
      <point x="378.8072289156626" y="713.4578313253012" type="curve" smooth="yes"/>
      <point x="271.3132530120482" y="713.4578313253012"/>
      <point x="199.04819277108433" y="645.7951807228915"/>
      <point x="199.04819277108433" y="545.3614457831325" type="curve" smooth="yes"/>
      <point x="199.04819277108433" y="501.90361445783134"/>
      <point x="217.04819277108433" y="451.5903614457832"/>
      <point x="263.44578313253015" y="390.48192771084337" type="curve"/>
      <point x="271.566265060241" y="403.6024096385542" type="line"/>
      <point x="236.10843373493975" y="383.6024096385542" type="line" smooth="yes"/>
      <point x="150.9879518072289" y="335.77108433734935"/>
      <point x="50.397590361445786" y="257.68674698795184"/>
      <point x="50.397590361445786" y="144.97590361445785" type="curve" smooth="yes"/>
      <point x="50.397590361445786" y="49.83132530120482"/>
      <point x="126.68674698795182" y="-8.457831325301205"/>
    </contour>
    <contour>
      <point x="249.30120481927713" y="44.27710843373494" type="curve" smooth="yes"/>
      <point x="158.87951807228916" y="44.27710843373494"/>
      <point x="111.39759036144578" y="81.44578313253011"/>
      <point x="111.39759036144578" y="150.63855421686748" type="curve" smooth="yes"/>
      <point x="111.39759036144578" y="234.43373493975903"/>
      <point x="175.56626506024097" y="289.3132530120482"/>
      <point x="266.6385542168675" y="343.3614457831325" type="curve" smooth="yes"/>
      <point x="300.72289156626505" y="363.4457831325301" type="line"/>
      <point x="281.2530120481928" y="365.5903614457831" type="line"/>
      <point x="457.65060240963857" y="124.83132530120481" type="line"/>
      <point x="460.56626506024094" y="147.57831325301206" type="line"/>
      <point x="408.16867469879514" y="80.07228915662651"/>
      <point x="340.20481927710847" y="44.27710843373494"/>
    </contour>
    <contour>
      <point x="376.433734939759" y="663.0120481927711" type="curve" smooth="yes"/>
      <point x="426.4578313253012" y="663.0120481927711"/>
      <point x="459.48192771084337" y="631.1325301204819"/>
      <point x="459.48192771084337" y="585.1084337349397" type="curve" smooth="yes"/>
      <point x="459.48192771084337" y="526.0240963855422"/>
      <point x="418.56626506024094" y="486.0240963855422"/>
      <point x="297.9518072289157" y="415.72289156626505" type="curve"/>
      <point x="315.2409638554217" y="417.12048192771084" type="line"/>
      <point x="269.9879518072289" y="479.3132530120482"/>
      <point x="257.9879518072289" y="507.93975903614455"/>
      <point x="257.9879518072289" y="550.7349397590361" type="curve" smooth="yes"/>
      <point x="257.9879518072289" y="613.6746987951807"/>
      <point x="305.55421686746985" y="663.0120481927711"/>
    </contour>
  </outline>
</glyph>
<glyph name="quotesingle" format="2">
  <advance width="211.3855421686747"/>
  <unicode hex="0027"/>
  <outline>
    <contour>
      <point x="137.34939759036146" y="427.8192771084337" type="curve" smooth="yes"/>
      <point x="148.32530120481925" y="427.8192771084337"/>
      <point x="158.0722891566265" y="435.73493975903614"/>
      <point x="161.44578313253012" y="452.08433734939763" type="curve" smooth="yes"/>
      <point x="208.13253012048193" y="672.2409638554217" type="line" smooth="yes"/>
      <point x="213.42168674698797" y="696.5662650602409"/>
      <point x="199.1566265060241" y="711.4578313253012"/>
      <point x="176.20481927710844" y="711.4578313253012" type="curve" smooth="yes"/>
      <point x="154.16867469879517" y="711.4578313253012"/>
      <point x="141.04819277108433" y="697.0240963855421"/>
      <point x="139.81927710843374" y="679.5301204819277" type="curve" smooth="yes"/>
      <point x="117.48192771084338" y="454.68674698795184" type="line" smooth="yes"/>
      <point x="115.48192771084337" y="434.6506024096385"/>
      <point x="124.77108433734941" y="427.8192771084337"/>
    </contour>
  </outline>
</glyph>
<glyph name="parenleft" format="2">
  <advance width="298.6265060240964"/>
  <unicode hex="0028"/>
  <outline>
    <contour>
      <point x="138.28915662650604" y="-161.10843373493975" type="curve" smooth="yes"/>
      <point x="148.26506024096386" y="-198.74698795180723"/>
      <point x="197.00000000000003" y="-188.144578313253"/>
      <point x="190.3975903614458" y="-149.46987951807228" type="curve" smooth="yes"/>
      <point x="174.5421686746988" y="-63.674698795180724"/>
      <point x="165.2289156626506" y="20.51807228915662"/>
      <point x="165.2289156626506" y="99.5421686746988" type="curve" smooth="yes"/>
      <point x="165.2289156626506" y="314.4216867469879"/>
      <point x="224.25301204819277" y="501.4698795180723"/>
      <point x="320.421686746988" y="669.156626506024" type="curve" smooth="yes"/>
      <point x="340.3132530120482" y="704.3975903614457"/>
      <point x="296.4096385542169" y="726.6626506024096"/>
      <point x="275.14457831325296" y="697.0240963855422" type="curve" smooth="yes"/>
      <point x="170.9156626506024" y="545.6867469879518"/>
      <point x="100.62650602409639" y="331.3493975903615"/>
      <point x="100.62650602409639" y="110.46987951807229" type="curve" smooth="yes"/>
      <point x="100.62650602409639" y="21.783132530120476"/>
      <point x="114.3132530120482" y="-68.59036144578313"/>
    </contour>
  </outline>
</glyph>
<glyph name="parenright" format="2">
  <advance width="298.6265060240964"/>
  <unicode hex="0029"/>
  <outline>
    <contour>
      <point x="59.92771084337348" y="20.12048192771084" type="curve" smooth="yes"/>
      <point x="137.85542168674698" y="159.5421686746988"/>
      <point x="166.2289156626506" y="317.8072289156626"/>
      <point x="168.97590361445782" y="473.4457831325301" type="curve" smooth="yes"/>
      <point x="171.72289156626505" y="524.132530120482"/>
      <point x="162.53012048192772" y="577.1927710843373"/>
      <point x="147.10843373493975" y="630.7951807228916" type="curve" smooth="yes"/>
      <point x="141.71084337349396" y="608.6867469879518"/>
      <point x="103.50602409638553" y="563.5180722891566"/>
      <point x="86.75903614457832" y="503.7831325301205" type="curve" smooth="yes"/>
      <point x="91.54216867469881" y="420.73493975903614"/>
      <point x="119.25301204819277" y="343.6385542168675"/>
      <point x="128.18072289156626" y="292.3132530120482" type="curve" smooth="yes"/>
      <point x="152.44578313253012" y="155.26506024096386"/>
      <point x="123.03614457831324" y="52.0"/>
      <point x="46.69879518072289" y="-29.38554216867469" type="curve" smooth="yes"/>
      <point x="34.361445783132524" y="-29.373493975903614"/>
      <point x="56.144578313253014" y="-20.734939759036166"/>
    </contour>
  </outline>
</glyph>
<glyph name="asterisk" format="2">
  <advance width="449.144578313253"/>
  <unicode hex="002A"/>
  <outline>
    <contour>
      <point x="174.85542168674698" y="371.87951807228916" type="curve" smooth="yes"/>
      <point x="188.8313253012048" y="363.27710843373495"/>
      <point x="202.57831325301206" y="371.421686746988"/>
      <point x="211.95180722891564" y="389.3975903614458" type="curve" smooth="yes"/>
      <point x="275.144578313253" y="505.67469879518075" type="line"/>
      <point x="267.08433734939763" y="505.67469879518075" type="line"/>
      <point x="329.27710843373495" y="390.1686746987952" type="line" smooth="yes"/>
      <point x="338.421686746988" y="372.1927710843373"/>
      <point x="353.1686746987952" y="364.04819277108436"/>
      <point x="367.3734939759036" y="372.87951807228916" type="curve" smooth="yes"/>
      <point x="380.5783132530121" y="380.71084337349396"/>
      <point x="381.0361445783132" y="395.4578313253012"/>
      <point x="370.43373493975906" y="412.7469879518072" type="curve" smooth="yes"/>
      <point x="299.49397590361446" y="528.4819277108434" type="line"/>
      <point x="290.9759036144578" y="517.1325301204819" type="line"/>
      <point x="428.7951807228916" y="513.4457831325301" type="line" smooth="yes"/>
      <point x="449.0" y="512.9879518072289"/>
      <point x="462.06024096385545" y="521.0481927710844"/>
      <point x="462.06024096385545" y="537.4819277108434" type="curve" smooth="yes"/>
      <point x="462.06024096385545" y="552.9156626506024"/>
      <point x="449.0" y="560.9759036144578"/>
      <point x="428.7951807228916" y="560.5180722891566" type="curve" smooth="yes"/>
      <point x="290.9759036144578" y="556.6024096385543" type="line"/>
      <point x="299.49397590361446" y="546.2530120481928" type="line"/>
      <point x="370.43373493975906" y="661.7590361445783" type="line" smooth="yes"/>
      <point x="381.26506024096386" y="679.277108433735"/>
      <point x="380.5783132530121" y="694.0240963855422"/>
      <point x="367.3734939759036" y="702.855421686747" type="curve" smooth="yes"/>
      <point x="354.1686746987952" y="711.4578313253012"/>
      <point x="339.1927710843374" y="703.3132530120482"/>
      <point x="329.27710843373495" y="684.566265060241" type="curve" smooth="yes"/>
      <point x="267.08433734939763" y="568.5180722891566" type="line"/>
      <point x="275.144578313253" y="568.5180722891566" type="line"/>
      <point x="212.18072289156626" y="684.566265060241" type="line" smooth="yes"/>
      <point x="203.03614457831324" y="702.5421686746988"/>
      <point x="188.06024096385542" y="710.6867469879518"/>
      <point x="175.08433734939757" y="702.855421686747" type="curve" smooth="yes"/>
      <point x="161.87951807228913" y="695.0240963855422"/>
      <point x="160.19277108433735" y="679.5060240963855"/>
      <point x="171.02409638554215" y="661.9879518072289" type="curve" smooth="yes"/>
      <point x="242.73493975903614" y="546.0240963855422" type="line"/>
      <point x="250.48192771084337" y="556.6024096385543" type="line"/>
      <point x="113.43373493975903" y="560.5180722891566" type="line" smooth="yes"/>
      <point x="93.2289156626506" y="560.9759036144578"/>
      <point x="80.16867469879519" y="552.9156626506024"/>
      <point x="80.16867469879519" y="537.4819277108434" type="curve" smooth="yes"/>
      <point x="80.16867469879519" y="521.8192771084338"/>
      <point x="93.2289156626506" y="512.9879518072289"/>
      <point x="113.43373493975903" y="513.4457831325301" type="curve" smooth="yes"/>
      <point x="250.48192771084337" y="517.1325301204819" type="line"/>
      <point x="242.50602409638554" y="528.4819277108434" type="line"/>
      <point x="170.79518072289156" y="412.7469879518072" type="line" smooth="yes"/>
      <point x="160.19277108433735" y="395.4578313253012"/>
      <point x="160.87951807228913" y="380.71084337349396"/>
    </contour>
  </outline>
</glyph>
<glyph name="plus" format="2">
  <advance width="600.0"/>
  <unicode hex="002B"/>
  <outline>
    <contour>
      <point x="268.2289156626506" y="33.54216867469879" type="curve" smooth="yes"/>
      <point x="286.66265060240966" y="33.54216867469879"/>
      <point x="294.72289156626505" y="43.91566265060241"/>
      <point x="297.4096385542168" y="60.80722891566265" type="curve" smooth="yes"/>
      <point x="328.8072289156626" y="261.50602409638554" type="line"/>
      <point x="527.0481927710844" y="261.50602409638554" type="line" smooth="yes"/>
      <point x="546.1686746987951" y="261.50602409638554"/>
      <point x="557.4578313253012" y="272.2530120481928"/>
      <point x="557.4578313253012" y="291.144578313253" type="curve" smooth="yes"/>
      <point x="557.4578313253012" y="304.89156626506025"/>
      <point x="547.6265060240963" y="311.72289156626505"/>
      <point x="529.7349397590361" y="311.72289156626505" type="curve" smooth="yes"/>
      <point x="336.6385542168675" y="311.72289156626505" type="line"/>
      <point x="366.8072289156626" y="502.50602409638554" type="line" smooth="yes"/>
      <point x="370.2650602409638" y="522.3975903614457"/>
      <point x="362.43373493975906" y="534.4578313253012"/>
      <point x="344.5421686746988" y="534.4578313253012" type="curve" smooth="yes"/>
      <point x="326.33734939759034" y="534.4578313253012"/>
      <point x="318.04819277108436" y="524.0843373493975"/>
      <point x="315.3614457831325" y="507.421686746988" type="curve" smooth="yes"/>
      <point x="284.9638554216868" y="311.72289156626505" type="line"/>
      <point x="86.95180722891567" y="311.72289156626505" type="line" smooth="yes"/>
      <point x="67.83132530120481" y="311.72289156626505"/>
      <point x="56.54216867469879" y="300.9759036144578"/>
      <point x="56.54216867469879" y="282.0843373493976" type="curve" smooth="yes"/>
      <point x="56.54216867469879" y="268.33734939759034"/>
      <point x="66.3734939759036" y="261.50602409638554"/>
      <point x="84.03614457831326" y="261.50602409638554" type="curve" smooth="yes"/>
      <point x="277.13253012048193" y="261.50602409638554" type="line"/>
      <point x="245.96385542168676" y="65.72289156626506" type="line" smooth="yes"/>
      <point x="242.50602409638557" y="45.602409638554214"/>
      <point x="250.56626506024097" y="33.54216867469879"/>
    </contour>
  </outline>
</glyph>
<glyph name="hyphen" format="2">
  <advance width="420.12048192771084"/>
  <unicode hex="002D"/>
  <outline>
    <contour>
      <point x="97.40963855421687" y="239.59036144578315" type="curve" smooth="yes"/>
      <point x="326.3132530120482" y="239.59036144578315" type="line" smooth="yes"/>
      <point x="346.66265060240966" y="239.59036144578315"/>
      <point x="357.4096385542169" y="254.56626506024097"/>
      <point x="357.4096385542169" y="271.37349397590367" type="curve" smooth="yes"/>
      <point x="357.4096385542169" y="283.9518072289157"/>
      <point x="349.20481927710847" y="291.5542168674699"/>
      <point x="330.9397590361446" y="291.5542168674699" type="curve" smooth="yes"/>
      <point x="101.80722891566265" y="291.5542168674699" type="line" smooth="yes"/>
      <point x="81.4578313253012" y="291.5542168674699"/>
      <point x="70.93975903614458" y="276.5783132530121"/>
      <point x="70.93975903614458" y="259.5421686746988" type="curve" smooth="yes"/>
      <point x="70.93975903614458" y="247.42168674698794"/>
      <point x="79.144578313253" y="239.59036144578315"/>
    </contour>
  </outline>
</glyph>
<glyph name="period" format="2">
  <advance width="219.46987951807228"/>
  <unicode hex="002E"/>
  <outline>
    <contour>
      <point x="79.49397590361446" y="-3.4578313253012047" type="curve" smooth="yes"/>
      <point x="106.9879518072289" y="-3.4578313253012047"/>
      <point x="124.96385542168674" y="15.975903614457831"/>
      <point x="124.96385542168674" y="43.01204819277108" type="curve" smooth="yes"/>
      <point x="124.96385542168674" y="69.81927710843374"/>
      <point x="106.9879518072289" y="89.02409638554217"/>
      <point x="79.49397590361446" y="89.02409638554217" type="curve" smooth="yes"/>
      <point x="52.00000000000001" y="89.02409638554217"/>
      <point x="33.02409638554217" y="69.81927710843374"/>
      <point x="33.02409638554217" y="43.01204819277108" type="curve" smooth="yes"/>
      <point x="33.02409638554217" y="15.975903614457831"/>
      <point x="52.00000000000001" y="-3.4578313253012047"/>
    </contour>
  </outline>
</glyph>
<glyph name="slash" format="2">
  <advance width="269.04819277108436"/>
  <unicode hex="002F"/>
  <outline>
    <contour>
      <point x="-5.0361445783132535" y="-38.39759036144578" type="curve" smooth="yes"/>
      <point x="352.0722891566265" y="704.9036144578314" type="line" smooth="yes"/>
      <point x="368.73493975903614" y="738.9156626506024"/>
      <point x="320.28915662650604" y="761.4939759036145"/>
      <point x="304.6265060240964" y="728.1686746987951" type="curve" smooth="yes"/>
      <point x="-52.253012048192765" y="-16.67469879518072" type="line" smooth="yes"/>
      <point x="-67.37349397590361" y="-48.144578313253014"/>
      <point x="-22.46987951807229" y="-74.49397590361447"/>
    </contour>
  </outline>
</glyph>
<glyph name="zero" format="2">
  <advance width="600.0"/>
  <unicode hex="0030"/>
  <outline>
    <contour>
      <point x="288.7710843373494" y="-8.457831325301205" type="curve" smooth="yes"/>
      <point x="457.51807228915663" y="-8.457831325301205"/>
      <point x="563.5783132530121" y="167.5421686746988"/>
      <point x="563.5783132530121" y="457.93975903614455" type="curve" smooth="yes"/>
      <point x="563.5783132530121" y="623.3132530120482"/>
      <point x="489.51807228915663" y="713.4578313253012"/>
      <point x="347.0" y="713.4578313253012" type="curve" smooth="yes"/>
      <point x="178.25301204819277" y="713.4578313253012"/>
      <point x="71.42168674698794" y="537.4578313253012"/>
      <point x="71.42168674698794" y="247.5180722891566" type="curve" smooth="yes"/>
      <point x="71.42168674698794" y="81.6867469879518"/>
      <point x="146.25301204819277" y="-8.457831325301205"/>
    </contour>
    <contour>
      <point x="292.4578313253012" y="47.19277108433735" type="curve" smooth="yes"/>
      <point x="185.9277108433735" y="47.19277108433735"/>
      <point x="134.50602409638554" y="107.84337349397592"/>
      <point x="134.50602409638554" y="229.0602409638554" type="curve" smooth="yes"/>
      <point x="134.50602409638554" y="506.3614457831325"/>
      <point x="214.6144578313253" y="657.8072289156627"/>
      <point x="343.31325301204816" y="657.8072289156627" type="curve" smooth="yes"/>
      <point x="449.8433734939759" y="657.8072289156627"/>
      <point x="500.72289156626505" y="597.1566265060242"/>
      <point x="500.49397590361446" y="476.16867469879514" type="curve" smooth="yes"/>
      <point x="500.03614457831327" y="198.63855421686748"/>
      <point x="421.1566265060241" y="47.19277108433735"/>
    </contour>
  </outline>
</glyph>
<glyph name="one" format="2">
  <advance width="600.0"/>
  <unicode hex="0031"/>
  <outline>
    <contour>
      <point x="120.83132530120483" y="0.0" type="curve" smooth="yes"/>
      <point x="445.12048192771084" y="0.0" type="line" smooth="yes"/>
      <point x="465.8433734939759" y="0.0"/>
      <point x="478.2771084337349" y="11.891566265060241"/>
      <point x="478.2771084337349" y="31.46987951807229" type="curve" smooth="yes"/>
      <point x="478.2771084337349" y="47.277108433734945"/>
      <point x="467.30120481927713" y="54.33734939759036"/>
      <point x="448.26506024096386" y="54.33734939759036" type="curve" smooth="yes"/>
      <point x="324.65060240963857" y="54.33734939759036" type="line"/>
      <point x="423.7590361445783" y="679.3012048192771" type="line" smooth="yes"/>
      <point x="427.4457831325301" y="700.3373493975904"/>
      <point x="416.8433734939759" y="711.4578313253012"/>
      <point x="400.89156626506025" y="711.4578313253012" type="curve" smooth="yes"/>
      <point x="388.9156626506024" y="711.4578313253012"/>
      <point x="380.0240963855422" y="708.3132530120482"/>
      <point x="366.6746987951807" y="700.0240963855422" type="curve" smooth="yes"/>
      <point x="213.5301204819277" y="603.6265060240964" type="line" smooth="yes"/>
      <point x="177.14457831325302" y="581.5903614457832"/>
      <point x="204.0120481927711" y="534.3132530120482"/>
      <point x="239.85542168674698" y="556.3493975903615" type="curve" smooth="yes"/>
      <point x="394.7951807228916" y="652.9156626506025" type="line"/>
      <point x="358.6987951807229" y="656.3734939759037" type="line"/>
      <point x="262.9638554216868" y="54.33734939759036" type="line"/>
      <point x="123.97590361445783" y="54.33734939759036" type="line" smooth="yes"/>
      <point x="104.25301204819279" y="54.33734939759036"/>
      <point x="90.81927710843374" y="42.674698795180724"/>
      <point x="90.81927710843374" y="23.867469879518072" type="curve" smooth="yes"/>
      <point x="90.81927710843374" y="8.060240963855422"/>
      <point x="101.79518072289157" y="0.0"/>
    </contour>
  </outline>
</glyph>
<glyph name="two" format="2">
  <advance width="600.0"/>
  <unicode hex="0032"/>
  <outline>
    <contour>
      <point x="94.34939759036143" y="0.0" type="curve" smooth="yes"/>
      <point x="474.3373493975904" y="0.0" type="line" smooth="yes"/>
      <point x="496.06024096385545" y="0.0"/>
      <point x="507.4939759036145" y="11.66265060240964"/>
      <point x="507.4939759036145" y="31.927710843373497" type="curve" smooth="yes"/>
      <point x="507.4939759036145" y="47.04819277108434"/>
      <point x="496.7469879518073" y="54.33734939759036"/>
      <point x="477.4819277108434" y="54.33734939759036" type="curve" smooth="yes"/>
      <point x="129.48192771084337" y="54.33734939759036" type="line"/>
      <point x="131.25301204819277" y="34.21686746987952" type="line"/>
      <point x="385.8915662650602" y="268.3975903614458" type="line" smooth="yes"/>
      <point x="479.12048192771084" y="353.93975903614455"/>
      <point x="552.9759036144578" y="439.65060240963857"/>
      <point x="552.9759036144578" y="551.7951807228916" type="curve" smooth="yes"/>
      <point x="552.9759036144578" y="647.3975903614459"/>
      <point x="478.6867469879518" y="713.4578313253012"/>
      <point x="361.9397590361446" y="713.4578313253012" type="curve" smooth="yes"/>
      <point x="283.93975903614455" y="713.4578313253012"/>
      <point x="205.1686746987952" y="684.8313253012047"/>
      <point x="146.48192771084337" y="635.8072289156627" type="curve" smooth="yes"/>
      <point x="114.92771084337349" y="611.144578313253"/>
      <point x="141.10843373493975" y="564.3253012048193"/>
      <point x="176.89156626506025" y="589.9879518072289" type="curve" smooth="yes"/>
      <point x="238.6867469879518" y="636.4096385542169"/>
      <point x="296.48192771084337" y="657.1204819277109"/>
      <point x="355.4457831325301" y="657.1204819277109" type="curve" smooth="yes"/>
      <point x="441.49397590361446" y="657.1204819277109"/>
      <point x="489.9759036144578" y="615.3253012048193"/>
      <point x="489.9759036144578" y="545.6746987951807" type="curve" smooth="yes"/>
      <point x="489.9759036144578" y="459.855421686747"/>
      <point x="430.3253012048193" y="384.8072289156626"/>
      <point x="350.84337349397595" y="310.5542168674699" type="curve" smooth="yes"/>
      <point x="83.83132530120481" y="61.31325301204819" type="line" smooth="yes"/>
      <point x="69.25301204819277" y="47.19277108433735"/>
      <point x="62.650602409638545" y="37.13253012048193"/>
      <point x="62.650602409638545" y="25.55421686746988" type="curve" smooth="yes"/>
      <point x="62.650602409638545" y="7.7469879518072275"/>
      <point x="74.5421686746988" y="0.0"/>
    </contour>
  </outline>
</glyph>
<glyph name="three" format="2">
  <advance width="600.0"/>
  <unicode hex="0033"/>
  <outline>
    <contour>
      <point x="278.31325301204816" y="-8.457831325301205" type="curve" smooth="yes"/>
      <point x="408.3253012048193" y="-8.457831325301205"/>
      <point x="511.1807228915663" y="77.51807228915662"/>
      <point x="511.1807228915663" y="204.22891566265062" type="curve" smooth="yes"/>
      <point x="511.1807228915663" y="282.144578313253"/>
      <point x="465.72289156626505" y="344.3734939759036"/>
      <point x="380.49397590361446" y="363.9156626506024" type="curve"/>
      <point x="379.72289156626505" y="353.4578313253012" type="line"/>
      <point x="476.72289156626505" y="371.45783132530124"/>
      <point x="546.722891566265" y="447.6265060240964"/>
      <point x="546.4939759036145" y="545.1686746987951" type="curve" smooth="yes"/>
      <point x="546.2650602409639" y="640.710843373494"/>
      <point x="473.72289156626505" y="713.4578313253012"/>
      <point x="355.6265060240964" y="713.4578313253012" type="curve" smooth="yes"/>
      <point x="280.45783132530124" y="713.4578313253012"/>
      <point x="199.4578313253012" y="686.9759036144578"/>
      <point x="139.855421686747" y="636.4939759036145" type="curve" smooth="yes"/>
      <point x="107.24096385542168" y="610.6867469879518"/>
      <point x="137.19277108433735" y="567.867469879518"/>
      <point x="169.34939759036143" y="591.9879518072289" type="curve" smooth="yes"/>
      <point x="223.2048192771084" y="635.8674698795181"/>
      <point x="290.0843373493976" y="657.1204819277109"/>
      <point x="350.96385542168673" y="657.1204819277109" type="curve" smooth="yes"/>
      <point x="431.1566265060241" y="657.1204819277109"/>
      <point x="484.1807228915663" y="610.2409638554217"/>
      <point x="484.1807228915663" y="540.0481927710844" type="curve" smooth="yes"/>
      <point x="484.1807228915663" y="444.3734939759036"/>
      <point x="404.90361445783134" y="385.09638554216866"/>
      <point x="306.855421686747" y="385.09638554216866" type="curve" smooth="yes"/>
      <point x="235.89156626506025" y="385.09638554216866" type="line" smooth="yes"/>
      <point x="216.16867469879517" y="385.09638554216866"/>
      <point x="202.73493975903614" y="373.66265060240966"/>
      <point x="202.73493975903614" y="354.62650602409633" type="curve" smooth="yes"/>
      <point x="202.73493975903614" y="339.27710843373495"/>
      <point x="213.71084337349396" y="330.7590361445783"/>
      <point x="232.74698795180723" y="330.7590361445783" type="curve" smooth="yes"/>
      <point x="301.9397590361446" y="330.7590361445783" type="line" smooth="yes"/>
      <point x="395.98795180722897" y="330.7590361445783"/>
      <point x="448.86746987951807" y="280.56626506024094"/>
      <point x="448.86746987951807" y="206.06024096385542" type="curve" smooth="yes"/>
      <point x="448.86746987951807" y="107.61445783132531"/>
      <point x="374.13253012048193" y="47.87951807228916"/>
      <point x="278.31325301204816" y="47.87951807228916" type="curve" smooth="yes"/>
      <point x="209.43373493975903" y="47.87951807228916"/>
      <point x="148.80722891566265" y="60.50602409638554"/>
      <point x="87.86746987951808" y="109.1566265060241" type="curve" smooth="yes"/>
      <point x="54.5421686746988" y="134.36144578313252"/>
      <point x="24.67469879518072" y="87.39759036144578"/>
      <point x="56.60240963855422" y="62.506024096385545" type="curve" smooth="yes"/>
      <point x="120.28915662650601" y="9.168674698795181"/>
      <point x="203.3734939759036" y="-8.457831325301205"/>
    </contour>
  </outline>
</glyph>
<glyph name="four" format="2">
  <advance width="600.0"/>
  <unicode hex="0034"/>
  <outline>
    <contour>
      <point x="381.93975903614455" y="-6.457831325301205" type="curve" smooth="yes"/>
      <point x="402.3493975903615" y="-6.457831325301205"/>
      <point x="414.0120481927711" y="3.7469879518072284"/>
      <point x="416.9277108433735" y="23.698795180722893" type="curve" smooth="yes"/>
      <point x="438.4096385542169" y="158.67469879518072" type="line"/>
      <point x="524.566265060241" y="158.67469879518072" type="line" smooth="yes"/>
      <point x="546.6626506024096" y="158.67469879518072"/>
      <point x="557.4939759036145" y="170.79518072289156"/>
      <point x="557.4939759036145" y="190.8313253012048" type="curve" smooth="yes"/>
      <point x="557.4939759036145" y="205.26506024096386"/>
      <point x="547.433734939759" y="213.0120481927711"/>
      <point x="529.0843373493976" y="213.0120481927711" type="curve" smooth="yes"/>
      <point x="446.46987951807233" y="213.0120481927711" type="line"/>
      <point x="519.4939759036145" y="674.7831325301205" type="line" smooth="yes"/>
      <point x="523.4096385542169" y="697.4216867469879"/>
      <point x="512.433734939759" y="710.3132530120482"/>
      <point x="494.1686746987952" y="710.3132530120482" type="curve" smooth="yes"/>
      <point x="478.90361445783134" y="710.3132530120482"/>
      <point x="470.15662650602405" y="705.710843373494"/>
      <point x="458.72289156626505" y="691.8192771084338" type="curve" smooth="yes"/>
      <point x="61.602409638554214" y="222.67469879518072" type="line" smooth="yes"/>
      <point x="47.084337349397586" y="205.6987951807229"/>
      <point x="42.10843373493976" y="194.95180722891564"/>
      <point x="42.10843373493976" y="183.14457831325302" type="curve" smooth="yes"/>
      <point x="42.10843373493976" y="169.10843373493975"/>
      <point x="54.08433734939759" y="158.67469879518072"/>
      <point x="75.95180722891567" y="158.67469879518072" type="curve" smooth="yes"/>
      <point x="376.72289156626505" y="158.67469879518072" type="line"/>
      <point x="356.2409638554217" y="27.927710843373493" type="line" smooth="yes"/>
      <point x="353.09638554216866" y="6.746987951807228"/>
      <point x="362.5301204819277" y="-6.457831325301205"/>
    </contour>
    <contour>
      <point x="385.0120481927711" y="213.0120481927711" type="line"/>
      <point x="105.3855421686747" y="213.0120481927711" type="line"/>
      <point x="103.6987951807229" y="196.74698795180723" type="line"/>
      <point x="475.66265060240966" y="635.277108433735" type="line"/>
      <point x="451.9759036144578" y="635.277108433735" type="line"/>
    </contour>
  </outline>
</glyph>
<glyph name="five" format="2">
  <advance width="600.0"/>
  <unicode hex="0035"/>
  <outline>
    <contour>
      <point x="289.71084337349396" y="-8.457831325301205" type="curve" smooth="yes"/>
      <point x="425.3734939759036" y="-8.457831325301205"/>
      <point x="539.8072289156626" y="91.3132530120482"/>
      <point x="539.8072289156626" y="238.51807228915663" type="curve" smooth="yes"/>
      <point x="539.8072289156626" y="373.855421686747"/>
      <point x="450.7831325301205" y="437.9759036144578"/>
      <point x="349.89156626506025" y="437.9759036144578" type="curve" smooth="yes"/>
      <point x="277.86746987951807" y="437.9759036144578"/>
      <point x="203.8433734939759" y="404.26506024096386"/>
      <point x="161.8433734939759" y="344.9277108433735" type="curve"/>
      <point x="181.73493975903617" y="344.9277108433735" type="line"/>
      <point x="230.0722891566265" y="650.6626506024096" type="line"/>
      <point x="544.277108433735" y="650.6626506024096" type="line" smooth="yes"/>
      <point x="565.0000000000001" y="650.6626506024096"/>
      <point x="577.433734939759" y="662.0963855421686"/>
      <point x="577.433734939759" y="682.3614457831325" type="curve" smooth="yes"/>
      <point x="577.433734939759" y="697.710843373494"/>
      <point x="566.4578313253013" y="705.0"/>
      <point x="547.421686746988" y="705.0" type="curve" smooth="yes"/>
      <point x="206.6024096385542" y="705.0" type="line" smooth="yes"/>
      <point x="187.56626506024097" y="705.0"/>
      <point x="176.13253012048193" y="695.4819277108434"/>
      <point x="173.21686746987953" y="676.4457831325301" type="curve" smooth="yes"/>
      <point x="115.81927710843374" y="317.9759036144578" type="line" smooth="yes"/>
      <point x="112.90361445783132" y="298.2530120481928"/>
      <point x="124.42168674698794" y="287.421686746988"/>
      <point x="140.77108433734938" y="287.421686746988" type="curve" smooth="yes"/>
      <point x="155.06024096385542" y="287.421686746988"/>
      <point x="164.03614457831324" y="294.10843373493975"/>
      <point x="174.09638554216866" y="304.48192771084337" type="curve" smooth="yes"/>
      <point x="220.03614457831324" y="353.90361445783134"/>
      <point x="271.144578313253" y="382.32530120481925"/>
      <point x="336.73493975903614" y="382.32530120481925" type="curve" smooth="yes"/>
      <point x="424.0120481927711" y="382.32530120481925"/>
      <point x="477.49397590361446" y="321.04819277108436"/>
      <point x="477.49397590361446" y="234.2289156626506" type="curve" smooth="yes"/>
      <point x="477.49397590361446" y="127.01204819277109"/>
      <point x="394.9879518072289" y="47.87951807228916"/>
      <point x="289.710843373494" y="47.87951807228916" type="curve" smooth="yes"/>
      <point x="224.4578313253012" y="47.87951807228916"/>
      <point x="171.97590361445782" y="60.192771084337345"/>
      <point x="113.03614457831326" y="109.3855421686747" type="curve" smooth="yes"/>
      <point x="79.93975903614457" y="135.36144578313252"/>
      <point x="50.6144578313253" y="88.0"/>
      <point x="81.0" y="63.73493975903614" type="curve" smooth="yes"/>
      <point x="143.0" y="9.397590361445783"/>
      <point x="219.7710843373494" y="-8.457831325301205"/>
    </contour>
  </outline>
</glyph>
<glyph name="seven" format="2">
  <advance width="600.0"/>
  <unicode hex="0037"/>
  <outline>
    <contour>
      <point x="132.20481927710844" y="-6.457831325301205" type="curve" smooth="yes"/>
      <point x="145.4698795180723" y="-6.457831325301205"/>
      <point x="156.67469879518072" y="-0.3975903614457832"/>
      <point x="167.42168674698797" y="15.72289156626506" type="curve" smooth="yes"/>
      <point x="580.7710843373494" y="642.0843373493976" type="line" smooth="yes"/>
      <point x="591.2048192771084" y="657.1204819277108"/>
      <point x="597.2650602409639" y="666.7831325301205"/>
      <point x="597.2650602409639" y="680.9036144578313" type="curve" smooth="yes"/>
      <point x="597.2650602409639" y="696.0240963855422"/>
      <point x="587.2048192771084" y="705.0"/>
      <point x="564.6506024096385" y="705.0" type="curve" smooth="yes"/>
      <point x="167.6024096385542" y="705.0" type="line" smooth="yes"/>
      <point x="147.65060240963857" y="705.0"/>
      <point x="134.67469879518075" y="693.7951807228916"/>
      <point x="134.67469879518075" y="674.3012048192771" type="curve" smooth="yes"/>
      <point x="134.67469879518075" y="658.722891566265"/>
      <point x="145.87951807228916" y="650.433734939759"/>
      <point x="165.3734939759036" y="650.433734939759" type="curve" smooth="yes"/>
      <point x="537.9759036144578" y="650.433734939759" type="line"/>
      <point x="538.9759036144578" y="682.8674698795181" type="line"/>
      <point x="113.79518072289157" y="42.445783132530124" type="line" smooth="yes"/>
      <point x="96.21686746987953" y="16.03614457831325"/>
      <point x="106.33734939759036" y="-6.457831325301205"/>
    </contour>
  </outline>
</glyph>
<glyph name="nine" format="2">
  <advance width="600.0"/>
  <unicode hex="0039"/>
  <outline>
    <contour>
      <point x="238.2289156626506" y="-8.457831325301205" type="curve" smooth="yes"/>
      <point x="448.9156626506024" y="-8.457831325301205"/>
      <point x="554.5783132530121" y="205.67469879518075"/>
      <point x="554.5783132530121" y="455.71084337349396" type="curve" smooth="yes"/>
      <point x="554.5783132530121" y="614.7710843373494"/>
      <point x="467.2048192771084" y="713.4578313253012"/>
      <point x="330.16867469879514" y="713.4578313253012" type="curve" smooth="yes"/>
      <point x="195.42168674698794" y="713.4578313253012"/>
      <point x="94.19277108433734" y="606.0843373493976"/>
      <point x="94.19277108433734" y="464.7951807228916" type="curve" smooth="yes"/>
      <point x="94.19277108433734" y="353.0240963855422"/>
      <point x="175.81927710843374" y="267.65060240963857"/>
      <point x="290.1325301204819" y="267.65060240963857" type="curve" smooth="yes"/>
      <point x="390.6987951807229" y="267.65060240963857"/>
      <point x="487.5542168674699" y="337.2168674698795"/>
      <point x="506.18072289156623" y="450.95180722891564" type="curve"/>
      <point x="497.2650602409638" y="450.95180722891564" type="line"/>
      <point x="495.8072289156626" y="422.89156626506025" type="line" smooth="yes"/>
      <point x="485.433734939759" y="193.3734939759036"/>
      <point x="388.3855421686747" y="47.87951807228916"/>
      <point x="243.45783132530119" y="47.87951807228916" type="curve" smooth="yes"/>
      <point x="183.12048192771084" y="47.87951807228916"/>
      <point x="128.18072289156626" y="71.13253012048192"/>
      <point x="88.95180722891565" y="113.01204819277109" type="curve" smooth="yes"/>
      <point x="57.168674698795186" y="143.9879518072289"/>
      <point x="25.614457831325304" y="98.62650602409639"/>
      <point x="52.313253012048186" y="72.04819277108433" type="curve" smooth="yes"/>
      <point x="97.97590361445782" y="22.108433734939762"/>
      <point x="169.51807228915663" y="-8.457831325301205"/>
    </contour>
    <contour>
      <point x="302.6024096385542" y="322.6144578313253" type="curve" smooth="yes"/>
      <point x="218.32530120481928" y="322.6144578313253"/>
      <point x="155.59036144578315" y="382.26506024096386"/>
      <point x="155.59036144578315" y="468.08433734939763" type="curve" smooth="yes"/>
      <point x="155.59036144578315" y="573.132530120482"/>
      <point x="226.86746987951807" y="658.722891566265"/>
      <point x="333.6265060240964" y="658.722891566265" type="curve" smooth="yes"/>
      <point x="417.90361445783134" y="658.722891566265"/>
      <point x="480.86746987951807" y="598.843373493976"/>
      <point x="480.86746987951807" y="513.0240963855421" type="curve" smooth="yes"/>
      <point x="480.86746987951807" y="407.9759036144578"/>
      <point x="409.3614457831325" y="322.6144578313253"/>
    </contour>
  </outline>
</glyph>
<glyph name="colon" format="2">
  <advance width="219.46987951807228"/>
  <unicode hex="003A"/>
  <outline>
    <contour>
      <point x="79.49397590361446" y="-3.4578313253012047" type="curve" smooth="yes"/>
      <point x="106.9879518072289" y="-3.4578313253012047"/>
      <point x="124.96385542168674" y="15.975903614457831"/>
      <point x="124.96385542168674" y="43.01204819277108" type="curve" smooth="yes"/>
      <point x="124.96385542168674" y="69.81927710843374"/>
      <point x="106.9879518072289" y="89.02409638554217"/>
      <point x="79.49397590361446" y="89.02409638554217" type="curve" smooth="yes"/>
      <point x="52.00000000000001" y="89.02409638554217"/>
      <point x="33.02409638554217" y="69.81927710843374"/>
      <point x="33.02409638554217" y="43.01204819277108" type="curve" smooth="yes"/>
      <point x="33.02409638554217" y="15.975903614457831"/>
      <point x="52.00000000000001" y="-3.4578313253012047"/>
    </contour>
    <contour>
      <point x="142.43373493975903" y="396.12048192771084" type="curve" smooth="yes"/>
      <point x="169.9277108433735" y="396.12048192771084"/>
      <point x="187.90361445783134" y="415.5542168674699"/>
      <point x="187.90361445783134" y="442.3614457831325" type="curve" smooth="yes"/>
      <point x="187.90361445783134" y="469.3975903614458"/>
      <point x="169.9277108433735" y="488.6024096385542"/>
      <point x="142.43373493975903" y="488.6024096385542" type="curve" smooth="yes"/>
      <point x="114.93975903614458" y="488.6024096385542"/>
      <point x="95.96385542168674" y="469.3975903614458"/>
      <point x="95.96385542168674" y="442.3614457831325" type="curve" smooth="yes"/>
      <point x="95.96385542168674" y="415.5542168674699"/>
      <point x="114.93975903614458" y="396.12048192771084"/>
    </contour>
  </outline>
</glyph>
<glyph name="semicolon" format="2">
  <advance width="219.46987951807228"/>
  <unicode hex="003B"/>
  <outline>
    <contour>
      <point x="66.63855421686746" y="-91.26506024096386" type="curve" smooth="yes"/>
      <point x="100.59036144578313" y="-57.7710843373494"/>
      <point x="121.73493975903614" y="-11.710843373493976"/>
      <point x="121.73493975903614" y="36.01204819277108" type="curve" smooth="yes"/>
      <point x="121.73493975903614" y="69.13253012048193"/>
      <point x="105.9879518072289" y="89.02409638554217"/>
      <point x="77.72289156626506" y="89.02409638554217" type="curve" smooth="yes"/>
      <point x="51.00000000000001" y="89.02409638554217"/>
      <point x="33.02409638554217" y="69.81927710843374"/>
      <point x="33.02409638554217" y="43.01204819277108" type="curve" smooth="yes"/>
      <point x="33.02409638554217" y="15.74698795180723"/>
      <point x="52.45783132530121" y="-3.4578313253012047"/>
      <point x="81.72289156626506" y="-3.4578313253012047" type="curve"/>
      <point x="76.03614457831326" y="11.265060240963855" type="line"/>
      <point x="71.57831325301204" y="-16.795180722891565"/>
      <point x="60.891566265060234" y="-36.39759036144578"/>
      <point x="36.915662650602414" y="-61.6867469879518" type="curve" smooth="yes"/>
      <point x="12.566265060240962" y="-87.34939759036145"/>
      <point x="41.28915662650602" y="-116.1566265060241"/>
    </contour>
    <contour>
      <point x="142.43373493975903" y="396.12048192771084" type="curve" smooth="yes"/>
      <point x="169.9277108433735" y="396.12048192771084"/>
      <point x="187.90361445783134" y="415.5542168674699"/>
      <point x="187.90361445783134" y="442.3614457831325" type="curve" smooth="yes"/>
      <point x="187.90361445783134" y="469.3975903614458"/>
      <point x="169.9277108433735" y="488.6024096385542"/>
      <point x="142.43373493975903" y="488.6024096385542" type="curve" smooth="yes"/>
      <point x="114.93975903614458" y="488.6024096385542"/>
      <point x="95.96385542168674" y="469.3975903614458"/>
      <point x="95.96385542168674" y="442.3614457831325" type="curve" smooth="yes"/>
      <point x="95.96385542168674" y="415.5542168674699"/>
      <point x="114.93975903614458" y="396.12048192771084"/>
    </contour>
  </outline>
</glyph>
<glyph name="less" format="2">
  <advance width="600.0"/>
  <unicode hex="003C"/>
  <outline>
    <contour>
      <point x="487.90361445783134" y="47.831325301204814" type="line" smooth="yes"/>
      <point x="520.4578313253012" y="31.85542168674699"/>
      <point x="542.1204819277109" y="77.6144578313253"/>
      <point x="510.0240963855422" y="93.36144578313254" type="curve" smooth="yes"/>
      <point x="95.74698795180723" y="298.8915662650602" type="line"/>
      <point x="90.37349397590361" y="267.9638554216868" type="line"/>
      <point x="576.5060240963855" y="476.95180722891564" type="line" smooth="yes"/>
      <point x="609.6024096385543" y="490.4698795180723"/>
      <point x="591.6265060240963" y="538.6867469879518"/>
      <point x="557.0722891566265" y="523.9397590361446" type="curve" smooth="yes"/>
      <point x="83.69879518072288" y="318.8433734939759" type="line" smooth="yes"/>
      <point x="66.43373493975903" y="311.7831325301205"/>
      <point x="56.31325301204819" y="299.34939759036143"/>
      <point x="56.31325301204819" y="283.3975903614458" type="curve" smooth="yes"/>
      <point x="56.31325301204819" y="268.73493975903614"/>
      <point x="65.28915662650603" y="258.7590361445783"/>
      <point x="84.32530120481927" y="249.6987951807229" type="curve" smooth="yes"/>
    </contour>
  </outline>
</glyph>
<glyph name="equal" format="2">
  <advance width="600.0"/>
  <unicode hex="003D"/>
  <outline>
    <contour>
      <point x="99.26506024096386" y="361.50602409638554" type="curve" smooth="yes"/>
      <point x="542.277108433735" y="361.50602409638554" type="line" smooth="yes"/>
      <point x="561.3975903614457" y="361.50602409638554"/>
      <point x="572.6867469879518" y="372.2530120481928"/>
      <point x="572.6867469879518" y="391.144578313253" type="curve" smooth="yes"/>
      <point x="572.6867469879518" y="404.89156626506025"/>
      <point x="562.8554216867469" y="411.72289156626505"/>
      <point x="544.9638554216867" y="411.72289156626505" type="curve" smooth="yes"/>
      <point x="101.95180722891567" y="411.72289156626505" type="line" smooth="yes"/>
      <point x="82.83132530120481" y="411.72289156626505"/>
      <point x="71.54216867469879" y="400.9759036144578"/>
      <point x="71.54216867469879" y="382.0843373493976" type="curve" smooth="yes"/>
      <point x="71.54216867469879" y="368.33734939759034"/>
      <point x="81.3734939759036" y="361.50602409638554"/>
    </contour>
    <contour>
      <point x="68.03614457831326" y="162.50602409638554" type="curve" smooth="yes"/>
      <point x="511.0481927710843" y="162.50602409638554" type="line" smooth="yes"/>
      <point x="530.1686746987951" y="162.50602409638554"/>
      <point x="541.4578313253012" y="173.25301204819277"/>
      <point x="541.4578313253012" y="191.9156626506024" type="curve" smooth="yes"/>
      <point x="541.4578313253012" y="205.66265060240963"/>
      <point x="531.6265060240963" y="212.49397590361446"/>
      <point x="513.9638554216867" y="212.49397590361446" type="curve" smooth="yes"/>
      <point x="70.95180722891567" y="212.49397590361446" type="line" smooth="yes"/>
      <point x="51.831325301204814" y="212.49397590361446"/>
      <point x="40.54216867469879" y="201.74698795180723"/>
      <point x="40.54216867469879" y="183.0843373493976" type="curve" smooth="yes"/>
      <point x="40.54216867469879" y="169.33734939759037"/>
      <point x="50.373493975903614" y="162.50602409638554"/>
    </contour>
  </outline>
</glyph>
<glyph name="greater" format="2">
  <advance width="600.0"/>
  <unicode hex="003E"/>
  <outline>
    <contour>
      <point x="56.9277108433735" y="50.51807228915662" type="curve" smooth="yes"/>
      <point x="530.301204819277" y="255.3855421686747" type="line" smooth="yes"/>
      <point x="547.566265060241" y="262.44578313253015"/>
      <point x="557.4578313253012" y="274.65060240963857"/>
      <point x="557.4578313253012" y="290.6024096385542" type="curve" smooth="yes"/>
      <point x="557.4578313253012" y="305.26506024096386"/>
      <point x="548.9397590361446" y="315.0120481927711"/>
      <point x="529.6746987951807" y="324.3012048192771" type="curve" smooth="yes"/>
      <point x="125.40963855421687" y="526.6265060240963" type="line" smooth="yes"/>
      <point x="92.85542168674698" y="542.8313253012047"/>
      <point x="71.65060240963855" y="496.3855421686747"/>
      <point x="103.74698795180723" y="480.6385542168675" type="curve" smooth="yes"/>
      <point x="518.0240963855422" y="274.1084337349398" type="line"/>
      <point x="523.3975903614457" y="305.26506024096386" type="line"/>
      <point x="37.49397590361446" y="97.04819277108435" type="line" smooth="yes"/>
      <point x="4.397590361445783" y="83.3012048192771"/>
      <point x="22.373493975903614" y="35.7710843373494"/>
    </contour>
  </outline>
</glyph>
<glyph name="question" format="2">
  <advance width="435.86746987951807"/>
  <unicode hex="003F"/>
  <outline>
    <contour>
      <point x="191.9277108433735" y="169.3012048192771" type="curve" smooth="yes"/>
      <point x="205.90361445783134" y="169.3012048192771"/>
      <point x="211.27710843373492" y="178.21686746987953"/>
      <point x="214.96385542168676" y="195.1325301204819" type="curve" smooth="yes"/>
      <point x="227.19277108433735" y="247.0722891566265"/>
      <point x="248.87951807228916" y="298.3253012048193"/>
      <point x="327.3614457831326" y="363.28915662650604" type="curve" smooth="yes"/>
      <point x="406.4698795180723" y="428.33734939759034"/>
      <point x="457.0722891566265" y="491.96385542168673"/>
      <point x="457.0722891566265" y="567.710843373494" type="curve" smooth="yes"/>
      <point x="457.0722891566265" y="646.5421686746988"/>
      <point x="398.86746987951807" y="713.4578313253012"/>
      <point x="289.26506024096386" y="713.4578313253012" type="curve" smooth="yes"/>
      <point x="218.72289156626505" y="713.4578313253012"/>
      <point x="140.03614457831324" y="688.0602409638554"/>
      <point x="84.34939759036145" y="639.8072289156627" type="curve" smooth="yes"/>
      <point x="50.10843373493976" y="611.6867469879518"/>
      <point x="77.5421686746988" y="567.8674698795181"/>
      <point x="114.6144578313253" y="594.7590361445783" type="curve" smooth="yes"/>
      <point x="164.0120481927711" y="634.4096385542168"/>
      <point x="220.66265060240966" y="657.1204819277109"/>
      <point x="283.54216867469876" y="657.1204819277109" type="curve" smooth="yes"/>
      <point x="360.5903614457832" y="657.1204819277109"/>
      <point x="394.0722891566265" y="616.0120481927711"/>
      <point x="394.0722891566265" y="561.5903614457832" type="curve" smooth="yes"/>
      <point x="394.0722891566265" y="503.79518072289153"/>
      <point x="365.5301204819277" y="465.2289156626506"/>
      <point x="289.6265060240964" y="398.6385542168675" type="curve" smooth="yes"/>
      <point x="202.51807228915663" y="322.3012048192771"/>
      <point x="182.43373493975903" y="270.50602409638554"/>
      <point x="172.43373493975903" y="198.48192771084337" type="curve" smooth="yes"/>
      <point x="169.74698795180723" y="181.36144578313252"/>
      <point x="176.03614457831327" y="169.3012048192771"/>
    </contour>
    <contour>
      <point x="168.55421686746988" y="-3.4578313253012047" type="curve" smooth="yes"/>
      <point x="196.04819277108433" y="-3.4578313253012047"/>
      <point x="214.02409638554218" y="15.975903614457831"/>
      <point x="214.02409638554218" y="43.01204819277108" type="curve" smooth="yes"/>
      <point x="214.02409638554218" y="69.81927710843374"/>
      <point x="196.04819277108433" y="89.02409638554217"/>
      <point x="168.55421686746988" y="89.02409638554217" type="curve" smooth="yes"/>
      <point x="141.06024096385542" y="89.02409638554217"/>
      <point x="122.08433734939759" y="69.81927710843374"/>
      <point x="122.08433734939759" y="43.01204819277108" type="curve" smooth="yes"/>
      <point x="122.08433734939759" y="15.975903614457831"/>
      <point x="141.06024096385542" y="-3.4578313253012047"/>
    </contour>
  </outline>
</glyph>
<glyph name="at" format="2">
  <advance width="944.6024096385543"/>
  <unicode hex="0040"/>
  <outline>
    <contour>
      <point x="495.2289156626506" y="-162.6867469879518" type="curve" smooth="yes"/>
      <point x="610.3373493975903" y="-162.6867469879518"/>
      <point x="707.8192771084337" y="-127.66265060240964"/>
      <point x="770.5060240963855" y="-66.78313253012048" type="curve" smooth="yes"/>
      <point x="800.5421686746988" y="-38.95180722891566"/>
      <point x="768.8554216867469" y="-4.253012048192772"/>
      <point x="738.4457831325301" y="-29.855421686746986" type="curve" smooth="yes"/>
      <point x="682.4457831325301" y="-82.19277108433734"/>
      <point x="597.8795180722892" y="-114.98795180722891"/>
      <point x="495.2289156626506" y="-114.98795180722891" type="curve" smooth="yes"/>
      <point x="269.5783132530121" y="-114.98795180722891"/>
      <point x="127.09638554216868" y="31.349397590361445"/>
      <point x="127.09638554216868" y="274.93975903614455" type="curve" smooth="yes"/>
      <point x="127.09638554216868" y="508.421686746988"/>
      <point x="280.12048192771084" y="665.7590361445783"/>
      <point x="505.83132530120486" y="665.7590361445783" type="curve" smooth="yes"/>
      <point x="706.2289156626506" y="665.7590361445783"/>
      <point x="843.4216867469879" y="536.2530120481928"/>
      <point x="843.4216867469879" y="345.0843373493976" type="curve" smooth="yes"/>
      <point x="843.4216867469879" y="200.03614457831324"/>
      <point x="787.3975903614459" y="104.46987951807229"/>
      <point x="705.6626506024096" y="104.46987951807229" type="curve" smooth="yes"/>
      <point x="662.1807228915662" y="104.46987951807229"/>
      <point x="641.3253012048193" y="127.32530120481928"/>
      <point x="641.3253012048193" y="173.95180722891567" type="curve" smooth="yes"/>
      <point x="641.3253012048193" y="186.40963855421685"/>
      <point x="642.5542168674699" y="201.32530120481928"/>
      <point x="645.7831325301205" y="217.9277108433735" type="curve" smooth="yes"/>
      <point x="687.2650602409639" y="460.27710843373495" type="line" smooth="yes"/>
      <point x="690.9518072289156" y="480.1686746987952"/>
      <point x="682.1204819277109" y="490.4578313253012"/>
      <point x="665.0" y="490.4578313253012" type="curve" smooth="yes"/>
      <point x="648.3373493975904" y="490.4578313253012"/>
      <point x="637.5060240963855" y="482.855421686747"/>
      <point x="633.8192771084338" y="462.87951807228916" type="curve" smooth="yes"/>
      <point x="621.5060240963855" y="390.3734939759036" type="line"/>
      <point x="631.0240963855422" y="390.3734939759036" type="line"/>
      <point x="618.1084337349398" y="455.28915662650604"/>
      <point x="569.0240963855422" y="493.6024096385542"/>
      <point x="495.48192771084337" y="493.6024096385542" type="curve" smooth="yes"/>
      <point x="371.71084337349396" y="493.6024096385542"/>
      <point x="278.3975903614458" y="385.8313253012048"/>
      <point x="278.3975903614458" y="238.289156626506" type="curve" smooth="yes"/>
      <point x="278.3975903614458" y="126.144578313253"/>
      <point x="337.3132530120482" y="59.0"/>
      <point x="438.68674698795184" y="59.0" type="curve" smooth="yes"/>
      <point x="504.7469879518072" y="59.0"/>
      <point x="570.5180722891566" y="100.37349397590361"/>
      <point x="605.0602409638554" y="175.18072289156626" type="curve"/>
      <point x="592.0240963855422" y="187.5421686746988" type="line"/>
      <point x="581.4578313253012" y="109.08433734939759"/>
      <point x="624.0602409638554" y="59.0"/>
      <point x="701.7469879518072" y="59.0" type="curve" smooth="yes"/>
      <point x="815.6626506024096" y="59.0"/>
      <point x="891.3493975903615" y="171.3132530120482"/>
      <point x="891.3493975903615" y="345.0843373493976" type="curve" smooth="yes"/>
      <point x="891.3493975903615" y="564.6867469879518"/>
      <point x="735.1204819277109" y="713.4578313253012"/>
      <point x="506.60240963855426" y="713.4578313253012" type="curve" smooth="yes"/>
      <point x="251.71084337349396" y="713.4578313253012"/>
      <point x="74.79518072289156" y="534.4578313253012"/>
      <point x="74.79518072289156" y="274.93975903614455" type="curve" smooth="yes"/>
      <point x="74.79518072289156" y="6.228915662650603"/>
      <point x="241.08433734939757" y="-162.6867469879518"/>
    </contour>
    <contour>
      <point x="443.8072289156627" y="107.1566265060241" type="curve" smooth="yes"/>
      <point x="373.9277108433735" y="107.1566265060241"/>
      <point x="334.2168674698795" y="153.63855421686748"/>
      <point x="334.2168674698795" y="238.51807228915663" type="curve" smooth="yes"/>
      <point x="334.2168674698795" y="358.0240963855422"/>
      <point x="405.4096385542169" y="445.2168674698795"/>
      <point x="499.3734939759036" y="445.2168674698795" type="curve" smooth="yes"/>
      <point x="573.7951807228916" y="445.2168674698795"/>
      <point x="608.5060240963855" y="406.04819277108436"/>
      <point x="608.5060240963855" y="325.855421686747" type="curve" smooth="yes"/>
      <point x="608.5060240963855" y="199.89156626506025"/>
      <point x="538.3132530120482" y="107.1566265060241"/>
    </contour>
  </outline>
</glyph>
<glyph name="A" format="2">
  <advance width="722.4096385542168"/>
  <unicode hex="0041"/>
  <anchor x="340.6626506024096" y="0.0" name="bottom"/>
  <anchor x="649.3493975903615" y="0.0" name="ogonek"/>
  <anchor x="436.5180722891566" y="705.0" name="top"/>
  <outline>
    <contour>
      <point x="34.265060240963855" y="-6.457831325301205" type="curve" smooth="yes"/>
      <point x="47.843373493975896" y="-6.457831325301205"/>
      <point x="58.590361445783124" y="0.3734939759036144"/>
      <point x="66.65060240963855" y="14.578313253012047" type="curve" smooth="yes"/>
      <point x="175.6144578313253" y="200.10843373493975" type="line"/>
      <point x="139.49397590361446" y="187.67469879518072" type="line"/>
      <point x="570.4578313253012" y="187.67469879518072" type="line"/>
      <point x="542.7951807228915" y="200.79518072289156" type="line"/>
      <point x="589.8192771084338" y="23.55421686746988" type="line" smooth="yes"/>
      <point x="594.4216867469879" y="4.602409638554217"/>
      <point x="606.2530120481928" y="-6.457831325301205"/>
      <point x="623.2048192771084" y="-6.457831325301205" type="curve" smooth="yes"/>
      <point x="642.156626506024" y="-6.457831325301205"/>
      <point x="655.277108433735" y="6.433734939759035"/>
      <point x="646.2168674698795" y="38.8433734939759" type="curve" smooth="yes"/>
      <point x="468.0481927710843" y="687.2168674698795" type="line" smooth="yes"/>
      <point x="463.44578313253015" y="702.9397590361446"/>
      <point x="453.0120481927711" y="711.4578313253012"/>
      <point x="435.7469879518072" y="711.4578313253012" type="curve" smooth="yes"/>
      <point x="419.48192771084337" y="711.4578313253012"/>
      <point x="407.96385542168673" y="705.3975903614457"/>
      <point x="398.9879518072289" y="689.8192771084337" type="curve" smooth="yes"/>
      <point x="11.16867469879518" y="36.6144578313253" type="line" smooth="yes"/>
      <point x="-3.2650602409638525" y="12.120481927710843"/>
      <point x="11.397590361445781" y="-6.457831325301205"/>
    </contour>
    <contour>
      <point x="426.14457831325296" y="629.2289156626506" type="line"/>
      <point x="428.14457831325296" y="629.2289156626506" type="line"/>
      <point x="534.1927710843373" y="230.74698795180723" type="line"/>
      <point x="555.7951807228915" y="241.09638554216866" type="line"/>
      <point x="170.96385542168673" y="241.09638554216866" type="line"/>
      <point x="193.73493975903614" y="231.20481927710844" type="line"/>
    </contour>
  </outline>
</glyph>
<glyph name="C" format="2">
  <advance width="669.9759036144578"/>
  <unicode hex="0043"/>
  <anchor x="365.6024096385542" y="0.0" name="bottom"/>
  <anchor x="435.06024096385545" y="705.0" name="top"/>
  <outline>
    <contour>
      <point x="377.578313253012" y="-8.457831325301205" type="curve" smooth="yes"/>
      <point x="459.2289156626506" y="-8.457831325301205"/>
      <point x="529.5180722891566" y="15.168674698795181"/>
      <point x="592.3734939759036" y="68.81927710843372" type="curve" smooth="yes"/>
      <point x="623.843373493976" y="94.16867469879519"/>
      <point x="593.722891566265" y="141.13253012048193"/>
      <point x="559.8795180722892" y="115.24096385542168" type="curve" smooth="yes"/>
      <point x="504.1686746987952" y="67.19277108433735"/>
      <point x="449.3734939759036" y="49.25301204819277"/>
      <point x="382.6385542168675" y="49.25301204819277" type="curve" smooth="yes"/>
      <point x="235.90361445783134" y="49.25301204819277"/>
      <point x="146.08433734939757" y="122.04819277108435"/>
      <point x="146.08433734939757" y="306.28915662650604" type="curve" smooth="yes"/>
      <point x="146.08433734939757" y="508.8433734939759"/>
      <point x="255.98795180722894" y="655.7469879518072"/>
      <point x="433.89156626506025" y="655.7469879518072" type="curve" smooth="yes"/>
      <point x="507.71084337349396" y="655.7469879518072"/>
      <point x="565.7349397590361" y="636.2650602409639"/>
      <point x="617.7349397590361" y="588.156626506024" type="curve" smooth="yes"/>
      <point x="649.0602409638553" y="560.9518072289156"/>
      <point x="682.3855421686748" y="609.1445783132531"/>
      <point x="652.6867469879518" y="635.1807228915663" type="curve" smooth="yes"/>
      <point x="599.4578313253012" y="684.9759036144578"/>
      <point x="523.3734939759036" y="713.4578313253012"/>
      <point x="437.12048192771084" y="713.4578313253012" type="curve" smooth="yes"/>
      <point x="216.93975903614458" y="713.4578313253012"/>
      <point x="80.25301204819277" y="537.2289156626506"/>
      <point x="80.25301204819277" y="306.144578313253" type="curve" smooth="yes"/>
      <point x="80.25301204819277" y="90.60240963855422"/>
      <point x="200.3734939759036" y="-8.457831325301205"/>
    </contour>
  </outline>
</glyph>
<glyph name="D" format="2">
  <advance width="733.4698795180723"/>
  <unicode hex="0044"/>
  <anchor x="329.5783132530121" y="0.0" name="bottom"/>
  <anchor x="196.34939759036143" y="358.0" name="center"/>
  <anchor x="429.89156626506025" y="705.0" name="top"/>
  <outline>
    <contour>
      <point x="91.18072289156626" y="0.0" type="curve" smooth="yes"/>
      <point x="292.92771084337346" y="0.0" type="line" smooth="yes"/>
      <point x="570.0963855421686" y="0.0"/>
      <point x="689.9879518072289" y="187.02409638554218"/>
      <point x="689.9879518072289" y="413.2530120481928" type="curve" smooth="yes"/>
      <point x="689.9879518072289" y="598.6265060240964"/>
      <point x="572.2409638554217" y="705.0"/>
      <point x="363.6626506024096" y="705.0" type="curve" smooth="yes"/>
      <point x="197.57831325301206" y="705.0" type="line" smooth="yes"/>
      <point x="176.62650602409636" y="705.0"/>
      <point x="163.19277108433735" y="694.7951807228916"/>
      <point x="160.04819277108436" y="673.0722891566264" type="curve" smooth="yes"/>
      <point x="59.253012048192765" y="37.53012048192771" type="line" smooth="yes"/>
      <point x="55.10843373493976" y="13.891566265060241"/>
      <point x="67.54216867469879" y="0.0"/>
    </contour>
    <contour>
      <point x="123.6265060240964" y="54.33734939759036" type="line"/>
      <point x="218.59036144578315" y="650.6626506024096" type="line"/>
      <point x="362.89156626506025" y="650.6626506024096" type="line" smooth="yes"/>
      <point x="536.9638554216867" y="650.6626506024096"/>
      <point x="624.6144578313254" y="567.0120481927711"/>
      <point x="624.6144578313254" y="412.7951807228916" type="curve" smooth="yes"/>
      <point x="624.6144578313254" y="219.12048192771084"/>
      <point x="534.3614457831326" y="54.33734939759036"/>
      <point x="294.9277108433735" y="54.33734939759036" type="curve" smooth="yes"/>
    </contour>
  </outline>
</glyph>
<glyph name="E" format="2">
  <advance width="576.1807228915662"/>
  <unicode hex="0045"/>
  <anchor x="290.3734939759036" y="0.0" name="bottom"/>
  <anchor x="450.6024096385542" y="0.0" name="ogonek"/>
  <anchor x="397.14457831325296" y="705.0" name="top"/>
  <anchor x="99.85542168674698" y="705.0" name="topleft"/>
  <outline>
    <contour>
      <point x="91.40963855421687" y="0.0" type="curve" smooth="yes"/>
      <point x="467.0843373493976" y="0.0" type="line" smooth="yes"/>
      <point x="484.578313253012" y="0.0"/>
      <point x="498.55421686746985" y="9.662650602409638"/>
      <point x="498.55421686746985" y="32.46987951807229" type="curve" smooth="yes"/>
      <point x="498.55421686746985" y="46.132530120481924"/>
      <point x="488.0361445783132" y="53.42168674698795"/>
      <point x="470.0" y="53.42168674698795" type="curve" smooth="yes"/>
      <point x="122.25301204819277" y="53.42168674698795" type="line"/>
      <point x="166.04819277108433" y="330.90361445783134" type="line"/>
      <point x="499.48192771084337" y="330.90361445783134" type="line" smooth="yes"/>
      <point x="516.9759036144579" y="330.90361445783134"/>
      <point x="530.9518072289156" y="340.566265060241"/>
      <point x="530.9518072289156" y="363.3734939759036" type="curve" smooth="yes"/>
      <point x="530.9518072289156" y="377.03614457831327"/>
      <point x="520.4337349397591" y="384.32530120481925"/>
      <point x="502.6265060240964" y="384.32530120481925" type="curve" smooth="yes"/>
      <point x="175.10843373493975" y="384.32530120481925" type="line"/>
      <point x="217.67469879518072" y="651.5783132530121" type="line"/>
      <point x="570.7951807228915" y="651.5783132530121" type="line" smooth="yes"/>
      <point x="588.2891566265059" y="651.5783132530121"/>
      <point x="602.2650602409639" y="661.2409638554217"/>
      <point x="602.2650602409639" y="684.0481927710842" type="curve" smooth="yes"/>
      <point x="602.2650602409639" y="697.710843373494"/>
      <point x="591.7469879518072" y="705.0"/>
      <point x="573.7108433734938" y="705.0" type="curve" smooth="yes"/>
      <point x="197.57831325301206" y="705.0" type="line" smooth="yes"/>
      <point x="176.62650602409636" y="705.0"/>
      <point x="163.73493975903617" y="694.7951807228916"/>
      <point x="160.04819277108436" y="673.0722891566264" type="curve" smooth="yes"/>
      <point x="59.253012048192765" y="37.53012048192771" type="line" smooth="yes"/>
      <point x="55.33734939759036" y="13.662650602409638"/>
      <point x="67.3132530120482" y="0.0"/>
    </contour>
  </outline>
</glyph>
<glyph name="F" format="2">
  <advance width="541.9518072289156"/>
  <unicode hex="0046"/>
  <anchor x="256.3734939759036" y="0.0" name="bottom"/>
  <anchor x="368.83132530120486" y="705.0" name="top"/>
  <outline>
    <contour>
      <point x="87.72289156626506" y="-6.457831325301205" type="curve" smooth="yes"/>
      <point x="104.13253012048195" y="-6.457831325301205"/>
      <point x="115.79518072289157" y="3.5180722891566263"/>
      <point x="119.71084337349399" y="25.69879518072289" type="curve" smooth="yes"/>
      <point x="167.96385542168676" y="329.7590361445783" type="line"/>
      <point x="483.855421686747" y="329.7590361445783" type="line" smooth="yes"/>
      <point x="504.12048192771084" y="329.7590361445783"/>
      <point x="516.0963855421687" y="341.421686746988"/>
      <point x="516.0963855421687" y="361.4578313253012" type="curve" smooth="yes"/>
      <point x="516.0963855421687" y="375.89156626506025"/>
      <point x="505.578313253012" y="383.1807228915663"/>
      <point x="486.7710843373494" y="383.1807228915663" type="curve" smooth="yes"/>
      <point x="176.25301204819277" y="383.1807228915663" type="line"/>
      <point x="219.04819277108436" y="651.5783132530121" type="line"/>
      <point x="555.1686746987951" y="651.5783132530121" type="line" smooth="yes"/>
      <point x="575.4337349397591" y="651.5783132530121"/>
      <point x="587.4096385542169" y="663.2409638554217"/>
      <point x="587.4096385542169" y="683.277108433735" type="curve" smooth="yes"/>
      <point x="587.4096385542169" y="697.710843373494"/>
      <point x="576.8915662650603" y="705.0"/>
      <point x="558.0843373493976" y="705.0" type="curve" smooth="yes"/>
      <point x="197.57831325301206" y="705.0" type="line" smooth="yes"/>
      <point x="176.62650602409636" y="705.0"/>
      <point x="163.73493975903617" y="694.7951807228916"/>
      <point x="160.04819277108436" y="673.0722891566264" type="curve" smooth="yes"/>
      <point x="58.253012048192765" y="31.072289156626503" type="line" smooth="yes"/>
      <point x="54.33734939759036" y="7.433734939759036"/>
      <point x="64.54216867469879" y="-6.457831325301205"/>
    </contour>
  </outline>
</glyph>
<glyph name="G" format="2">
  <advance width="722.1204819277109"/>
  <unicode hex="0047"/>
  <anchor x="376.12048192771084" y="0.0" name="bottom"/>
  <anchor x="436.9759036144578" y="705.0" name="top"/>
  <outline>
    <contour>
      <point x="387.2048192771084" y="-8.457831325301205" type="curve" smooth="yes"/>
      <point x="458.8313253012048" y="-8.457831325301205"/>
      <point x="535.6867469879518" y="4.855421686746988"/>
      <point x="585.289156626506" y="25.397590361445786" type="curve" smooth="yes"/>
      <point x="598.867469879518" y="30.771084337349397"/>
      <point x="605.156626506024" y="39.74698795180723"/>
      <point x="607.843373493976" y="56.86746987951807" type="curve" smooth="yes"/>
      <point x="650.4698795180723" y="327.71084337349396" type="line" smooth="yes"/>
      <point x="654.156626506024" y="348.9759036144579"/>
      <point x="642.6385542168674" y="360.95180722891564"/>
      <point x="622.3734939759037" y="360.95180722891564" type="curve" smooth="yes"/>
      <point x="435.46987951807233" y="360.95180722891564" type="line" smooth="yes"/>
      <point x="416.2048192771084" y="360.95180722891564"/>
      <point x="403.2289156626506" y="350.20481927710847"/>
      <point x="403.2289156626506" y="331.6265060240964" type="curve" smooth="yes"/>
      <point x="403.2289156626506" y="317.421686746988"/>
      <point x="413.9759036144578" y="309.13253012048193"/>
      <point x="432.5542168674699" y="309.13253012048193" type="curve" smooth="yes"/>
      <point x="592.4457831325301" y="309.13253012048193" type="line"/>
      <point x="549.7349397590361" y="43.69879518072289" type="line"/>
      <point x="571.1686746987953" y="81.50602409638553" type="line"/>
      <point x="519.5421686746988" y="62.42168674698795"/>
      <point x="463.6024096385542" y="48.33734939759036"/>
      <point x="392.8674698795181" y="48.33734939759036" type="curve" smooth="yes"/>
      <point x="229.87951807228916" y="48.33734939759036"/>
      <point x="144.6265060240964" y="127.44578313253011"/>
      <point x="144.6265060240964" y="293.3493975903615" type="curve" smooth="yes"/>
      <point x="144.6265060240964" y="514.012048192771"/>
      <point x="255.67469879518075" y="656.2048192771084"/>
      <point x="435.26506024096386" y="656.2048192771084" type="curve" smooth="yes"/>
      <point x="511.99999999999994" y="656.2048192771084"/>
      <point x="574.2530120481928" y="636.0361445783133"/>
      <point x="623.3373493975904" y="589.0722891566265" type="curve" smooth="yes"/>
      <point x="657.4939759036145" y="559.4096385542169"/>
      <point x="689.3614457831326" y="608.7469879518072"/>
      <point x="657.5180722891566" y="637.0963855421686" type="curve" smooth="yes"/>
      <point x="607.6024096385543" y="686.7469879518072"/>
      <point x="527.6626506024097" y="713.4578313253012"/>
      <point x="439.1807228915663" y="713.4578313253012" type="curve" smooth="yes"/>
      <point x="216.855421686747" y="713.4578313253012"/>
      <point x="79.25301204819277" y="544.3132530120482"/>
      <point x="79.25301204819277" y="292.20481927710847" type="curve" smooth="yes"/>
      <point x="79.25301204819277" y="96.91566265060241"/>
      <point x="192.74698795180723" y="-8.457831325301205"/>
    </contour>
  </outline>
</glyph>
<glyph name="H" format="2">
  <advance width="756.0361445783133"/>
  <unicode hex="0048"/>
  <anchor x="344.7469879518072" y="0.0" name="bottom"/>
  <anchor x="426.9759036144578" y="549.433734939759" name="center"/>
  <anchor x="450.28915662650604" y="705.0" name="top"/>
  <anchor x="99.08433734939759" y="705.0" name="topleft"/>
  <outline>
    <contour>
      <point x="83.72289156626506" y="-6.457831325301205" type="curve" smooth="yes"/>
      <point x="104.36144578313254" y="-6.457831325301205"/>
      <point x="115.56626506024098" y="4.746987951807228"/>
      <point x="118.71084337349399" y="25.385542168674696" type="curve" smooth="yes"/>
      <point x="167.73493975903617" y="330.2168674698795" type="line"/>
      <point x="616.3253012048192" y="330.2168674698795" type="line"/>
      <point x="569.3012048192771" y="30.987951807228914" type="line" smooth="yes"/>
      <point x="565.156626506024" y="6.8915662650602405"/>
      <point x="575.4457831325301" y="-6.457831325301205"/>
      <point x="595.5421686746988" y="-6.457831325301205" type="curve" smooth="yes"/>
      <point x="615.9518072289156" y="-6.457831325301205"/>
      <point x="626.6144578313252" y="4.746987951807228"/>
      <point x="629.7590361445783" y="25.385542168674696" type="curve" smooth="yes"/>
      <point x="732.5542168674698" y="674.012048192771" type="line" smooth="yes"/>
      <point x="736.6987951807229" y="698.3373493975904"/>
      <point x="726.1807228915662" y="711.4578313253012"/>
      <point x="706.3132530120482" y="711.4578313253012" type="curve" smooth="yes"/>
      <point x="685.6746987951807" y="711.4578313253012"/>
      <point x="675.2409638554217" y="700.4819277108434"/>
      <point x="672.0963855421686" y="679.8433734939758" type="curve" smooth="yes"/>
      <point x="624.8433734939758" y="384.7831325301205" type="line"/>
      <point x="176.25301204819277" y="384.7831325301205" type="line"/>
      <point x="221.50602409638554" y="674.012048192771" type="line" smooth="yes"/>
      <point x="225.65060240963857" y="698.1084337349398"/>
      <point x="215.36144578313255" y="711.4578313253012"/>
      <point x="195.49397590361446" y="711.4578313253012" type="curve" smooth="yes"/>
      <point x="174.85542168674698" y="711.4578313253012"/>
      <point x="164.19277108433735" y="700.4819277108434"/>
      <point x="161.04819277108436" y="679.8433734939758" type="curve" smooth="yes"/>
      <point x="58.253012048192765" y="30.987951807228914" type="line" smooth="yes"/>
      <point x="54.10843373493976" y="6.8915662650602405"/>
      <point x="63.855421686746986" y="-6.457831325301205"/>
    </contour>
  </outline>
</glyph>
<glyph name="I" format="2">
  <advance width="244.9879518072289"/>
  <unicode hex="0049"/>
  <anchor x="84.26506024096385" y="0.0" name="bottom"/>
  <anchor x="108.69879518072291" y="0.0" name="ogonek"/>
  <anchor x="196.26506024096386" y="705.0" name="top"/>
  <anchor x="100.62650602409637" y="705.0" name="topleft"/>
  <outline>
    <contour>
      <point x="84.72289156626506" y="-6.457831325301205" type="curve" smooth="yes"/>
      <point x="105.13253012048195" y="-6.457831325301205"/>
      <point x="115.56626506024098" y="4.746987951807228"/>
      <point x="118.71084337349399" y="25.385542168674696" type="curve" smooth="yes"/>
      <point x="221.50602409638554" y="674.012048192771" type="line" smooth="yes"/>
      <point x="225.65060240963857" y="698.3373493975904"/>
      <point x="215.36144578313255" y="711.4578313253012"/>
      <point x="195.49397590361446" y="711.4578313253012" type="curve" smooth="yes"/>
      <point x="174.85542168674698" y="711.4578313253012"/>
      <point x="164.19277108433735" y="700.4819277108434"/>
      <point x="161.04819277108436" y="679.8433734939758" type="curve" smooth="yes"/>
      <point x="58.253012048192765" y="30.987951807228914" type="line" smooth="yes"/>
      <point x="54.10843373493976" y="6.8915662650602405"/>
      <point x="64.62650602409639" y="-6.457831325301205"/>
    </contour>
  </outline>
</glyph>
<glyph name="J" format="2">
  <advance width="310.04819277108436"/>
  <unicode hex="004A"/>
  <anchor x="150.32530120481928" y="0.0" name="bottom"/>
  <anchor x="260.5542168674699" y="705.0" name="top"/>
  <outline>
    <contour>
      <point x="-14.53012048192771" y="-6.228915662650603" type="curve" smooth="yes"/>
      <point x="16.240963855421683" y="-3.4578313253012047" type="line" smooth="yes"/>
      <point x="131.93975903614458" y="6.542168674698796"/>
      <point x="190.3975903614458" y="68.6867469879518"/>
      <point x="208.0843373493976" y="181.34939759036143" type="curve" smooth="yes"/>
      <point x="286.7951807228916" y="676.1566265060242" type="line" smooth="yes"/>
      <point x="290.71084337349396" y="698.566265060241"/>
      <point x="280.5060240963855" y="711.4578313253012"/>
      <point x="260.6385542168675" y="711.4578313253012" type="curve" smooth="yes"/>
      <point x="240.6867469879518" y="711.4578313253012"/>
      <point x="229.25301204819277" y="701.710843373494"/>
      <point x="226.33734939759037" y="681.7590361445783" type="curve" smooth="yes"/>
      <point x="148.3975903614458" y="191.57831325301203" type="line" smooth="yes"/>
      <point x="134.3132530120482" y="102.30120481927712"/>
      <point x="88.74698795180723" y="56.963855421686745"/>
      <point x="12.867469879518072" y="50.65060240963855" type="curve" smooth="yes"/>
      <point x="-19.674698795180724" y="47.87951807228916" type="line" smooth="yes"/>
      <point x="-38.02409638554217" y="46.65060240963855"/>
      <point x="-47.855421686746986" y="37.13253012048193"/>
      <point x="-48.08433734939759" y="20.096385542168676" type="curve" smooth="yes"/>
      <point x="-48.31325301204819" y="2.2891566265060246"/>
      <point x="-36.10843373493976" y="-8.228915662650602"/>
    </contour>
  </outline>
</glyph>
<glyph name="K" format="2">
  <advance width="606.9397590361446"/>
  <unicode hex="004B"/>
  <anchor x="279.95180722891564" y="0.0" name="bottom"/>
  <anchor x="381.6385542168675" y="705.0" name="top"/>
  <anchor x="99.62650602409639" y="705.0" name="topleft"/>
  <outline>
    <contour>
      <point x="85.26506024096385" y="-6.457831325301205" type="curve" smooth="yes"/>
      <point x="105.67469879518073" y="-6.457831325301205"/>
      <point x="116.33734939759037" y="3.5180722891566263"/>
      <point x="119.48192771084338" y="23.927710843373493" type="curve" smooth="yes"/>
      <point x="168.65060240963857" y="335.9397590361446" type="line"/>
      <point x="170.65060240963857" y="335.9397590361446" type="line"/>
      <point x="488.8795180722891" y="12.409638554216867" type="line" smooth="yes"/>
      <point x="500.99999999999994" y="-0.6265060240963856"/>
      <point x="509.3734939759036" y="-6.457831325301205"/>
      <point x="523.4096385542169" y="-6.457831325301205" type="curve" smooth="yes"/>
      <point x="549.277108433735" y="-6.457831325301205"/>
      <point x="561.1686746987953" y="19.63855421686747"/>
      <point x="543.277108433735" y="37.903614457831324" type="curve" smooth="yes"/>
      <point x="214.81927710843374" y="374.4939759036145" type="line"/>
      <point x="211.87951807228913" y="337.855421686747" type="line"/>
      <point x="622.8433734939758" y="667.1807228915662" type="line" smooth="yes"/>
      <point x="642.566265060241" y="683.4457831325301"/>
      <point x="632.132530120482" y="711.4578313253012"/>
      <point x="606.8072289156626" y="711.4578313253012" type="curve" smooth="yes"/>
      <point x="593.9156626506024" y="711.4578313253012"/>
      <point x="586.6265060240963" y="707.6265060240964"/>
      <point x="573.8795180722891" y="696.8795180722892" type="curve" smooth="yes"/>
      <point x="177.56626506024097" y="380.66265060240966" type="line"/>
      <point x="175.56626506024097" y="380.66265060240966" type="line"/>
      <point x="222.27710843373495" y="675.2409638554217" type="line" smooth="yes"/>
      <point x="226.19277108433735" y="698.3373493975904"/>
      <point x="215.44578313253012" y="711.4578313253012"/>
      <point x="196.03614457831324" y="711.4578313253012" type="curve" smooth="yes"/>
      <point x="175.62650602409636" y="711.4578313253012"/>
      <point x="164.96385542168676" y="701.2530120481928"/>
      <point x="161.81927710843374" y="680.843373493976" type="curve" smooth="yes"/>
      <point x="58.795180722891565" y="29.987951807228914" type="line" smooth="yes"/>
      <point x="54.65060240963855" y="6.662650602409639"/>
      <point x="65.85542168674698" y="-6.457831325301205"/>
    </contour>
  </outline>
</glyph>
<glyph name="L" format="2">
  <advance width="535.0120481927711"/>
  <unicode hex="004C"/>
  <anchor x="268.3734939759036" y="0.0" name="bottom"/>
  <anchor x="187.95180722891567" y="387.0" name="center"/>
  <anchor x="417.3855421686747" y="387.8313253012048" name="dot"/>
  <anchor x="196.03614457831324" y="705.0" name="top"/>
  <anchor x="345.67469879518075" y="705.0" name="topright"/>
  <outline>
    <contour>
      <point x="88.18072289156626" y="0.0" type="curve" smooth="yes"/>
      <point x="460.62650602409633" y="0.0" type="line" smooth="yes"/>
      <point x="479.0361445783133" y="0.0"/>
      <point x="493.24096385542174" y="9.891566265060241"/>
      <point x="493.24096385542174" y="33.3855421686747" type="curve" smooth="yes"/>
      <point x="493.24096385542174" y="47.506024096385545"/>
      <point x="482.2650602409639" y="55.024096385542165"/>
      <point x="463.77108433734935" y="55.024096385542165" type="curve" smooth="yes"/>
      <point x="124.6265060240964" y="55.024096385542165" type="line"/>
      <point x="222.50602409638554" y="676.9277108433735" type="line" smooth="yes"/>
      <point x="225.65060240963857" y="698.5662650602409"/>
      <point x="216.21686746987953" y="711.4578313253012"/>
      <point x="195.57831325301206" y="711.4578313253012" type="curve" smooth="yes"/>
      <point x="176.39759036144576" y="711.4578313253012"/>
      <point x="164.96385542168676" y="702.4819277108434"/>
      <point x="162.04819277108436" y="682.5301204819277" type="curve" smooth="yes"/>
      <point x="59.024096385542165" y="34.75903614457831" type="line" smooth="yes"/>
      <point x="55.87951807228915" y="12.89156626506024"/>
      <point x="66.3132530120482" y="0.0"/>
    </contour>
  </outline>
</glyph>
<glyph name="M" format="2">
  <advance width="849.722891566265"/>
  <unicode hex="004D"/>
  <anchor x="392.2048192771084" y="0.0" name="bottom"/>
  <anchor x="498.7469879518072" y="705.0" name="top"/>
  <outline>
    <contour>
      <point x="86.57831325301206" y="-1.1445783132530125" type="curve" smooth="yes"/>
      <point x="104.8433734939759" y="-1.1445783132530125"/>
      <point x="113.27710843373495" y="8.602409638554217"/>
      <point x="116.19277108433737" y="26.096385542168676" type="curve" smooth="yes"/>
      <point x="211.7831325301205" y="631.433734939759" type="line"/>
      <point x="191.32530120481928" y="631.433734939759" type="line"/>
      <point x="377.33734939759034" y="125.20481927710843" type="line" smooth="yes"/>
      <point x="382.71084337349396" y="110.0"/>
      <point x="390.77108433734935" y="102.855421686747"/>
      <point x="405.7469879518072" y="102.855421686747" type="curve" smooth="yes"/>
      <point x="419.49397590361446" y="102.855421686747"/>
      <point x="426.3253012048193" y="107.7710843373494"/>
      <point x="434.3855421686747" y="119.51807228915662" type="curve" smooth="yes"/>
      <point x="785.2650602409639" y="631.578313253012" type="line"/>
      <point x="760.722891566265" y="631.578313253012" type="line"/>
      <point x="666.1325301204819" y="31.240963855421686" type="line" smooth="yes"/>
      <point x="663.2168674698795" y="10.518072289156628"/>
      <point x="673.9638554216867" y="-1.1445783132530125"/>
      <point x="691.9156626506024" y="-1.1445783132530125" type="curve" smooth="yes"/>
      <point x="710.4096385542169" y="-1.1445783132530125"/>
      <point x="718.843373493976" y="8.602409638554217"/>
      <point x="721.7590361445783" y="26.096385542168676" type="curve" smooth="yes"/>
      <point x="825.2409638554217" y="678.3012048192771" type="line" smooth="yes"/>
      <point x="828.1566265060242" y="699.0240963855422"/>
      <point x="819.4096385542169" y="711.4578313253012"/>
      <point x="801.2289156626506" y="711.4578313253012" type="curve" smooth="yes"/>
      <point x="785.421686746988" y="711.4578313253012"/>
      <point x="776.2168674698795" y="705.0843373493976"/>
      <point x="767.4698795180723" y="692.1927710843373" type="curve" smooth="yes"/>
      <point x="393.8072289156627" y="146.9156626506024" type="line"/>
      <point x="421.26506024096386" y="146.9156626506024" type="line"/>
      <point x="225.04819277108433" y="686.8192771084338" type="line" smooth="yes"/>
      <point x="218.9879518072289" y="703.855421686747"/>
      <point x="211.4698795180723" y="711.4578313253012"/>
      <point x="194.89156626506025" y="711.4578313253012" type="curve" smooth="yes"/>
      <point x="177.39759036144576" y="711.4578313253012"/>
      <point x="167.19277108433735" y="702.710843373494"/>
      <point x="164.27710843373495" y="683.4457831325301" type="curve" smooth="yes"/>
      <point x="60.795180722891565" y="31.240963855421686" type="line" smooth="yes"/>
      <point x="57.87951807228915" y="10.518072289156628"/>
      <point x="67.93975903614458" y="-1.1445783132530125"/>
    </contour>
  </outline>
</glyph>
<glyph name="N" format="2">
  <advance width="735.433734939759"/>
  <unicode hex="004E"/>
  <anchor x="339.8313253012048" y="0.0" name="bottom"/>
  <anchor x="441.14457831325296" y="705.0" name="top"/>
  <outline>
    <contour>
      <point x="82.26506024096385" y="-6.457831325301205" type="curve" smooth="yes"/>
      <point x="101.44578313253012" y="-6.457831325301205"/>
      <point x="111.19277108433737" y="2.5180722891566267"/>
      <point x="114.10843373493977" y="22.469879518072286" type="curve" smooth="yes"/>
      <point x="211.1566265060241" y="634.6144578313254" type="line"/>
      <point x="192.32530120481928" y="634.6144578313254" type="line"/>
      <point x="548.3855421686746" y="14.722891566265059" type="line" smooth="yes"/>
      <point x="556.9036144578314" y="0.37349397590361444"/>
      <point x="564.8795180722891" y="-6.457831325301205"/>
      <point x="580.9156626506024" y="-6.457831325301205" type="curve" smooth="yes"/>
      <point x="596.4939759036145" y="-6.457831325301205"/>
      <point x="605.2409638554217" y="2.5180722891566263"/>
      <point x="608.156626506024" y="21.78313253012048" type="curve" smooth="yes"/>
      <point x="712.1807228915662" y="676.9277108433735" type="line" smooth="yes"/>
      <point x="715.3253012048193" y="698.566265060241"/>
      <point x="707.3493975903615" y="711.4578313253012"/>
      <point x="689.6265060240964" y="711.4578313253012" type="curve" smooth="yes"/>
      <point x="670.4457831325301" y="711.4578313253012"/>
      <point x="659.0120481927711" y="702.4819277108434"/>
      <point x="656.0963855421686" y="682.5301204819277" type="curve" smooth="yes"/>
      <point x="559.0481927710844" y="70.38554216867469" type="line"/>
      <point x="578.6506024096386" y="70.38554216867469" type="line"/>
      <point x="222.59036144578315" y="690.7349397590361" type="line" smooth="yes"/>
      <point x="214.0722891566265" y="704.855421686747"/>
      <point x="208.01204819277106" y="711.4578313253012"/>
      <point x="191.97590361445782" y="711.4578313253012" type="curve" smooth="yes"/>
      <point x="176.39759036144576" y="711.4578313253012"/>
      <point x="165.19277108433735" y="702.9397590361446"/>
      <point x="162.27710843373495" y="683.6746987951808" type="curve" smooth="yes"/>
      <point x="58.024096385542165" y="28.301204819277107" type="line" smooth="yes"/>
      <point x="54.87951807228915" y="6.433734939759036"/>
      <point x="64.3132530120482" y="-6.457831325301205"/>
    </contour>
  </outline>
</glyph>
<glyph name="P" format="2">
  <advance width="624.2409638554217"/>
  <unicode hex="0050"/>
  <anchor x="281.43373493975906" y="0.0" name="bottom"/>
  <anchor x="393.20481927710847" y="705.0" name="top"/>
  <outline>
    <contour>
      <point x="86.03614457831326" y="-6.457831325301205" type="curve" smooth="yes"/>
      <point x="105.67469879518073" y="-6.457831325301205"/>
      <point x="115.56626506024098" y="2.975903614457831"/>
      <point x="118.71084337349399" y="23.6144578313253" type="curve" smooth="yes"/>
      <point x="160.96385542168676" y="289.4457831325301" type="line"/>
      <point x="373.6626506024096" y="289.4457831325301" type="line" smooth="yes"/>
      <point x="540.5542168674698" y="289.4457831325301"/>
      <point x="630.6144578313254" y="378.90361445783134"/>
      <point x="630.6144578313254" y="518.2530120481927" type="curve" smooth="yes"/>
      <point x="630.6144578313254" y="642.710843373494"/>
      <point x="549.156626506024" y="705.0"/>
      <point x="410.8915662650602" y="705.0" type="curve" smooth="yes"/>
      <point x="195.49397590361446" y="705.0" type="line" smooth="yes"/>
      <point x="175.85542168674698" y="705.0"/>
      <point x="163.96385542168676" y="695.7951807228916"/>
      <point x="160.81927710843374" y="675.156626506024" type="curve" smooth="yes"/>
      <point x="58.253012048192765" y="29.216867469879517" type="line" smooth="yes"/>
      <point x="55.10843373493976" y="6.8915662650602405"/>
      <point x="65.85542168674698" y="-6.457831325301205"/>
    </contour>
    <contour>
      <point x="170.02409638554218" y="342.6385542168675" type="line"/>
      <point x="218.81927710843374" y="651.8072289156627" type="line"/>
      <point x="407.4578313253012" y="651.8072289156627" type="line" smooth="yes"/>
      <point x="512.9638554216867" y="651.8072289156627"/>
      <point x="568.3012048192771" y="609.5542168674699"/>
      <point x="568.3012048192771" y="515.1927710843373" type="curve" smooth="yes"/>
      <point x="568.3012048192771" y="402.7469879518072"/>
      <point x="501.87951807228916" y="342.6385542168675"/>
      <point x="378.12048192771084" y="342.6385542168675" type="curve" smooth="yes"/>
    </contour>
  </outline>
</glyph>
<glyph name="R" format="2">
  <advance width="661.3253012048193"/>
  <unicode hex="0052"/>
  <anchor x="307.51807228915663" y="0.0" name="bottom"/>
  <anchor x="397.9759036144578" y="705.0" name="top"/>
  <outline>
    <contour>
      <point x="84.26506024096385" y="-6.457831325301205" type="curve" smooth="yes"/>
      <point x="104.90361445783134" y="-6.457831325301205"/>
      <point x="115.79518072289157" y="3.746987951807229"/>
      <point x="118.9397590361446" y="24.385542168674696" type="curve" smooth="yes"/>
      <point x="163.19277108433735" y="305.13253012048193" type="line"/>
      <point x="316.3132530120482" y="305.13253012048193" type="line" smooth="yes"/>
      <point x="388.5903614457831" y="305.13253012048193"/>
      <point x="420.7590361445783" y="282.50602409638554"/>
      <point x="444.92771084337346" y="219.855421686747" type="curve" smooth="yes"/>
      <point x="521.2650602409639" y="20.240963855421686" type="line" smooth="yes"/>
      <point x="528.5542168674699" y="1.2891566265060241"/>
      <point x="537.3012048192771" y="-6.457831325301205"/>
      <point x="553.7951807228916" y="-6.457831325301205" type="curve" smooth="yes"/>
      <point x="578.4939759036145" y="-6.457831325301205"/>
      <point x="586.4698795180723" y="9.120481927710845"/>
      <point x="576.4939759036145" y="35.674698795180724" type="curve" smooth="yes"/>
      <point x="503.81927710843377" y="226.21686746987953" type="line" smooth="yes"/>
      <point x="480.5903614457831" y="286.9036144578313"/>
      <point x="445.67469879518075" y="320.8192771084337"/>
      <point x="390.3855421686747" y="320.8192771084337" type="curve" smooth="yes"/>
      <point x="378.26506024096386" y="320.8192771084337" type="line"/>
      <point x="378.2650602409638" y="308.90361445783134" type="line"/>
      <point x="523.0120481927711" y="305.3614457831325"/>
      <point x="630.6144578313254" y="378.3614457831325"/>
      <point x="630.6144578313254" y="517.710843373494" type="curve" smooth="yes"/>
      <point x="630.6144578313254" y="633.3132530120481"/>
      <point x="556.3253012048192" y="705.0"/>
      <point x="406.49397590361446" y="705.0" type="curve" smooth="yes"/>
      <point x="196.49397590361446" y="705.0" type="line" smooth="yes"/>
      <point x="175.85542168674698" y="705.0"/>
      <point x="163.96385542168676" y="694.7951807228916"/>
      <point x="160.81927710843374" y="674.156626506024" type="curve" smooth="yes"/>
      <point x="59.024096385542165" y="30.216867469879517" type="line" smooth="yes"/>
      <point x="54.87951807228915" y="6.8915662650602405"/>
      <point x="65.08433734939759" y="-6.457831325301205"/>
    </contour>
    <contour>
      <point x="172.02409638554218" y="356.95180722891564" type="line"/>
      <point x="218.81927710843374" y="651.8072289156627" type="line"/>
      <point x="402.14457831325296" y="651.8072289156627" type="line" smooth="yes"/>
      <point x="517.277108433735" y="651.8072289156627"/>
      <point x="568.3012048192771" y="605.2409638554217"/>
      <point x="568.3012048192771" y="514.6506024096385" type="curve" smooth="yes"/>
      <point x="568.3012048192771" y="413.83132530120486"/>
      <point x="500.1084337349398" y="356.95180722891564"/>
      <point x="385.9759036144578" y="356.95180722891564" type="curve" smooth="yes"/>
    </contour>
  </outline>
</glyph>
<glyph name="S" format="2">
  <advance width="607.0963855421687"/>
  <unicode hex="0053"/>
  <anchor x="289.433734939759" y="0.0" name="bottom"/>
  <anchor x="365.12048192771084" y="705.0" name="top"/>
  <outline>
    <contour>
      <point x="296.144578313253" y="-8.457831325301205" type="curve" smooth="yes"/>
      <point x="440.5783132530121" y="-8.457831325301205"/>
      <point x="554.5301204819277" y="62.45783132530121"/>
      <point x="554.5301204819277" y="191.72289156626505" type="curve" smooth="yes"/>
      <point x="554.5301204819277" y="275.6385542168675"/>
      <point x="498.3855421686747" y="334.0120481927711"/>
      <point x="369.5903614457831" y="363.5542168674699" type="curve" smooth="yes"/>
      <point x="268.3012048192771" y="388.01204819277103" type="line" smooth="yes"/>
      <point x="197.19277108433735" y="405.09638554216866"/>
      <point x="160.48192771084337" y="434.49397590361446"/>
      <point x="160.48192771084337" y="510.1686746987952" type="curve" smooth="yes"/>
      <point x="160.48192771084337" y="599.156626506024"/>
      <point x="243.30120481927713" y="657.1204819277109"/>
      <point x="351.578313253012" y="657.1204819277109" type="curve" smooth="yes"/>
      <point x="421.4578313253012" y="657.1204819277109"/>
      <point x="491.9397590361446" y="638.4939759036145"/>
      <point x="545.8795180722892" y="591.2168674698795" type="curve" smooth="yes"/>
      <point x="583.2409638554217" y="562.722891566265"/>
      <point x="608.9879518072289" y="611.3734939759037"/>
      <point x="580.2048192771084" y="636.0361445783133" type="curve" smooth="yes"/>
      <point x="521.9156626506025" y="690.0602409638554"/>
      <point x="433.8313253012048" y="713.4578313253012"/>
      <point x="353.5783132530121" y="713.4578313253012" type="curve" smooth="yes"/>
      <point x="211.83132530120483" y="713.4578313253012"/>
      <point x="97.48192771084338" y="632.0"/>
      <point x="97.48192771084338" y="507.6506024096385" type="curve" smooth="yes"/>
      <point x="97.48192771084338" y="404.0240963855422"/>
      <point x="157.1686746987952" y="355.27710843373495"/>
      <point x="248.7710843373494" y="333.8192771084337" type="curve" smooth="yes"/>
      <point x="350.06024096385545" y="309.3614457831325" type="line" smooth="yes"/>
      <point x="456.3614457831325" y="285.1927710843374"/>
      <point x="491.5301204819277" y="243.85542168674698"/>
      <point x="491.5301204819277" y="185.20481927710844" type="curve" smooth="yes"/>
      <point x="491.5301204819277" y="99.98795180722891"/>
      <point x="414.2530120481928" y="47.87951807228916"/>
      <point x="300.43373493975906" y="47.87951807228916" type="curve" smooth="yes"/>
      <point x="214.69879518072287" y="47.87951807228916"/>
      <point x="144.46987951807228" y="61.65060240963856"/>
      <point x="78.61445783132531" y="111.30120481927712" type="curve" smooth="yes"/>
      <point x="42.77108433734939" y="135.65060240963854"/>
      <point x="15.734939759036141" y="87.5421686746988"/>
      <point x="46.891566265060234" y="64.42168674698794" type="curve" smooth="yes"/>
      <point x="112.03614457831324" y="11.85542168674699"/>
      <point x="203.66265060240963" y="-8.457831325301205"/>
    </contour>
  </outline>
</glyph>
<glyph name="T" format="2">
  <advance width="594.0120481927711"/>
  <unicode hex="0054"/>
  <anchor x="258.34939759036143" y="0.0" name="bottom"/>
  <anchor x="315.12048192771084" y="358.0" name="center"/>
  <anchor x="369.66265060240966" y="705.0" name="top"/>
  <outline>
    <contour>
      <point x="258.34939759036143" y="-6.457831325301205" type="curve" smooth="yes"/>
      <point x="278.7590361445783" y="-6.457831325301205"/>
      <point x="290.1927710843373" y="3.975903614457831"/>
      <point x="293.33734939759034" y="24.385542168674696" type="curve" smooth="yes"/>
      <point x="392.4457831325301" y="650.433734939759" type="line"/>
      <point x="632.9397590361446" y="650.433734939759" type="line" smooth="yes"/>
      <point x="653.6626506024096" y="650.433734939759"/>
      <point x="666.0963855421687" y="662.0963855421686"/>
      <point x="666.0963855421687" y="682.8192771084338" type="curve" smooth="yes"/>
      <point x="666.0963855421687" y="697.710843373494"/>
      <point x="655.1204819277108" y="705.0"/>
      <point x="636.0843373493975" y="705.0" type="curve" smooth="yes"/>
      <point x="98.78313253012048" y="705.0" type="line" smooth="yes"/>
      <point x="79.06024096385542" y="705.0"/>
      <point x="65.62650602409639" y="693.566265060241"/>
      <point x="65.62650602409639" y="673.6144578313252" type="curve" smooth="yes"/>
      <point x="65.62650602409639" y="658.9518072289156"/>
      <point x="76.60240963855422" y="650.433734939759"/>
      <point x="95.63855421686746" y="650.433734939759" type="curve" smooth="yes"/>
      <point x="330.7590361445783" y="650.433734939759" type="line"/>
      <point x="232.87951807228916" y="29.987951807228914" type="line" smooth="yes"/>
      <point x="228.96385542168676" y="6.8915662650602405"/>
      <point x="238.93975903614455" y="-6.457831325301205"/>
    </contour>
  </outline>
</glyph>
<glyph name="U" format="2">
  <advance width="724.1204819277109"/>
  <unicode hex="0055"/>
  <anchor x="324.06024096385545" y="0.0" name="bottom"/>
  <anchor x="387.89156626506025" y="0.0" name="ogonek"/>
  <anchor x="434.83132530120486" y="705.0" name="top"/>
  <anchor x="655.421686746988" y="705.0" name="topright"/>
  <outline>
    <contour>
      <point x="332.51807228915663" y="-8.457831325301205" type="curve" smooth="yes"/>
      <point x="514.0120481927711" y="-8.457831325301205"/>
      <point x="612.2409638554217" y="83.06024096385542"/>
      <point x="640.6987951807229" y="265.12048192771084" type="curve" smooth="yes"/>
      <point x="705.4096385542168" y="675.9277108433736" type="line" smooth="yes"/>
      <point x="709.3253012048193" y="698.566265060241"/>
      <point x="699.1204819277109" y="711.4578313253012"/>
      <point x="679.7108433734941" y="711.4578313253012" type="curve" smooth="yes"/>
      <point x="659.7590361445783" y="711.4578313253012"/>
      <point x="648.0963855421687" y="701.4819277108434"/>
      <point x="645.1807228915662" y="681.5301204819277" type="curve" smooth="yes"/>
      <point x="579.7831325301205" y="271.6024096385542" type="line" smooth="yes"/>
      <point x="554.3855421686748" y="114.67469879518073"/>
      <point x="475.1927710843373" y="48.33734939759036"/>
      <point x="334.5783132530121" y="48.33734939759036" type="curve" smooth="yes"/>
      <point x="192.04819277108433" y="48.33734939759036"/>
      <point x="129.6265060240964" y="126.59036144578313"/>
      <point x="155.02409638554218" y="285.66265060240966" type="curve" smooth="yes"/>
      <point x="216.73493975903617" y="675.9277108433736" type="line" smooth="yes"/>
      <point x="220.65060240963857" y="698.566265060241"/>
      <point x="210.67469879518075" y="711.4578313253012"/>
      <point x="190.80722891566265" y="711.4578313253012" type="curve" smooth="yes"/>
      <point x="170.85542168674698" y="711.4578313253012"/>
      <point x="159.19277108433735" y="701.4819277108434"/>
      <point x="156.27710843373495" y="681.5301204819277" type="curve" smooth="yes"/>
      <point x="94.33734939759036" y="292.34939759036143" type="line" smooth="yes"/>
      <point x="62.65060240963855" y="92.4578313253012"/>
      <point x="155.8313253012048" y="-8.457831325301205"/>
    </contour>
  </outline>
</glyph>
<glyph name="V" format="2">
  <advance width="676.7590361445783"/>
  <unicode hex="0056"/>
  <anchor x="300.26506024096386" y="0.0" name="bottom"/>
  <anchor x="411.03614457831327" y="705.0" name="top"/>
  <outline>
    <contour>
      <point x="299.1807228915663" y="-6.457831325301205" type="curve" smooth="yes"/>
      <point x="318.7590361445783" y="-6.457831325301205"/>
      <point x="329.50602409638554" y="1.3734939759036147"/>
      <point x="340.0240963855422" y="19.49397590361446" type="curve" smooth="yes"/>
      <point x="722.867469879518" y="664.4096385542168" type="line" smooth="yes"/>
      <point x="735.5301204819277" y="686.3614457831325"/>
      <point x="725.5542168674699" y="705.0"/>
      <point x="700.7710843373494" y="705.0" type="curve" smooth="yes"/>
      <point x="683.7349397590361" y="705.0"/>
      <point x="673.4457831325301" y="698.1686746987951"/>
      <point x="664.4698795180723" y="682.3614457831325" type="curve" smooth="yes"/>
      <point x="289.26506024096386" y="44.60240963855422" type="line"/>
      <point x="317.6144578313253" y="44.60240963855422" type="line"/>
      <point x="146.3975903614458" y="676.7590361445783" type="line" smooth="yes"/>
      <point x="140.79518072289156" y="696.3975903614457"/>
      <point x="131.36144578313252" y="705.0"/>
      <point x="114.78313253012048" y="705.0" type="curve" smooth="yes"/>
      <point x="93.37349397590361" y="705.0"/>
      <point x="81.25301204819277" y="689.9638554216867"/>
      <point x="87.3132530120482" y="666.867469879518" type="curve" smooth="yes"/>
      <point x="262.3373493975904" y="25.096385542168676" type="line" smooth="yes"/>
      <point x="267.93975903614455" y="4.0602409638554215"/>
      <point x="278.91566265060237" y="-6.457831325301205"/>
    </contour>
  </outline>
</glyph>
<glyph name="W" format="2">
  <advance width="1096.0361445783133"/>
  <unicode hex="0057"/>
  <anchor x="509.51807228915663" y="0.0" name="bottom"/>
  <anchor x="620.0602409638554" y="705.0" name="top"/>
  <outline>
    <contour>
      <point x="267.8072289156627" y="-6.457831325301205" type="curve" smooth="yes"/>
      <point x="287.0722891566265" y="-6.457831325301205"/>
      <point x="297.27710843373495" y="1.6024096385542168"/>
      <point x="306.566265060241" y="19.951807228915662" type="curve" smooth="yes"/>
      <point x="620.6265060240963" y="641.2409638554217" type="line"/>
      <point x="599.9397590361446" y="641.2409638554217" type="line"/>
      <point x="714.7590361445783" y="26.554216867469883" type="line" smooth="yes"/>
      <point x="718.9036144578313" y="5.060240963855422"/>
      <point x="729.4216867469879" y="-6.457831325301205"/>
      <point x="748.2289156626506" y="-6.457831325301205" type="curve" smooth="yes"/>
      <point x="767.2650602409639" y="-6.457831325301205"/>
      <point x="778.4698795180723" y="1.6024096385542168"/>
      <point x="787.7590361445783" y="19.951807228915662" type="curve" smooth="yes"/>
      <point x="1116.7469879518071" y="669.3253012048193" type="line" smooth="yes"/>
      <point x="1128.4096385542168" y="692.1927710843373"/>
      <point x="1119.2048192771083" y="711.4578313253012"/>
      <point x="1094.1084337349396" y="711.4578313253012" type="curve" smooth="yes"/>
      <point x="1078.843373493976" y="711.4578313253012"/>
      <point x="1068.55421686747" y="704.1686746987951"/>
      <point x="1061.0361445783133" y="688.3614457831325" type="curve" smooth="yes"/>
      <point x="736.8313253012049" y="43.72289156626506" type="line"/>
      <point x="765.8915662650602" y="43.72289156626506" type="line"/>
      <point x="648.301204819277" y="677.4457831325302" type="line" smooth="yes"/>
      <point x="643.3855421686748" y="701.710843373494"/>
      <point x="634.0963855421687" y="711.4578313253012"/>
      <point x="617.7469879518072" y="711.4578313253012" type="curve" smooth="yes"/>
      <point x="601.1686746987953" y="711.4578313253012"/>
      <point x="590.1927710843373" y="703.3975903614457"/>
      <point x="580.9036144578313" y="685.0481927710844" type="curve" smooth="yes"/>
      <point x="256.7831325301205" y="43.72289156626506" type="line"/>
      <point x="289.8433734939759" y="43.72289156626506" type="line"/>
      <point x="172.4819277108434" y="681.7590361445782" type="line" smooth="yes"/>
      <point x="168.56626506024097" y="703.2530120481928"/>
      <point x="157.59036144578315" y="711.4578313253012"/>
      <point x="142.32530120481928" y="711.4578313253012" type="curve" smooth="yes"/>
      <point x="120.68674698795182" y="711.4578313253012"/>
      <point x="109.02409638554217" y="696.6506024096385"/>
      <point x="113.39759036144578" y="673.0120481927711" type="curve" smooth="yes"/>
      <point x="235.10843373493972" y="26.554216867469883" type="line" smooth="yes"/>
      <point x="239.2530120481928" y="5.060240963855422"/>
      <point x="249.7710843373494" y="-6.457831325301205"/>
    </contour>
  </outline>
</glyph>
<glyph name="X" format="2">
  <advance width="640.3855421686746"/>
  <unicode hex="0058"/>
  <anchor x="282.3493975903615" y="0.0" name="bottom"/>
  <anchor x="394.12048192771084" y="705.0" name="top"/>
  <outline>
    <contour>
      <point x="31.530120481927714" y="-6.457831325301205" type="curve" smooth="yes"/>
      <point x="45.87951807228915" y="-6.457831325301205"/>
      <point x="54.62650602409638" y="-1.0843373493975903"/>
      <point x="65.74698795180723" y="11.951807228915662" type="curve" smooth="yes"/>
      <point x="348.34939759036143" y="331.0120481927711" type="line"/>
      <point x="325.68674698795184" y="331.0120481927711" type="line"/>
      <point x="507.3855421686747" y="16.867469879518072" type="line" smooth="yes"/>
      <point x="516.8192771084337" y="0.9156626506024097"/>
      <point x="523.1084337349397" y="-6.457831325301205"/>
      <point x="539.4578313253012" y="-6.457831325301205" type="curve" smooth="yes"/>
      <point x="564.0120481927711" y="-6.457831325301205"/>
      <point x="576.3614457831325" y="14.86746987951807"/>
      <point x="561.6987951807229" y="39.81927710843373" type="curve" smooth="yes"/>
      <point x="366.81927710843377" y="374.89156626506025" type="line"/>
      <point x="366.81927710843377" y="346.7349397590362" type="line"/>
      <point x="649.1807228915662" y="665.1807228915662" type="line" smooth="yes"/>
      <point x="668.9879518072289" y="687.6746987951808"/>
      <point x="654.0120481927711" y="711.4578313253012"/>
      <point x="631.7710843373494" y="711.4578313253012" type="curve" smooth="yes"/>
      <point x="617.4216867469879" y="711.4578313253012"/>
      <point x="607.9036144578314" y="705.8554216867469"/>
      <point x="596.7831325301205" y="693.0481927710844" type="curve" smooth="yes"/>
      <point x="336.20481927710847" y="395.4698795180723" type="line"/>
      <point x="350.7831325301205" y="395.4698795180723" type="line"/>
      <point x="182.93975903614458" y="688.132530120482" type="line" smooth="yes"/>
      <point x="173.50602409638554" y="704.0843373493975"/>
      <point x="167.2168674698795" y="711.4578313253012"/>
      <point x="151.09638554216866" y="711.4578313253012" type="curve" smooth="yes"/>
      <point x="126.31325301204821" y="711.4578313253012"/>
      <point x="114.42168674698794" y="690.5903614457832"/>
      <point x="129.0843373493976" y="665.4096385542168" type="curve" smooth="yes"/>
      <point x="311.10843373493975" y="351.27710843373495" type="line"/>
      <point x="311.10843373493975" y="372.12048192771084" type="line"/>
      <point x="14.807228915662652" y="40.27710843373494" type="line" smooth="yes"/>
      <point x="-5.2289156626506035" y="17.55421686746988"/>
      <point x="9.289156626506022" y="-6.457831325301205"/>
    </contour>
  </outline>
</glyph>
<glyph name="Y" format="2">
  <advance width="586.3855421686746"/>
  <unicode hex="0059"/>
  <anchor x="253.80722891566268" y="0.0" name="bottom"/>
  <anchor x="359.43373493975906" y="705.0" name="top"/>
  <anchor x="89.7710843373494" y="705.0" name="topleft"/>
  <outline>
    <contour>
      <point x="253.57831325301208" y="-6.457831325301205" type="curve" smooth="yes"/>
      <point x="273.2168674698795" y="-6.457831325301205"/>
      <point x="285.10843373493975" y="2.975903614457831"/>
      <point x="288.2530120481928" y="23.6144578313253" type="curve" smooth="yes"/>
      <point x="342.65060240963857" y="366.0843373493976" type="line"/>
      <point x="320.3855421686747" y="318.3855421686747" type="line"/>
      <point x="630.8915662650602" y="665.1807228915662" type="line" smooth="yes"/>
      <point x="651.4698795180723" y="687.9036144578313"/>
      <point x="637.1807228915662" y="711.4578313253012"/>
      <point x="614.9397590361447" y="711.4578313253012" type="curve" smooth="yes"/>
      <point x="600.5903614457831" y="711.4578313253012"/>
      <point x="592.0722891566265" y="706.0843373493975"/>
      <point x="580.722891566265" y="693.0481927710844" type="curve" smooth="yes"/>
      <point x="300.3493975903615" y="379.2168674698795" type="line"/>
      <point x="319.0963855421687" y="379.2168674698795" type="line"/>
      <point x="142.6867469879518" y="688.132530120482" type="line" smooth="yes"/>
      <point x="133.48192771084337" y="704.0843373493975"/>
      <point x="126.50602409638554" y="711.4578313253012"/>
      <point x="110.3855421686747" y="711.4578313253012" type="curve" smooth="yes"/>
      <point x="85.37349397590361" y="711.4578313253012"/>
      <point x="74.71084337349397" y="690.5903614457832"/>
      <point x="89.14457831325302" y="665.1807228915662" type="curve" smooth="yes"/>
      <point x="287.2530120481928" y="318.3855421686747" type="line"/>
      <point x="280.96385542168673" y="366.0843373493976" type="line"/>
      <point x="227.79518072289156" y="29.216867469879517" type="line" smooth="yes"/>
      <point x="224.65060240963854" y="6.8915662650602405"/>
      <point x="233.3975903614458" y="-6.457831325301205"/>
    </contour>
  </outline>
</glyph>
<glyph name="Z" format="2">
  <advance width="581.8674698795181"/>
  <unicode hex="005A"/>
  <anchor x="275.9759036144578" y="0.0" name="bottom"/>
  <anchor x="366.51807228915663" y="705.0" name="top"/>
  <outline>
    <contour>
      <point x="42.01204819277108" y="0.0" type="curve" smooth="yes"/>
      <point x="499.7710843373494" y="0.0" type="line" smooth="yes"/>
      <point x="517.722891566265" y="0.0"/>
      <point x="532.1566265060242" y="9.891566265060241"/>
      <point x="532.1566265060242" y="33.1566265060241" type="curve" smooth="yes"/>
      <point x="532.1566265060242" y="47.27710843373494"/>
      <point x="521.1807228915662" y="54.566265060240966"/>
      <point x="502.9156626506024" y="54.566265060240966" type="curve" smooth="yes"/>
      <point x="75.6024096385542" y="54.566265060240966" type="line"/>
      <point x="76.28915662650601" y="27.674698795180724" type="line"/>
      <point x="599.3734939759036" y="644.9156626506024" type="line" smooth="yes"/>
      <point x="625.9277108433735" y="675.3855421686748"/>
      <point x="619.0963855421687" y="705.0"/>
      <point x="585.2530120481928" y="705.0" type="curve" smooth="yes"/>
      <point x="143.86746987951807" y="705.0" type="line" smooth="yes"/>
      <point x="126.45783132530121" y="705.0"/>
      <point x="111.48192771084338" y="695.3373493975904"/>
      <point x="111.48192771084338" y="672.8433734939758" type="curve" smooth="yes"/>
      <point x="111.48192771084338" y="658.722891566265"/>
      <point x="121.45783132530121" y="650.433734939759"/>
      <point x="139.72289156626505" y="650.433734939759" type="curve" smooth="yes"/>
      <point x="552.0361445783132" y="650.433734939759" type="line"/>
      <point x="551.578313253012" y="677.5542168674699" type="line"/>
      <point x="29.493975903614455" y="60.54216867469879" type="line" smooth="yes"/>
      <point x="3.024096385542166" y="30.156626506024097"/>
      <point x="13.999999999999998" y="0.0"/>
    </contour>
  </outline>
</glyph>
<glyph name="bracketleft" format="2">
  <advance width="297.71084337349396"/>
  <unicode hex="005B"/>
  <outline>
    <contour>
      <point x="83.69879518072288" y="-180.0" type="curve" smooth="yes"/>
      <point x="204.92771084337352" y="-180.0" type="line" smooth="yes"/>
      <point x="225.50602409638554" y="-180.0"/>
      <point x="235.48192771084337" y="-168.02409638554218"/>
      <point x="235.48192771084337" y="-151.75903614457832" type="curve" smooth="yes"/>
      <point x="235.48192771084337" y="-139.78313253012047"/>
      <point x="230.65060240963857" y="-129.95180722891567"/>
      <point x="210.98795180722894" y="-129.95180722891567" type="curve" smooth="yes"/>
      <point x="112.6867469879518" y="-129.95180722891567" type="line"/>
      <point x="236.56626506024097" y="654.9518072289156" type="line"/>
      <point x="336.86746987951807" y="654.9518072289156" type="line" smooth="yes"/>
      <point x="355.67469879518075" y="654.9518072289156"/>
      <point x="367.4216867469879" y="662.7831325301205"/>
      <point x="367.4216867469879" y="681.277108433735" type="curve" smooth="yes"/>
      <point x="367.4216867469879" y="696.710843373494"/>
      <point x="354.5903614457831" y="705.0"/>
      <point x="333.7831325301205" y="705.0" type="curve" smooth="yes"/>
      <point x="210.26506024096386" y="705.0" type="line" smooth="yes"/>
      <point x="194.37349397590359" y="705.0"/>
      <point x="182.16867469879517" y="693.4819277108434"/>
      <point x="179.710843373494" y="678.5903614457831" type="curve" smooth="yes"/>
      <point x="50.2289156626506" y="-140.15662650602408" type="line" smooth="yes"/>
      <point x="46.31325301204819" y="-161.87951807228916"/>
      <point x="61.97590361445783" y="-180.0"/>
    </contour>
  </outline>
</glyph>
<glyph name="backslash" format="2">
  <advance width="269.04819277108436"/>
  <unicode hex="005C"/>
  <outline>
    <contour>
      <point x="186.3132530120482" y="-35.795180722891565" type="line" smooth="yes"/>
      <point x="192.6867469879518" y="-73.49397590361447"/>
      <point x="243.96385542168676" y="-64.97590361445783"/>
      <point x="237.59036144578312" y="-28.734939759036145" type="curve" smooth="yes"/>
      <point x="113.73493975903614" y="724.7951807228916" type="line" smooth="yes"/>
      <point x="107.36144578313252" y="763.2650602409639"/>
      <point x="58.084337349397586" y="750.2048192771084"/>
      <point x="63.45783132530121" y="716.7349397590361" type="curve" smooth="yes"/>
    </contour>
  </outline>
</glyph>
<glyph name="bracketright" format="2">
  <advance width="297.71084337349396"/>
  <unicode hex="005D"/>
  <outline>
    <contour>
      <point x="-30.072289156626503" y="-180.0" type="curve" smooth="yes"/>
      <point x="93.44578313253014" y="-180.0" type="line" smooth="yes"/>
      <point x="109.33734939759036" y="-180.0"/>
      <point x="121.5421686746988" y="-168.4819277108434"/>
      <point x="124.00000000000001" y="-153.59036144578312" type="curve" smooth="yes"/>
      <point x="253.4819277108434" y="665.156626506024" type="line" smooth="yes"/>
      <point x="257.3975903614458" y="686.8795180722892"/>
      <point x="241.73493975903614" y="705.0"/>
      <point x="220.0120481927711" y="705.0" type="curve" smooth="yes"/>
      <point x="98.78313253012048" y="705.0" type="line" smooth="yes"/>
      <point x="78.20481927710843" y="705.0"/>
      <point x="68.2289156626506" y="693.0240963855422"/>
      <point x="68.2289156626506" y="676.7590361445783" type="curve" smooth="yes"/>
      <point x="68.2289156626506" y="664.7831325301205"/>
      <point x="73.06024096385542" y="654.9518072289156"/>
      <point x="92.72289156626506" y="654.9518072289156" type="curve" smooth="yes"/>
      <point x="191.02409638554215" y="654.9518072289156" type="line"/>
      <point x="67.144578313253" y="-129.95180722891567" type="line"/>
      <point x="-33.1566265060241" y="-129.95180722891567" type="line" smooth="yes"/>
      <point x="-51.96385542168675" y="-129.95180722891567"/>
      <point x="-63.71084337349398" y="-137.78313253012047"/>
      <point x="-63.71084337349398" y="-156.27710843373492" type="curve" smooth="yes"/>
      <point x="-63.71084337349398" y="-171.710843373494"/>
      <point x="-50.87951807228916" y="-180.0"/>
    </contour>
  </outline>
</glyph>
<glyph name="asciicircum" format="2">
  <advance width="600.0"/>
  <unicode hex="005E"/>
  <outline>
    <contour>
      <point x="69.09638554216868" y="133.5421686746988" type="curve" smooth="yes"/>
      <point x="82.67469879518072" y="133.5421686746988"/>
      <point x="91.59036144578313" y="140.06024096385542"/>
      <point x="98.73493975903614" y="152.12048192771084" type="curve" smooth="yes"/>
      <point x="374.34939759036143" y="596.9397590361446" type="line"/>
      <point x="343.421686746988" y="596.9397590361446" type="line"/>
      <point x="477.86746987951807" y="157.03614457831324" type="line" smooth="yes"/>
      <point x="482.3253012048193" y="142.97590361445782"/>
      <point x="488.0120481927711" y="133.5421686746988"/>
      <point x="503.8192771084337" y="133.5421686746988" type="curve" smooth="yes"/>
      <point x="522.1686746987951" y="133.5421686746988"/>
      <point x="532.4578313253012" y="146.5180722891566"/>
      <point x="525.5421686746987" y="169.0963855421687" type="curve" smooth="yes"/>
      <point x="392.0120481927711" y="606.0481927710844" type="line" smooth="yes"/>
      <point x="386.86746987951807" y="624.6265060240963"/>
      <point x="376.34939759036143" y="633.6867469879518"/>
      <point x="362.0" y="633.6867469879518" type="curve" smooth="yes"/>
      <point x="346.421686746988" y="633.6867469879518"/>
      <point x="336.67469879518075" y="628.8554216867469"/>
      <point x="326.6144578313253" y="612.1927710843373" type="curve" smooth="yes"/>
      <point x="54.06024096385542" y="172.95180722891567" type="line" smooth="yes"/>
      <point x="40.45783132530121" y="150.97590361445785"/>
      <point x="47.28915662650602" y="133.5421686746988"/>
    </contour>
  </outline>
</glyph>
<glyph name="underscore" format="2">
  <advance width="500.0"/>
  <unicode hex="005F"/>
  <outline>
    <contour>
      <point x="-3.1084337349397613" y="-42.614457831325296" type="curve" smooth="yes"/>
      <point x="417.8192771084337" y="-42.614457831325296" type="line" smooth="yes"/>
      <point x="432.0240963855422" y="-42.614457831325296"/>
      <point x="444.54216867469876" y="-33.46987951807228"/>
      <point x="444.54216867469876" y="-18.891566265060238" type="curve" smooth="yes"/>
      <point x="444.54216867469876" y="-7.6024096385542155"/>
      <point x="436.93975903614455" y="0.0"/>
      <point x="419.50602409638554" y="0.0" type="curve" smooth="yes"/>
      <point x="-1.6506024096385563" y="0.0" type="line" smooth="yes"/>
      <point x="-15.855421686746988" y="0.0"/>
      <point x="-28.373493975903617" y="-8.14457831325301"/>
      <point x="-28.373493975903617" y="-24.493975903614455" type="curve" smooth="yes"/>
      <point x="-28.373493975903617" y="-36.01204819277108"/>
      <point x="-20.7710843373494" y="-42.614457831325296"/>
    </contour>
  </outline>
</glyph>
<glyph name="a" format="2">
  <advance width="521.5542168674699"/>
  <unicode hex="0061"/>
  <anchor x="231.66265060240963" y="-0.2289156626506024" name="bottom"/>
  <anchor x="396.34939759036143" y="0.0" name="ogonek"/>
  <anchor x="302.289156626506" y="484.0" name="top"/>
  <outline>
    <contour>
      <point x="202.25301204819277" y="-8.457831325301205" type="curve" smooth="yes"/>
      <point x="273.33734939759034" y="-8.457831325301205"/>
      <point x="347.5903614457831" y="30.397590361445786"/>
      <point x="374.27710843373495" y="113.25301204819277" type="curve"/>
      <point x="364.96385542168673" y="117.83132530120483" type="line"/>
      <point x="351.10843373493975" y="28.6144578313253" type="line" smooth="yes"/>
      <point x="347.96385542168673" y="6.518072289156626"/>
      <point x="357.16867469879514" y="-6.457831325301205"/>
      <point x="375.43373493975906" y="-6.457831325301205" type="curve" smooth="yes"/>
      <point x="394.1566265060241" y="-6.457831325301205"/>
      <point x="405.8192771084337" y="3.7469879518072284"/>
      <point x="408.73493975903614" y="23.927710843373493" type="curve" smooth="yes"/>
      <point x="452.2168674698795" y="296.27710843373495" type="line" smooth="yes"/>
      <point x="471.4457831325301" y="417.87951807228916"/>
      <point x="418.9879518072289" y="493.6024096385542"/>
      <point x="292.83132530120486" y="493.6024096385542" type="curve" smooth="yes"/>
      <point x="234.97590361445782" y="493.6024096385542"/>
      <point x="174.289156626506" y="480.289156626506"/>
      <point x="126.00000000000001" y="451.43373493975906" type="curve" smooth="yes"/>
      <point x="85.92771084337349" y="429.22891566265065"/>
      <point x="112.27710843373494" y="383.69879518072287"/>
      <point x="148.06024096385542" y="405.53012048192767" type="curve" smooth="yes"/>
      <point x="191.289156626506" y="433.2409638554217"/>
      <point x="236.6867469879518" y="442.0120481927711"/>
      <point x="287.6265060240964" y="442.0120481927711" type="curve" smooth="yes"/>
      <point x="376.27710843373495" y="442.0120481927711"/>
      <point x="409.13253012048193" y="396.9879518072289"/>
      <point x="395.27710843373495" y="313.39759036144574" type="curve" smooth="yes"/>
      <point x="375.50602409638554" y="190.5421686746988" type="line" smooth="yes"/>
      <point x="360.65060240963857" y="95.86746987951808"/>
      <point x="289.60240963855426" y="40.53012048192771"/>
      <point x="213.49397590361446" y="40.53012048192771" type="curve" smooth="yes"/>
      <point x="158.46987951807228" y="40.53012048192771"/>
      <point x="108.59036144578313" y="74.2409638554217"/>
      <point x="108.59036144578313" y="138.97590361445782" type="curve" smooth="yes"/>
      <point x="108.59036144578313" y="209.71084337349396"/>
      <point x="162.6987951807229" y="233.42168674698794"/>
      <point x="333.13253012048193" y="233.42168674698794" type="curve" smooth="yes"/>
      <point x="393.04819277108436" y="233.42168674698794" type="line"/>
      <point x="400.1927710843374" y="278.43373493975906" type="line"/>
      <point x="319.4216867469879" y="278.43373493975906" type="line" smooth="yes"/>
      <point x="127.10843373493975" y="278.43373493975906"/>
      <point x="44.42168674698795" y="237.06024096385542"/>
      <point x="44.42168674698795" y="135.6024096385542" type="curve" smooth="yes"/>
      <point x="44.42168674698795" y="50.06024096385542"/>
      <point x="119.19277108433734" y="-8.457831325301205"/>
    </contour>
  </outline>
</glyph>
<glyph name="b" format="2">
  <advance width="575.3253012048193"/>
  <unicode hex="0062"/>
  <anchor x="270.31325301204816" y="0.0" name="bottom"/>
  <anchor x="375.9759036144578" y="705.0" name="top"/>
  <outline>
    <contour>
      <point x="284.8433734939759" y="-8.457831325301205" type="curve" smooth="yes"/>
      <point x="441.69879518072287" y="-8.457831325301205"/>
      <point x="527.7590361445783" y="128.1686746987952"/>
      <point x="527.7590361445783" y="286.4578313253012" type="curve" smooth="yes"/>
      <point x="527.7590361445783" y="414.144578313253"/>
      <point x="452.4457831325301" y="493.6024096385542"/>
      <point x="338.90361445783134" y="493.6024096385542" type="curve" smooth="yes"/>
      <point x="251.87951807228916" y="493.6024096385542"/>
      <point x="186.02409638554218" y="448.66265060240966"/>
      <point x="151.56626506024097" y="376.95180722891564" type="curve"/>
      <point x="163.10843373493975" y="376.95180722891564" type="line"/>
      <point x="210.59036144578312" y="675.4698795180723" type="line" smooth="yes"/>
      <point x="214.50602409638554" y="698.3373493975904"/>
      <point x="204.5301204819277" y="711.4578313253012"/>
      <point x="185.57831325301206" y="711.4578313253012" type="curve" smooth="yes"/>
      <point x="165.16867469879517" y="711.4578313253012"/>
      <point x="153.73493975903614" y="701.0240963855422"/>
      <point x="150.59036144578312" y="680.843373493976" type="curve" smooth="yes"/>
      <point x="47.56626506024096" y="29.53012048192771" type="line" smooth="yes"/>
      <point x="43.650602409638545" y="6.662650602409638"/>
      <point x="53.855421686746986" y="-6.457831325301205"/>
      <point x="72.80722891566265" y="-6.457831325301205" type="curve" smooth="yes"/>
      <point x="92.98795180722892" y="-6.457831325301205"/>
      <point x="103.96385542168676" y="3.975903614457831"/>
      <point x="106.87951807228917" y="24.156626506024097" type="curve" smooth="yes"/>
      <point x="122.27710843373495" y="122.0" type="line"/>
      <point x="114.04819277108435" y="116.27710843373494" type="line"/>
      <point x="137.04819277108433" y="31.397590361445783"/>
      <point x="205.2168674698795" y="-8.457831325301205"/>
    </contour>
    <contour>
      <point x="281.12048192771084" y="43.36144578313253" type="curve" smooth="yes"/>
      <point x="191.75903614457832" y="43.36144578313253"/>
      <point x="138.65060240963857" y="97.1566265060241"/>
      <point x="138.65060240963857" y="200.06024096385542" type="curve" smooth="yes"/>
      <point x="138.65060240963857" y="332.65060240963857"/>
      <point x="203.75903614457832" y="441.7831325301205"/>
      <point x="323.289156626506" y="441.7831325301205" type="curve" smooth="yes"/>
      <point x="412.65060240963857" y="441.7831325301205"/>
      <point x="465.7590361445783" y="387.9879518072289"/>
      <point x="465.7590361445783" y="285.0843373493976" type="curve" smooth="yes"/>
      <point x="465.7590361445783" y="152.49397590361446"/>
      <point x="400.65060240963857" y="43.36144578313253"/>
    </contour>
  </outline>
</glyph>
<glyph name="c" format="2">
  <advance width="458.89156626506025"/>
  <unicode hex="0063"/>
  <anchor x="237.28915662650604" y="0.0" name="bottom"/>
  <anchor x="299.9759036144578" y="484.0" name="top"/>
  <outline>
    <contour>
      <point x="253.03614457831327" y="-8.457831325301205" type="curve" smooth="yes"/>
      <point x="300.89156626506025" y="-8.457831325301205"/>
      <point x="356.578313253012" y="7.626506024096386"/>
      <point x="393.89156626506025" y="36.33734939759036" type="curve" smooth="yes"/>
      <point x="423.5903614457831" y="57.457831325301214"/>
      <point x="397.86746987951807" y="100.3012048192771"/>
      <point x="367.83132530120486" y="79.92771084337349" type="curve" smooth="yes"/>
      <point x="332.7469879518072" y="54.445783132530124"/>
      <point x="292.95180722891564" y="43.81927710843374"/>
      <point x="258.6987951807229" y="43.81927710843374" type="curve" smooth="yes"/>
      <point x="153.73493975903614" y="43.81927710843374"/>
      <point x="111.02409638554217" y="107.1566265060241"/>
      <point x="111.02409638554217" y="204.74698795180723" type="curve" smooth="yes"/>
      <point x="111.02409638554217" y="320.65060240963857"/>
      <point x="165.59036144578315" y="441.32530120481925"/>
      <point x="301.1807228915663" y="441.32530120481925" type="curve" smooth="yes"/>
      <point x="346.51807228915663" y="441.32530120481925"/>
      <point x="384.0" y="429.6987951807229"/>
      <point x="418.855421686747" y="402.67469879518075" type="curve" smooth="yes"/>
      <point x="450.26506024096386" y="379.8433734939759"/>
      <point x="475.9879518072289" y="426.06024096385545"/>
      <point x="436.9759036144578" y="452.578313253012" type="curve" smooth="yes"/>
      <point x="403.28915662650604" y="476.9759036144578"/>
      <point x="351.9759036144579" y="493.6024096385542"/>
      <point x="300.89156626506025" y="493.6024096385542" type="curve" smooth="yes"/>
      <point x="124.0" y="493.6024096385542"/>
      <point x="48.566265060240966" y="346.43373493975906"/>
      <point x="48.566265060240966" y="204.5180722891566" type="curve" smooth="yes"/>
      <point x="48.566265060240966" y="78.4578313253012"/>
      <point x="114.0" y="-8.457831325301205"/>
    </contour>
  </outline>
</glyph>
<glyph name="d" format="2">
  <advance width="575.3253012048193"/>
  <unicode hex="0064"/>
  <anchor x="254.12048192771087" y="0.0" name="bottom"/>
  <anchor x="290.83132530120486" y="245.2289156626506" name="center"/>
  <anchor x="469.51807228915663" y="581.8313253012049" name="stroke"/>
  <anchor x="334.3253012048193" y="509.4096385542169" name="top"/>
  <anchor x="615.843373493976" y="705.0" name="topright"/>
  <outline>
    <contour>
      <point x="236.19277108433732" y="-8.457831325301205" type="curve" smooth="yes"/>
      <point x="323.21686746987956" y="-8.457831325301205"/>
      <point x="389.0722891566265" y="36.71084337349398"/>
      <point x="423.5301204819277" y="108.19277108433735" type="curve"/>
      <point x="414.81927710843377" y="115.06024096385542" type="line"/>
      <point x="401.1927710843374" y="29.987951807228917" type="line" smooth="yes"/>
      <point x="397.04819277108436" y="7.120481927710843"/>
      <point x="406.33734939759034" y="-6.457831325301205"/>
      <point x="425.28915662650604" y="-6.457831325301205" type="curve" smooth="yes"/>
      <point x="445.4698795180723" y="-6.457831325301205"/>
      <point x="457.13253012048193" y="3.975903614457831"/>
      <point x="460.27710843373495" y="24.3855421686747" type="curve" smooth="yes"/>
      <point x="563.301204819277" y="675.9277108433736" type="line" smooth="yes"/>
      <point x="567.2168674698795" y="698.7951807228916"/>
      <point x="557.4698795180723" y="711.4578313253012"/>
      <point x="538.5180722891566" y="711.4578313253012" type="curve" smooth="yes"/>
      <point x="518.3373493975904" y="711.4578313253012"/>
      <point x="506.44578313253015" y="701.9397590361446"/>
      <point x="503.5301204819277" y="681.7590361445783" type="curve" smooth="yes"/>
      <point x="454.04819277108436" y="369.09638554216866" type="line"/>
      <point x="461.04819277108436" y="368.86746987951807" type="line"/>
      <point x="438.04819277108436" y="453.7469879518072"/>
      <point x="370.10843373493975" y="493.6024096385542"/>
      <point x="290.48192771084337" y="493.6024096385542" type="curve" smooth="yes"/>
      <point x="133.6265060240964" y="493.6024096385542"/>
      <point x="47.566265060240966" y="357.2048192771084"/>
      <point x="47.566265060240966" y="198.6867469879518" type="curve" smooth="yes"/>
      <point x="47.566265060240966" y="71.22891566265059"/>
      <point x="122.87951807228916" y="-8.457831325301205"/>
    </contour>
    <contour>
      <point x="252.03614457831324" y="43.36144578313253" type="curve" smooth="yes"/>
      <point x="162.67469879518072" y="43.36144578313253"/>
      <point x="109.56626506024097" y="97.1566265060241"/>
      <point x="109.56626506024097" y="200.06024096385542" type="curve" smooth="yes"/>
      <point x="109.56626506024097" y="332.65060240963857"/>
      <point x="174.67469879518072" y="441.7831325301205"/>
      <point x="294.2048192771084" y="441.7831325301205" type="curve" smooth="yes"/>
      <point x="383.566265060241" y="441.7831325301205"/>
      <point x="436.67469879518075" y="387.9879518072289"/>
      <point x="436.67469879518075" y="285.0843373493976" type="curve" smooth="yes"/>
      <point x="436.67469879518075" y="152.72289156626505"/>
      <point x="371.566265060241" y="43.36144578313253"/>
    </contour>
  </outline>
</glyph>
<glyph name="f" format="2">
  <advance width="319.27710843373495"/>
  <unicode hex="0066"/>
  <anchor x="95.78313253012048" y="0.0" name="bottom"/>
  <anchor x="207.55421686746988" y="705.0" name="top"/>
  <outline>
    <contour>
      <point x="94.78313253012048" y="-6.457831325301205" type="curve" smooth="yes"/>
      <point x="115.19277108433735" y="-6.457831325301205"/>
      <point x="126.855421686747" y="3.7469879518072284"/>
      <point x="130.0" y="23.927710843373493" type="curve" smooth="yes"/>
      <point x="195.56626506024097" y="435.86746987951807" type="line"/>
      <point x="312.1807228915663" y="435.86746987951807" type="line" smooth="yes"/>
      <point x="331.7590361445783" y="435.86746987951807"/>
      <point x="343.73493975903614" y="446.07228915662654"/>
      <point x="343.73493975903614" y="466.65060240963857" type="curve" smooth="yes"/>
      <point x="343.73493975903614" y="479.0843373493976"/>
      <point x="335.9879518072289" y="485.144578313253"/>
      <point x="318.6385542168675" y="485.144578313253" type="curve" smooth="yes"/>
      <point x="195.48192771084337" y="485.144578313253" type="line"/>
      <point x="201.3975903614458" y="477.45783132530124" type="line"/>
      <point x="208.93975903614458" y="525.0240963855422" type="line" smooth="yes"/>
      <point x="222.02409638554218" y="607.3012048192771"/>
      <point x="266.0481927710843" y="649.8674698795181"/>
      <point x="348.3855421686747" y="654.867469879518" type="curve" smooth="yes"/>
      <point x="379.2409638554217" y="656.867469879518" type="line" smooth="yes"/>
      <point x="409.1927710843374" y="659.3253012048192"/>
      <point x="411.0240963855422" y="709.6867469879518"/>
      <point x="373.55421686746985" y="707.2289156626506" type="curve" smooth="yes"/>
      <point x="343.86746987951807" y="705.2289156626506" type="line" smooth="yes"/>
      <point x="231.85542168674698" y="697.7710843373494"/>
      <point x="165.1686746987952" y="634.7108433734941"/>
      <point x="148.710843373494" y="528.4216867469879" type="curve" smooth="yes"/>
      <point x="140.3975903614458" y="474.4578313253012" type="line"/>
      <point x="151.77108433734938" y="485.144578313253" type="line"/>
      <point x="73.57831325301206" y="485.144578313253" type="line" smooth="yes"/>
      <point x="54.0" y="485.144578313253"/>
      <point x="42.024096385542165" y="474.93975903614455"/>
      <point x="42.024096385542165" y="455.3614457831325" type="curve" smooth="yes"/>
      <point x="42.024096385542165" y="442.9277108433735"/>
      <point x="50.5421686746988" y="435.86746987951807"/>
      <point x="67.12048192771086" y="435.86746987951807" type="curve" smooth="yes"/>
      <point x="134.56626506024097" y="435.86746987951807" type="line"/>
      <point x="70.0" y="29.53012048192771" type="line" smooth="yes"/>
      <point x="66.08433734939759" y="6.662650602409638"/>
      <point x="75.83132530120481" y="-6.457831325301205"/>
    </contour>
  </outline>
</glyph>
<glyph name="g" format="2">
  <advance width="577.7831325301205"/>
  <unicode hex="0067"/>
  <anchor x="328.06024096385545" y="484.0" name="top"/>
  <outline>
    <contour>
      <point x="244.43373493975906" y="-188.4578313253012" type="curve" smooth="yes"/>
      <point x="367.6144578313253" y="-188.4578313253012"/>
      <point x="438.04819277108436" y="-124.79518072289156"/>
      <point x="459.27710843373495" y="7.493975903614459" type="curve" smooth="yes"/>
      <point x="529.9879518072288" y="455.6144578313253" type="line" smooth="yes"/>
      <point x="533.9036144578313" y="478.48192771084337"/>
      <point x="524.3855421686748" y="491.6024096385542"/>
      <point x="505.66265060240966" y="491.6024096385542" type="curve" smooth="yes"/>
      <point x="485.710843373494" y="491.6024096385542"/>
      <point x="473.8192771084337" y="481.855421686747"/>
      <point x="470.9036144578313" y="461.6746987951807" type="curve" smooth="yes"/>
      <point x="455.27710843373495" y="362.4578313253012" type="line"/>
      <point x="464.1927710843373" y="368.86746987951807" type="line"/>
      <point x="441.1927710843373" y="453.7469879518072"/>
      <point x="373.0240963855422" y="493.6024096385542"/>
      <point x="292.16867469879514" y="493.6024096385542" type="curve" smooth="yes"/>
      <point x="134.5421686746988" y="493.6024096385542"/>
      <point x="47.795180722891565" y="356.7469879518072"/>
      <point x="47.795180722891565" y="209.144578313253" type="curve" smooth="yes"/>
      <point x="47.795180722891565" y="89.5421686746988"/>
      <point x="124.25301204819277" y="11.228915662650602"/>
      <point x="239.93975903614455" y="11.228915662650602" type="curve" smooth="yes"/>
      <point x="327.50602409638554" y="11.228915662650602"/>
      <point x="394.04819277108436" y="55.71084337349398"/>
      <point x="427.5903614457831" y="127.65060240963855" type="curve"/>
      <point x="419.5903614457831" y="128.65060240963857" type="line"/>
      <point x="399.73493975903614" y="4.349397590361445" type="line" smooth="yes"/>
      <point x="384.4216867469879" y="-91.8433734939759"/>
      <point x="327.2530120481928" y="-136.63855421686748"/>
      <point x="238.7710843373494" y="-136.63855421686748" type="curve" smooth="yes"/>
      <point x="174.43373493975903" y="-136.63855421686748"/>
      <point x="128.51807228915663" y="-117.78313253012048"/>
      <point x="79.34939759036145" y="-83.21686746987952" type="curve" smooth="yes"/>
      <point x="47.87951807228915" y="-62.783132530120476"/>
      <point x="21.30120481927711" y="-108.3132530120482"/>
      <point x="48.99999999999999" y="-126.89156626506025" type="curve" smooth="yes"/>
      <point x="102.0" y="-164.06024096385542"/>
      <point x="167.51807228915663" y="-188.4578313253012"/>
    </contour>
    <contour>
      <point x="253.49397590361443" y="63.04819277108434" type="curve" smooth="yes"/>
      <point x="162.67469879518072" y="63.04819277108434"/>
      <point x="109.79518072289157" y="116.61445783132531"/>
      <point x="109.79518072289157" y="210.74698795180723" type="curve" smooth="yes"/>
      <point x="109.79518072289157" y="332.6506024096385"/>
      <point x="174.90361445783134" y="441.7831325301205"/>
      <point x="295.6626506024096" y="441.7831325301205" type="curve" smooth="yes"/>
      <point x="386.48192771084337" y="441.7831325301205"/>
      <point x="439.5903614457831" y="387.9879518072289"/>
      <point x="439.5903614457831" y="295.0843373493976" type="curve" smooth="yes"/>
      <point x="439.5903614457831" y="172.18072289156626"/>
      <point x="374.2530120481928" y="63.04819277108434"/>
    </contour>
  </outline>
</glyph>
<glyph name="h" format="2">
  <advance width="560.3253012048193"/>
  <unicode hex="0068"/>
  <anchor x="248.97590361445785" y="0.0" name="bottom"/>
  <anchor x="280.89156626506025" y="245.6867469879518" name="center"/>
  <anchor x="243.66265060240963" y="352.7710843373494" name="dot"/>
  <anchor x="215.03614457831324" y="581.8313253012049" name="stroke"/>
  <anchor x="354.20481927710847" y="705.0" name="top"/>
  <anchor x="253.44578313253012" y="705.0" name="topright"/>
  <outline>
    <contour>
      <point x="71.80722891566265" y="-6.457831325301205" type="curve" smooth="yes"/>
      <point x="91.98795180722891" y="-6.457831325301205"/>
      <point x="104.65060240963855" y="3.975903614457831"/>
      <point x="107.56626506024095" y="24.156626506024097" type="curve" smooth="yes"/>
      <point x="145.19277108433735" y="263.77108433734935" type="line" smooth="yes"/>
      <point x="162.04819277108433" y="371.13253012048193"/>
      <point x="223.9277108433735" y="441.09638554216866"/>
      <point x="330.6867469879518" y="441.09638554216866" type="curve" smooth="yes"/>
      <point x="411.73493975903614" y="441.09638554216866"/>
      <point x="444.7590361445783" y="393.30120481927713"/>
      <point x="428.90361445783134" y="294.855421686747" type="curve" smooth="yes"/>
      <point x="386.73493975903614" y="29.53012048192771" type="line" smooth="yes"/>
      <point x="382.81927710843377" y="6.662650602409638"/>
      <point x="392.79518072289153" y="-6.457831325301205"/>
      <point x="411.7469879518072" y="-6.457831325301205" type="curve" smooth="yes"/>
      <point x="431.9277108433735" y="-6.457831325301205"/>
      <point x="444.5903614457831" y="3.975903614457831"/>
      <point x="447.50602409638554" y="24.156626506024097" type="curve" smooth="yes"/>
      <point x="489.90361445783134" y="294.54216867469876" type="line" smooth="yes"/>
      <point x="511.13253012048193" y="429.60240963855426"/>
      <point x="450.6746987951807" y="493.6024096385542"/>
      <point x="342.90361445783134" y="493.6024096385542" type="curve" smooth="yes"/>
      <point x="250.42168674698794" y="493.6024096385542"/>
      <point x="183.33734939759037" y="447.66265060240966"/>
      <point x="150.33734939759037" y="369.95180722891564" type="curve"/>
      <point x="161.33734939759034" y="369.95180722891564" type="line"/>
      <point x="209.81927710843374" y="675.6987951807229" type="line" smooth="yes"/>
      <point x="213.73493975903614" y="698.566265060241"/>
      <point x="203.75903614457832" y="711.4578313253012"/>
      <point x="184.80722891566265" y="711.4578313253012" type="curve" smooth="yes"/>
      <point x="164.6265060240964" y="711.4578313253012"/>
      <point x="152.73493975903614" y="701.0240963855422"/>
      <point x="149.81927710843374" y="680.843373493976" type="curve" smooth="yes"/>
      <point x="47.02409638554216" y="29.987951807228917" type="line" smooth="yes"/>
      <point x="43.10843373493975" y="7.120481927710843"/>
      <point x="52.855421686746986" y="-6.457831325301205"/>
    </contour>
  </outline>
</glyph>
<glyph name="i" format="2">
  <advance width="221.8433734939759"/>
  <unicode hex="0069"/>
  <anchor x="72.80722891566265" y="0.0" name="bottom"/>
  <anchor x="97.24096385542167" y="0.0" name="ogonek"/>
  <outline>
    <contour>
      <point x="71.57831325301204" y="-6.457831325301204" type="curve" smooth="yes"/>
      <point x="91.98795180722891" y="-6.457831325301204"/>
      <point x="103.42168674698794" y="3.7469879518072284"/>
      <point x="106.56626506024095" y="23.927710843373493" type="curve" smooth="yes"/>
      <point x="174.81927710843374" y="455.6144578313253" type="line" smooth="yes"/>
      <point x="178.73493975903614" y="478.48192771084337"/>
      <point x="168.9879518072289" y="491.60240963855426"/>
      <point x="150.03614457831324" y="491.60240963855426" type="curve" smooth="yes"/>
      <point x="129.6265060240964" y="491.60240963855426"/>
      <point x="118.19277108433734" y="481.3975903614458"/>
      <point x="115.04819277108433" y="461.21686746987956" type="curve" smooth="yes"/>
      <point x="46.79518072289156" y="29.53012048192771" type="line" smooth="yes"/>
      <point x="42.87951807228915" y="6.662650602409638"/>
      <point x="52.626506024096386" y="-6.457831325301204"/>
    </contour>
    <contour>
      <point x="170.66265060240963" y="609.8192771084338" type="curve" smooth="yes"/>
      <point x="201.3855421686747" y="609.8192771084338"/>
      <point x="220.36144578313252" y="626.8795180722892"/>
      <point x="221.73493975903614" y="657.2289156626506" type="curve" smooth="yes"/>
      <point x="222.87951807228916" y="680.2650602409639"/>
      <point x="208.90361445783134" y="693.2409638554217"/>
      <point x="183.95180722891567" y="693.2409638554217" type="curve" smooth="yes"/>
      <point x="153.2289156626506" y="693.2409638554217"/>
      <point x="134.02409638554218" y="676.1807228915662"/>
      <point x="132.87951807228916" y="645.8313253012047" type="curve" smooth="yes"/>
      <point x="131.96385542168676" y="622.7951807228916"/>
      <point x="145.71084337349396" y="609.8192771084338"/>
    </contour>
  </outline>
</glyph>
<glyph name="j" format="2">
  <advance width="225.0722891566265"/>
  <unicode hex="006A"/>
  <outline>
    <contour>
      <point x="-91.7590361445783" y="-191.0" type="curve" smooth="yes"/>
      <point x="18.397590361445776" y="-189.1686746987952"/>
      <point x="84.10843373493977" y="-135.4819277108434"/>
      <point x="102.79518072289157" y="-18.445783132530117" type="curve" smooth="yes"/>
      <point x="178.04819277108436" y="455.6144578313253" type="line" smooth="yes"/>
      <point x="181.96385542168676" y="478.48192771084337"/>
      <point x="171.9879518072289" y="491.6024096385542"/>
      <point x="153.03614457831327" y="491.6024096385542" type="curve" smooth="yes"/>
      <point x="132.85542168674698" y="491.6024096385542"/>
      <point x="121.42168674698794" y="481.3975903614458"/>
      <point x="118.27710843373494" y="461.2168674698795" type="curve" smooth="yes"/>
      <point x="42.10843373493976" y="-18.566265060240966" type="line" smooth="yes"/>
      <point x="28.25301204819277" y="-103.6987951807229"/>
      <point x="-19.855421686746986" y="-139.95180722891564"/>
      <point x="-94.67469879518072" y="-140.40963855421685" type="curve" smooth="yes"/>
      <point x="-128.4578313253012" y="-140.86746987951807"/>
      <point x="-128.4578313253012" y="-191.9156626506024"/>
    </contour>
    <contour>
      <point x="171.12048192771087" y="609.8192771084338" type="curve" smooth="yes"/>
      <point x="201.84337349397592" y="609.8192771084338"/>
      <point x="220.81927710843374" y="626.8795180722892"/>
      <point x="222.19277108433735" y="657.2289156626506" type="curve" smooth="yes"/>
      <point x="223.33734939759037" y="680.2650602409639"/>
      <point x="209.36144578313252" y="693.2409638554217"/>
      <point x="184.40963855421688" y="693.2409638554217" type="curve" smooth="yes"/>
      <point x="153.6867469879518" y="693.2409638554217"/>
      <point x="134.48192771084337" y="676.1807228915662"/>
      <point x="133.33734939759034" y="645.8313253012047" type="curve" smooth="yes"/>
      <point x="132.42168674698794" y="622.7951807228916"/>
      <point x="146.16867469879517" y="609.8192771084338"/>
    </contour>
  </outline>
</glyph>
<glyph name="k" format="2">
  <advance width="483.56626506024094"/>
  <unicode hex="006B"/>
  <anchor x="208.6144578313253" y="0.0" name="bottom"/>
  <anchor x="353.9759036144578" y="705.0" name="top"/>
  <outline>
    <contour>
      <point x="71.80722891566265" y="-6.457831325301205" type="curve" smooth="yes"/>
      <point x="92.21686746987952" y="-6.457831325301205"/>
      <point x="103.87951807228914" y="3.2891566265060237"/>
      <point x="106.79518072289156" y="23.46987951807229" type="curve" smooth="yes"/>
      <point x="139.96385542168673" y="233.7951807228916" type="line"/>
      <point x="141.96385542168673" y="233.7951807228916" type="line"/>
      <point x="356.73493975903614" y="16.638554216867472" type="line" smooth="yes"/>
      <point x="371.93975903614455" y="0.060240963855421575"/>
      <point x="380.5421686746988" y="-6.457831325301205"/>
      <point x="397.03614457831327" y="-6.457831325301205" type="curve" smooth="yes"/>
      <point x="420.13253012048193" y="-6.457831325301205"/>
      <point x="431.7951807228916" y="19.180722891566266"/>
      <point x="412.90361445783134" y="39.132530120481924" type="curve" smooth="yes"/>
      <point x="186.81927710843374" y="267.6626506024096" type="line"/>
      <point x="182.19277108433735" y="225.2289156626506" type="line"/>
      <point x="452.9879518072289" y="446.2409638554217" type="line" smooth="yes"/>
      <point x="475.566265060241" y="465.27710843373495"/>
      <point x="465.65060240963857" y="491.6024096385542"/>
      <point x="442.86746987951807" y="491.6024096385542" type="curve" smooth="yes"/>
      <point x="428.51807228915663" y="491.6024096385542"/>
      <point x="420.0" y="486.5421686746988"/>
      <point x="406.87951807228916" y="475.421686746988" type="curve" smooth="yes"/>
      <point x="147.10843373493975" y="264.8072289156627" type="line"/>
      <point x="145.10843373493975" y="264.8072289156627" type="line"/>
      <point x="209.81927710843374" y="675.2409638554217" type="line" smooth="yes"/>
      <point x="213.73493975903614" y="698.1084337349398"/>
      <point x="203.9879518072289" y="711.4578313253012"/>
      <point x="185.03614457831324" y="711.4578313253012" type="curve" smooth="yes"/>
      <point x="164.6265060240964" y="711.4578313253012"/>
      <point x="152.96385542168673" y="701.710843373494"/>
      <point x="150.04819277108433" y="681.5301204819277" type="curve" smooth="yes"/>
      <point x="47.02409638554216" y="29.30120481927711" type="line" smooth="yes"/>
      <point x="43.10843373493975" y="6.433734939759036"/>
      <point x="52.855421686746986" y="-6.457831325301205"/>
    </contour>
  </outline>
</glyph>
<glyph name="l" format="2">
  <advance width="285.0722891566265"/>
  <unicode hex="006C"/>
  <anchor x="145.97590361445785" y="0.0" name="bottom"/>
  <anchor x="135.26506024096386" y="357.0" name="center"/>
  <anchor x="279.6265060240964" y="352.7710843373494" name="dot"/>
  <anchor x="184.57831325301206" y="705.0" name="top"/>
  <anchor x="262.13253012048193" y="705.0" name="topright"/>
  <outline>
    <contour>
      <point x="181.57831325301206" y="-8.457831325301205" type="curve" smooth="yes"/>
      <point x="191.40963855421685" y="-8.457831325301205"/>
      <point x="207.78313253012047" y="-7.228915662650602"/>
      <point x="217.4698795180723" y="-4.771084337349397" type="curve" smooth="yes"/>
      <point x="234.07228915662648" y="-0.8554216867469882"/>
      <point x="245.36144578313252" y="9.66265060240964"/>
      <point x="245.36144578313252" y="29.3855421686747" type="curve" smooth="yes"/>
      <point x="245.36144578313252" y="44.59036144578313"/>
      <point x="240.2168674698795" y="48.734939759036145"/>
      <point x="231.8433734939759" y="48.734939759036145" type="curve" smooth="yes"/>
      <point x="226.15662650602408" y="48.734939759036145"/>
      <point x="215.8433734939759" y="44.96385542168675"/>
      <point x="196.21686746987953" y="44.96385542168675" type="curve" smooth="yes"/>
      <point x="137.56626506024097" y="44.96385542168675"/>
      <point x="114.48192771084337" y="74.81927710843374"/>
      <point x="126.56626506024095" y="150.78313253012047" type="curve" smooth="yes"/>
      <point x="209.81927710843374" y="675.4698795180723" type="line" smooth="yes"/>
      <point x="213.73493975903614" y="698.3373493975904"/>
      <point x="203.9879518072289" y="711.4578313253012"/>
      <point x="185.03614457831324" y="711.4578313253012" type="curve" smooth="yes"/>
      <point x="164.6265060240964" y="711.4578313253012"/>
      <point x="152.96385542168673" y="701.2530120481928"/>
      <point x="150.04819277108433" y="681.0722891566265" type="curve" smooth="yes"/>
      <point x="65.56626506024095" y="150.55421686746988" type="line" smooth="yes"/>
      <point x="48.87951807228915" y="45.51807228915663"/>
      <point x="92.16867469879519" y="-8.457831325301205"/>
    </contour>
  </outline>
</glyph>
<glyph name="m" format="2">
  <advance width="846.9277108433735"/>
  <unicode hex="006D"/>
  <anchor x="385.578313253012" y="0.0" name="bottom"/>
  <anchor x="462.34939759036143" y="484.0" name="top"/>
  <outline>
    <contour>
      <point x="73.57831325301204" y="-6.457831325301205" type="curve" smooth="yes"/>
      <point x="93.98795180722891" y="-6.457831325301205"/>
      <point x="106.65060240963855" y="3.5180722891566263"/>
      <point x="109.56626506024095" y="23.46987951807229" type="curve" smooth="yes"/>
      <point x="147.19277108433735" y="263.7710843373494" type="line" smooth="yes"/>
      <point x="164.27710843373492" y="374.67469879518075"/>
      <point x="225.46987951807228" y="441.09638554216866"/>
      <point x="313.8313253012048" y="441.09638554216866" type="curve" smooth="yes"/>
      <point x="388.87951807228916" y="441.09638554216866"/>
      <point x="417.5903614457831" y="394.30120481927713"/>
      <point x="402.73493975903614" y="299.3975903614458" type="curve" smooth="yes"/>
      <point x="359.56626506024094" y="29.072289156626507" type="line" smooth="yes"/>
      <point x="355.65060240963857" y="6.433734939759036"/>
      <point x="365.6265060240964" y="-6.457831325301205"/>
      <point x="384.8072289156626" y="-6.457831325301205" type="curve" smooth="yes"/>
      <point x="404.7590361445783" y="-6.457831325301205"/>
      <point x="417.4216867469879" y="3.7469879518072284"/>
      <point x="420.33734939759034" y="23.46987951807229" type="curve" smooth="yes"/>
      <point x="457.96385542168673" y="263.7710843373494" type="line" smooth="yes"/>
      <point x="475.0481927710843" y="374.67469879518075"/>
      <point x="536.0120481927711" y="441.09638554216866"/>
      <point x="624.3734939759036" y="441.09638554216866" type="curve" smooth="yes"/>
      <point x="699.4216867469879" y="441.09638554216866"/>
      <point x="728.1325301204819" y="394.07228915662654"/>
      <point x="713.277108433735" y="299.3975903614458" type="curve" smooth="yes"/>
      <point x="671.1084337349398" y="29.072289156626507" type="line" smooth="yes"/>
      <point x="667.9638554216867" y="6.433734939759036"/>
      <point x="677.1686746987951" y="-6.457831325301205"/>
      <point x="696.5783132530121" y="-6.457831325301205" type="curve" smooth="yes"/>
      <point x="716.5301204819277" y="-6.457831325301205"/>
      <point x="728.7349397590361" y="3.7469879518072284"/>
      <point x="731.6506024096385" y="23.46987951807229" type="curve" smooth="yes"/>
      <point x="774.277108433735" y="294.31325301204816" type="line" smooth="yes"/>
      <point x="795.5060240963855" y="430.144578313253"/>
      <point x="738.5903614457832" y="493.6024096385542"/>
      <point x="637.132530120482" y="493.6024096385542" type="curve" smooth="yes"/>
      <point x="548.9638554216867" y="493.6024096385542"/>
      <point x="484.4216867469879" y="446.89156626506025"/>
      <point x="453.50602409638554" y="369.49397590361446" type="curve"/>
      <point x="465.73493975903614" y="367.34939759036143" type="line"/>
      <point x="456.6746987951807" y="449.7469879518072"/>
      <point x="405.3614457831325" y="493.6024096385542"/>
      <point x="327.27710843373495" y="493.6024096385542" type="curve" smooth="yes"/>
      <point x="248.7951807228916" y="493.6024096385542"/>
      <point x="186.33734939759034" y="449.12048192771084"/>
      <point x="151.65060240963857" y="369.26506024096386" type="curve"/>
      <point x="160.96385542168676" y="362.7710843373494" type="line"/>
      <point x="175.59036144578315" y="456.3012048192771" type="line" smooth="yes"/>
      <point x="178.73493975903617" y="477.9397590361446"/>
      <point x="169.75903614457832" y="491.6024096385542"/>
      <point x="151.57831325301206" y="491.6024096385542" type="curve" smooth="yes"/>
      <point x="132.6265060240964" y="491.6024096385542"/>
      <point x="120.19277108433734" y="481.6265060240964"/>
      <point x="117.27710843373494" y="461.6746987951807" type="curve" smooth="yes"/>
      <point x="48.79518072289156" y="29.072289156626507" type="line" smooth="yes"/>
      <point x="44.87951807228915" y="6.433734939759036"/>
      <point x="54.626506024096386" y="-6.457831325301205"/>
    </contour>
  </outline>
</glyph>
<glyph name="n" format="2">
  <advance width="560.3253012048193"/>
  <unicode hex="006E"/>
  <anchor x="247.20481927710844" y="0.0" name="bottom"/>
  <anchor x="318.7469879518072" y="484.0" name="top"/>
  <outline>
    <contour>
      <point x="72.57831325301204" y="-6.228915662650603" type="curve" smooth="yes"/>
      <point x="92.98795180722891" y="-6.228915662650603"/>
      <point x="104.65060240963855" y="3.975903614457831"/>
      <point x="107.56626506024095" y="24.156626506024097" type="curve" smooth="yes"/>
      <point x="145.19277108433735" y="263.77108433734935" type="line" smooth="yes"/>
      <point x="162.04819277108433" y="371.13253012048193"/>
      <point x="223.9277108433735" y="441.09638554216866"/>
      <point x="330.6867469879518" y="441.09638554216866" type="curve" smooth="yes"/>
      <point x="411.73493975903614" y="441.09638554216866"/>
      <point x="444.7590361445783" y="393.30120481927713"/>
      <point x="428.90361445783134" y="294.855421686747" type="curve" smooth="yes"/>
      <point x="386.73493975903614" y="29.759036144578314" type="line" smooth="yes"/>
      <point x="382.81927710843377" y="6.8915662650602405"/>
      <point x="392.79518072289153" y="-6.228915662650603"/>
      <point x="411.7469879518072" y="-6.228915662650603" type="curve" smooth="yes"/>
      <point x="431.9277108433735" y="-6.228915662650603"/>
      <point x="443.81927710843377" y="3.975903614457831"/>
      <point x="446.73493975903614" y="22.6144578313253" type="curve" smooth="yes"/>
      <point x="489.90361445783134" y="294.54216867469876" type="line" smooth="yes"/>
      <point x="511.13253012048193" y="429.6024096385542"/>
      <point x="450.6746987951807" y="493.6024096385542"/>
      <point x="342.90361445783134" y="493.6024096385542" type="curve" smooth="yes"/>
      <point x="250.42168674698794" y="493.6024096385542"/>
      <point x="183.33734939759037" y="447.66265060240966"/>
      <point x="150.33734939759037" y="369.95180722891564" type="curve"/>
      <point x="159.73493975903617" y="364.2289156626506" type="line"/>
      <point x="174.36144578313255" y="456.7590361445783" type="line" smooth="yes"/>
      <point x="178.27710843373495" y="479.3975903614458"/>
      <point x="168.53012048192772" y="491.6024096385542"/>
      <point x="150.80722891566265" y="491.6024096385542" type="curve" smooth="yes"/>
      <point x="131.6265060240964" y="491.6024096385542"/>
      <point x="118.73493975903614" y="481.3975903614458"/>
      <point x="115.81927710843372" y="461.2168674698795" type="curve" smooth="yes"/>
      <point x="47.79518072289156" y="31.30120481927711" type="line" smooth="yes"/>
      <point x="43.87951807228915" y="8.433734939759036"/>
      <point x="53.626506024096386" y="-6.228915662650603"/>
    </contour>
  </outline>
</glyph>
<glyph name="o" format="2">
  <advance width="546.6987951807229"/>
  <unicode hex="006F"/>
  <anchor x="245.97590361445782" y="0.0" name="bottom"/>
  <anchor x="273.578313253012" y="242.6867469879518" name="center"/>
  <anchor x="306.12048192771084" y="0.0" name="ogonek"/>
  <anchor x="314.12048192771084" y="484.0" name="top"/>
  <anchor x="360.8072289156626" y="484.0" name="topright"/>
  <outline>
    <contour>
      <point x="250.03614457831324" y="-8.457831325301205" type="curve" smooth="yes"/>
      <point x="405.6626506024096" y="-8.457831325301205"/>
      <point x="498.90361445783134" y="123.59036144578315"/>
      <point x="498.90361445783134" y="282.62650602409633" type="curve" smooth="yes"/>
      <point x="498.90361445783134" y="413.7710843373494"/>
      <point x="421.3855421686747" y="493.6024096385542"/>
      <point x="296.6626506024096" y="493.6024096385542" type="curve" smooth="yes"/>
      <point x="141.03614457831327" y="493.6024096385542"/>
      <point x="47.795180722891565" y="361.55421686746985"/>
      <point x="47.795180722891565" y="202.51807228915663" type="curve" smooth="yes"/>
      <point x="47.795180722891565" y="71.37349397590361"/>
      <point x="125.31325301204821" y="-8.457831325301205"/>
    </contour>
    <contour>
      <point x="252.26506024096383" y="43.36144578313253" type="curve" smooth="yes"/>
      <point x="162.90361445783134" y="43.36144578313253"/>
      <point x="109.79518072289157" y="97.1566265060241"/>
      <point x="109.79518072289157" y="200.06024096385542" type="curve" smooth="yes"/>
      <point x="109.79518072289157" y="332.65060240963857"/>
      <point x="174.90361445783134" y="441.7831325301205"/>
      <point x="294.433734939759" y="441.7831325301205" type="curve" smooth="yes"/>
      <point x="383.7951807228916" y="441.7831325301205"/>
      <point x="436.90361445783134" y="387.9879518072289"/>
      <point x="436.90361445783134" y="285.0843373493976" type="curve" smooth="yes"/>
      <point x="436.90361445783134" y="152.49397590361446"/>
      <point x="371.7951807228916" y="43.36144578313253"/>
    </contour>
  </outline>
</glyph>
<glyph name="p" format="2">
  <advance width="575.3253012048193"/>
  <unicode hex="0070"/>
  <anchor x="247.66265060240966" y="0.0" name="bottom"/>
  <anchor x="324.43373493975906" y="484.0" name="top"/>
  <outline>
    <contour>
      <point x="43.03614457831325" y="-186.4578313253012" type="curve" smooth="yes"/>
      <point x="63.44578313253012" y="-186.4578313253012"/>
      <point x="74.65060240963855" y="-176.93975903614458"/>
      <point x="77.79518072289156" y="-156.75903614457832" type="curve" smooth="yes"/>
      <point x="121.50602409638553" y="116.27710843373494" type="line"/>
      <point x="114.04819277108435" y="116.27710843373494" type="line"/>
      <point x="137.04819277108436" y="31.39759036144578"/>
      <point x="205.21686746987953" y="-8.457831325301205"/>
      <point x="284.8433734939759" y="-8.457831325301205" type="curve" smooth="yes"/>
      <point x="441.69879518072287" y="-8.457831325301205"/>
      <point x="527.7590361445783" y="128.1686746987952"/>
      <point x="527.7590361445783" y="286.4578313253012" type="curve" smooth="yes"/>
      <point x="527.7590361445783" y="414.144578313253"/>
      <point x="452.4457831325301" y="493.6024096385542"/>
      <point x="338.90361445783134" y="493.6024096385542" type="curve" smooth="yes"/>
      <point x="252.10843373493975" y="493.6024096385542"/>
      <point x="186.48192771084337" y="449.12048192771084"/>
      <point x="151.7951807228916" y="377.1807228915663" type="curve"/>
      <point x="160.73493975903617" y="370.3132530120482" type="line"/>
      <point x="174.36144578313255" y="455.6144578313253" type="line" smooth="yes"/>
      <point x="178.27710843373495" y="478.48192771084337"/>
      <point x="168.9879518072289" y="491.6024096385542"/>
      <point x="150.03614457831327" y="491.6024096385542" type="curve" smooth="yes"/>
      <point x="129.85542168674698" y="491.6024096385542"/>
      <point x="118.19277108433734" y="481.1686746987952"/>
      <point x="115.04819277108433" y="460.7590361445783" type="curve" smooth="yes"/>
      <point x="18.024096385542162" y="-150.6987951807229" type="line" smooth="yes"/>
      <point x="14.108433734939752" y="-173.56626506024097"/>
      <point x="24.08433734939759" y="-186.4578313253012"/>
    </contour>
    <contour>
      <point x="281.12048192771084" y="43.36144578313253" type="curve" smooth="yes"/>
      <point x="191.75903614457832" y="43.36144578313253"/>
      <point x="138.65060240963857" y="97.1566265060241"/>
      <point x="138.65060240963857" y="200.06024096385542" type="curve" smooth="yes"/>
      <point x="138.65060240963857" y="332.65060240963857"/>
      <point x="203.75903614457832" y="441.7831325301205"/>
      <point x="323.289156626506" y="441.7831325301205" type="curve" smooth="yes"/>
      <point x="412.65060240963857" y="441.7831325301205"/>
      <point x="465.7590361445783" y="387.9879518072289"/>
      <point x="465.7590361445783" y="285.0843373493976" type="curve" smooth="yes"/>
      <point x="465.7590361445783" y="152.49397590361446"/>
      <point x="400.65060240963857" y="43.36144578313253"/>
    </contour>
  </outline>
</glyph>
<glyph name="q" format="2">
  <advance width="575.3253012048193"/>
  <unicode hex="0071"/>
  <anchor x="247.57831325301203" y="0.0" name="bottom"/>
  <anchor x="324.578313253012" y="484.0" name="top"/>
  <outline>
    <contour>
      <point x="396.28915662650604" y="-186.4578313253012" type="curve" smooth="yes"/>
      <point x="416.4698795180723" y="-186.4578313253012"/>
      <point x="428.3614457831325" y="-176.25301204819277"/>
      <point x="431.50602409638554" y="-155.6144578313253" type="curve" smooth="yes"/>
      <point x="528.5301204819276" y="455.6144578313253" type="line" smooth="yes"/>
      <point x="532.4457831325301" y="478.48192771084337"/>
      <point x="522.4698795180723" y="491.6024096385542"/>
      <point x="503.51807228915663" y="491.6024096385542" type="curve" smooth="yes"/>
      <point x="483.33734939759034" y="491.6024096385542"/>
      <point x="472.5903614457831" y="481.6265060240964"/>
      <point x="469.4457831325301" y="461.4457831325301" type="curve" smooth="yes"/>
      <point x="453.81927710843377" y="363.144578313253" type="line"/>
      <point x="461.04819277108436" y="368.86746987951807" type="line"/>
      <point x="438.0481927710843" y="453.7469879518072"/>
      <point x="370.1084337349398" y="493.6024096385542"/>
      <point x="290.93975903614455" y="493.6024096385542" type="curve" smooth="yes"/>
      <point x="133.6265060240964" y="493.6024096385542"/>
      <point x="47.566265060240966" y="357.2048192771084"/>
      <point x="47.566265060240966" y="198.6867469879518" type="curve" smooth="yes"/>
      <point x="47.566265060240966" y="71.22891566265059"/>
      <point x="122.87951807228916" y="-8.457831325301205"/>
      <point x="236.42168674698792" y="-8.457831325301205" type="curve" smooth="yes"/>
      <point x="323.2168674698795" y="-8.457831325301205"/>
      <point x="389.0722891566265" y="36.71084337349397"/>
      <point x="423.5301204819277" y="108.19277108433734" type="curve"/>
      <point x="412.2168674698795" y="108.19277108433734" type="line"/>
      <point x="371.50602409638554" y="-150.6987951807229" type="line" smooth="yes"/>
      <point x="368.3614457831325" y="-173.56626506024097"/>
      <point x="377.33734939759034" y="-186.4578313253012"/>
    </contour>
    <contour>
      <point x="252.03614457831324" y="43.36144578313253" type="curve" smooth="yes"/>
      <point x="162.67469879518072" y="43.36144578313253"/>
      <point x="109.56626506024097" y="97.1566265060241"/>
      <point x="109.56626506024097" y="200.06024096385542" type="curve" smooth="yes"/>
      <point x="109.56626506024097" y="332.65060240963857"/>
      <point x="174.67469879518072" y="441.7831325301205"/>
      <point x="294.2048192771084" y="441.7831325301205" type="curve" smooth="yes"/>
      <point x="383.566265060241" y="441.7831325301205"/>
      <point x="436.67469879518075" y="387.9879518072289"/>
      <point x="436.67469879518075" y="285.0843373493976" type="curve" smooth="yes"/>
      <point x="436.67469879518075" y="152.72289156626505"/>
      <point x="371.566265060241" y="43.36144578313253"/>
    </contour>
  </outline>
</glyph>
<glyph name="r" format="2">
  <advance width="341.87951807228916"/>
  <unicode hex="0072"/>
  <anchor x="73.80722891566265" y="0.0" name="bottom"/>
  <anchor x="245.26506024096386" y="486.7710843373494" name="top"/>
  <outline>
    <contour>
      <point x="72.57831325301206" y="-6.457831325301205" type="curve" smooth="yes"/>
      <point x="93.21686746987952" y="-6.457831325301205"/>
      <point x="104.87951807228916" y="3.5180722891566263"/>
      <point x="107.79518072289157" y="23.46987951807229" type="curve" smooth="yes"/>
      <point x="147.50602409638554" y="274.0481927710843" type="line" smooth="yes"/>
      <point x="162.81927710843374" y="368.69879518072287"/>
      <point x="205.6144578313253" y="429.89156626506025"/>
      <point x="320.289156626506" y="439.66265060240966" type="curve" smooth="yes"/>
      <point x="336.1807228915663" y="441.12048192771084" type="line" smooth="yes"/>
      <point x="360.6746987951807" y="443.5783132530121"/>
      <point x="368.8795180722891" y="452.5542168674699"/>
      <point x="368.87951807228916" y="472.6506024096385" type="curve" smooth="yes"/>
      <point x="368.8795180722891" y="489.5421686746988"/>
      <point x="360.4216867469879" y="495.6024096385542"/>
      <point x="334.98795180722897" y="495.144578313253" type="curve" smooth="yes"/>
      <point x="253.30120481927713" y="494.0"/>
      <point x="178.27710843373492" y="450.0"/>
      <point x="150.73493975903617" y="370.2289156626506" type="curve"/>
      <point x="161.50602409638554" y="370.2289156626506" type="line"/>
      <point x="175.13253012048193" y="456.3012048192771" type="line" smooth="yes"/>
      <point x="179.04819277108436" y="478.9397590361446"/>
      <point x="168.53012048192772" y="491.6024096385542"/>
      <point x="150.34939759036146" y="491.6024096385542" type="curve" smooth="yes"/>
      <point x="131.3975903614458" y="491.6024096385542"/>
      <point x="118.73493975903614" y="481.6265060240964"/>
      <point x="115.81927710843372" y="461.6746987951807" type="curve" smooth="yes"/>
      <point x="47.56626506024096" y="29.072289156626507" type="line" smooth="yes"/>
      <point x="43.650602409638545" y="6.433734939759036"/>
      <point x="53.397590361445786" y="-6.457831325301205"/>
    </contour>
  </outline>
</glyph>
<glyph name="s" format="2">
  <advance width="477.9759036144578"/>
  <unicode hex="0073"/>
  <anchor x="209.51807228915663" y="0.0" name="bottom"/>
  <anchor x="269.8313253012048" y="484.0" name="top"/>
  <outline>
    <contour>
      <point x="221.3734939759036" y="-8.457831325301205" type="curve" smooth="yes"/>
      <point x="331.95180722891564" y="-8.457831325301205"/>
      <point x="406.69879518072287" y="45.68674698795181"/>
      <point x="406.69879518072287" y="135.57831325301206" type="curve" smooth="yes"/>
      <point x="406.69879518072287" y="195.95180722891567"/>
      <point x="366.0120481927711" y="234.32530120481928"/>
      <point x="299.89156626506025" y="251.32530120481928" type="curve" smooth="yes"/>
      <point x="204.03614457831324" y="275.72289156626505" type="line" smooth="yes"/>
      <point x="159.24096385542168" y="287.34939759036143"/>
      <point x="138.3012048192771" y="313.8313253012048"/>
      <point x="138.3012048192771" y="349.3975903614458" type="curve" smooth="yes"/>
      <point x="138.3012048192771" y="407.13253012048193"/>
      <point x="188.18072289156626" y="443.3855421686747"/>
      <point x="266.289156626506" y="443.3855421686747" type="curve" smooth="yes"/>
      <point x="314.77108433734935" y="443.3855421686747"/>
      <point x="356.5421686746988" y="430.30120481927713"/>
      <point x="390.5421686746988" y="403.81927710843377" type="curve" smooth="yes"/>
      <point x="424.55421686746985" y="379.53012048192767"/>
      <point x="449.21686746987956" y="420.83132530120486"/>
      <point x="417.43373493975906" y="445.8072289156626" type="curve" smooth="yes"/>
      <point x="382.83132530120486" y="475.2048192771084"/>
      <point x="324.91566265060237" y="493.6024096385542"/>
      <point x="268.43373493975906" y="493.6024096385542" type="curve" smooth="yes"/>
      <point x="153.65060240963857" y="493.6024096385542"/>
      <point x="78.50602409638554" y="432.16867469879514"/>
      <point x="78.50602409638554" y="347.0240963855422" type="curve" smooth="yes"/>
      <point x="78.50602409638554" y="287.421686746988"/>
      <point x="118.19277108433735" y="243.96385542168676"/>
      <point x="181.39759036144576" y="228.19277108433735" type="curve" smooth="yes"/>
      <point x="277.2530120481928" y="203.79518072289156" type="line" smooth="yes"/>
      <point x="320.9638554216868" y="192.93975903614458"/>
      <point x="346.9036144578313" y="168.22891566265062"/>
      <point x="346.9036144578313" y="131.2048192771084" type="curve" smooth="yes"/>
      <point x="346.9036144578313" y="73.69879518072288"/>
      <point x="299.7951807228916" y="41.75903614457831"/>
      <point x="223.6867469879518" y="41.75903614457831" type="curve" smooth="yes"/>
      <point x="171.51807228915663" y="41.75903614457831"/>
      <point x="124.28915662650601" y="53.53012048192771"/>
      <point x="83.06024096385542" y="80.6987951807229" type="curve" smooth="yes"/>
      <point x="46.734939759036145" y="103.98795180722891"/>
      <point x="24.30120481927711" y="57.54216867469879"/>
      <point x="56.2289156626506" y="36.56626506024096" type="curve" smooth="yes"/>
      <point x="97.144578313253" y="8.397590361445783"/>
      <point x="156.83132530120483" y="-8.457831325301205"/>
    </contour>
  </outline>
</glyph>
<glyph name="t" format="2">
  <advance width="334.65060240963857"/>
  <unicode hex="0074"/>
  <anchor x="178.40963855421685" y="0.0" name="bottom"/>
  <anchor x="161.18072289156626" y="269.48192771084337" name="center"/>
  <anchor x="193.55421686746988" y="635.0" name="top"/>
  <anchor x="310.5903614457831" y="705.0" name="topright"/>
  <outline>
    <contour>
      <point x="228.6987951807229" y="-8.457831325301205" type="curve" smooth="yes"/>
      <point x="248.4698795180723" y="-8.457831325301205"/>
      <point x="275.0120481927711" y="-3.91566265060241"/>
      <point x="288.69879518072287" y="1.0843373493975905" type="curve" smooth="yes"/>
      <point x="302.1325301204819" y="6.0"/>
      <point x="308.10843373493975" y="14.373493975903616"/>
      <point x="308.10843373493975" y="33.9277108433735" type="curve" smooth="yes"/>
      <point x="308.10843373493975" y="48.59036144578314"/>
      <point x="302.1927710843373" y="53.50602409638554"/>
      <point x="291.90361445783134" y="53.506024096385545" type="curve" smooth="yes"/>
      <point x="280.98795180722897" y="53.506024096385545"/>
      <point x="266.90361445783134" y="45.19277108433735"/>
      <point x="236.73493975903617" y="45.19277108433735" type="curve" smooth="yes"/>
      <point x="168.77108433734938" y="45.19277108433735"/>
      <point x="136.0" y="80.67469879518073"/>
      <point x="150.08433734939757" y="168.40963855421685" type="curve" smooth="yes"/>
      <point x="192.33734939759034" y="435.86746987951807" type="line"/>
      <point x="327.86746987951807" y="435.86746987951807" type="line" smooth="yes"/>
      <point x="346.9036144578313" y="435.86746987951807"/>
      <point x="359.65060240963857" y="446.5301204819277"/>
      <point x="359.65060240963857" y="464.65060240963857" type="curve" smooth="yes"/>
      <point x="359.65060240963857" y="478.31325301204816"/>
      <point x="349.1325301204819" y="485.144578313253"/>
      <point x="330.78313253012044" y="485.144578313253" type="curve" smooth="yes"/>
      <point x="200.39759036144576" y="485.144578313253" type="line"/>
      <point x="219.56626506024097" y="606.3855421686748" type="line" smooth="yes"/>
      <point x="223.48192771084337" y="628.7951807228916"/>
      <point x="213.50602409638554" y="641.4578313253012"/>
      <point x="193.86746987951807" y="641.4578313253012" type="curve" smooth="yes"/>
      <point x="174.144578313253" y="641.4578313253012"/>
      <point x="162.710843373494" y="631.710843373494"/>
      <point x="159.7951807228916" y="611.9879518072289" type="curve" smooth="yes"/>
      <point x="139.3975903614458" y="485.144578313253" type="line"/>
      <point x="66.18072289156626" y="485.144578313253" type="line" smooth="yes"/>
      <point x="46.45783132530121" y="485.144578313253"/>
      <point x="33.25301204819277" y="475.3975903614458"/>
      <point x="33.25301204819277" y="456.5903614457831" type="curve" smooth="yes"/>
      <point x="33.25301204819277" y="442.9277108433735"/>
      <point x="43.7710843373494" y="435.86746987951807"/>
      <point x="61.89156626506024" y="435.86746987951807" type="curve" smooth="yes"/>
      <point x="132.10843373493978" y="435.86746987951807" type="line"/>
      <point x="88.0843373493976" y="159.63855421686748" type="line" smooth="yes"/>
      <point x="71.62650602409639" y="56.433734939759034"/>
      <point x="123.144578313253" y="-8.457831325301205"/>
    </contour>
  </outline>
</glyph>
<glyph name="u" format="2">
  <advance width="552.7831325301205"/>
  <unicode hex="0075"/>
  <anchor x="238.66265060240966" y="0.0" name="bottom"/>
  <anchor x="426.12048192771084" y="0.0" name="ogonek"/>
  <anchor x="311.12048192771084" y="485.0" name="top"/>
  <anchor x="458.54216867469876" y="484.0" name="topright"/>
  <outline>
    <contour>
      <point x="214.87951807228916" y="-8.457831325301205" type="curve" smooth="yes"/>
      <point x="302.5903614457831" y="-8.457831325301205"/>
      <point x="371.2168674698795" y="37.48192771084338"/>
      <point x="403.13253012048193" y="115.87951807228916" type="curve"/>
      <point x="393.0481927710843" y="122.06024096385542" type="line"/>
      <point x="378.4216867469879" y="27.698795180722893" type="line" smooth="yes"/>
      <point x="374.73493975903614" y="5.289156626506024"/>
      <point x="384.710843373494" y="-6.457831325301205"/>
      <point x="403.66265060240966" y="-6.457831325301205" type="curve" smooth="yes"/>
      <point x="422.6144578313253" y="-6.457831325301205"/>
      <point x="434.04819277108436" y="3.5180722891566263"/>
      <point x="436.96385542168673" y="23.240963855421686" type="curve" smooth="yes"/>
      <point x="505.9879518072289" y="458.6144578313253" type="line" smooth="yes"/>
      <point x="509.13253012048193" y="479.48192771084337"/>
      <point x="499.1566265060241" y="491.6024096385542"/>
      <point x="479.51807228915663" y="491.6024096385542" type="curve" smooth="yes"/>
      <point x="459.79518072289153" y="491.6024096385542"/>
      <point x="448.3614457831325" y="481.855421686747"/>
      <point x="445.4457831325301" y="462.13253012048193" type="curve" smooth="yes"/>
      <point x="407.8192771084337" y="221.6024096385542" type="line" smooth="yes"/>
      <point x="390.96385542168673" y="114.24096385542168"/>
      <point x="328.855421686747" y="44.27710843373494"/>
      <point x="227.0963855421687" y="44.27710843373494" type="curve" smooth="yes"/>
      <point x="148.59036144578312" y="44.27710843373494"/>
      <point x="116.02409638554217" y="91.8433734939759"/>
      <point x="131.65060240963857" y="190.289156626506" type="curve" smooth="yes"/>
      <point x="173.81927710843374" y="456.53012048192767" type="line" smooth="yes"/>
      <point x="177.73493975903614" y="478.9397590361446"/>
      <point x="166.75903614457832" y="491.6024096385542"/>
      <point x="147.34939759036146" y="491.6024096385542" type="curve" smooth="yes"/>
      <point x="127.62650602409639" y="491.6024096385542"/>
      <point x="116.19277108433735" y="481.855421686747"/>
      <point x="113.27710843373494" y="462.13253012048193" type="curve" smooth="yes"/>
      <point x="70.42168674698796" y="190.83132530120483" type="line" smooth="yes"/>
      <point x="48.96385542168675" y="55.5421686746988"/>
      <point x="109.87951807228917" y="-8.457831325301205"/>
    </contour>
  </outline>
</glyph>
<glyph name="v" format="2">
  <advance width="509.26506024096386"/>
  <unicode hex="0076"/>
  <anchor x="215.97590361445782" y="0.0" name="bottom"/>
  <anchor x="292.7469879518072" y="484.0" name="top"/>
  <outline>
    <contour>
      <point x="216.66265060240966" y="-6.457831325301205" type="curve" smooth="yes"/>
      <point x="236.63855421686745" y="-6.457831325301205"/>
      <point x="248.07228915662648" y="2.144578313253012"/>
      <point x="258.81927710843377" y="20.49397590361446" type="curve" smooth="yes"/>
      <point x="508.95180722891564" y="446.9879518072289" type="line" smooth="yes"/>
      <point x="522.9277108433735" y="471.0240963855421"/>
      <point x="512.867469879518" y="491.6024096385542"/>
      <point x="488.0" y="491.6024096385542" type="curve" smooth="yes"/>
      <point x="472.1927710843374" y="491.6024096385542"/>
      <point x="463.44578313253015" y="485.2289156626506"/>
      <point x="454.69879518072287" y="469.421686746988" type="curve" smooth="yes"/>
      <point x="206.26506024096386" y="36.74698795180723" type="line"/>
      <point x="231.63855421686748" y="36.74698795180723" type="line"/>
      <point x="124.10843373493975" y="463.13253012048193" type="line" smooth="yes"/>
      <point x="118.73493975903615" y="483.54216867469876"/>
      <point x="110.75903614457832" y="491.6024096385542"/>
      <point x="93.72289156626506" y="491.6024096385542" type="curve" smooth="yes"/>
      <point x="69.3132530120482" y="491.6024096385542"/>
      <point x="57.65060240963855" y="472.56626506024094"/>
      <point x="64.71084337349397" y="446.4698795180723" type="curve" smooth="yes"/>
      <point x="177.59036144578315" y="27.096385542168676" type="line" smooth="yes"/>
      <point x="183.96385542168676" y="5.060240963855422"/>
      <point x="195.16867469879517" y="-6.457831325301205"/>
    </contour>
  </outline>
</glyph>
